<svg width="222" height="210" viewBox="0 0 222 210" fill="none" xmlns="http://www.w3.org/2000/svg">
<path d="M111.248 209.456C90.32 209.456 71.408 204.944 54.512 195.92C37.808 186.896 24.656 174.512 15.056 158.768C5.648 142.832 0.944001 124.976 0.944001 105.2C0.944001 85.424 5.648 67.664 15.056 51.92C24.656 35.984 37.808 23.504 54.512 14.48C71.408 5.456 90.32 0.943996 111.248 0.943996C132.176 0.943996 150.992 5.456 167.696 14.48C184.4 23.504 197.552 35.984 207.152 51.92C216.752 67.664 221.552 85.424 221.552 105.2C221.552 124.976 216.752 142.832 207.152 158.768C197.552 174.512 184.4 186.896 167.696 195.92C150.992 204.944 132.176 209.456 111.248 209.456ZM111.248 169.712C123.152 169.712 133.904 167.024 143.504 161.648C153.104 156.08 160.592 148.4 165.968 138.608C171.536 128.816 174.32 117.68 174.32 105.2C174.32 92.72 171.536 81.584 165.968 71.792C160.592 62 153.104 54.416 143.504 49.04C133.904 43.472 123.152 40.688 111.248 40.688C99.344 40.688 88.592 43.472 78.992 49.04C69.392 54.416 61.808 62 56.24 71.792C50.864 81.584 48.176 92.72 48.176 105.2C48.176 117.68 50.864 128.816 56.24 138.608C61.808 148.4 69.392 156.08 78.992 161.648C88.592 167.024 99.344 169.712 111.248 169.712Z" fill="#282C34"/>
</svg>
