<svg width="184" height="202" viewBox="0 0 184 202" fill="none" xmlns="http://www.w3.org/2000/svg">
<path d="M183.8 0.399986V202H137.432V38.416H46.424V202H0.0560014V0.399986H183.8Z" fill="white"/>
<path d="M183.8 0.399986H186.8V-2.60001H183.8V0.399986ZM183.8 202V205H186.8V202H183.8ZM137.432 202H134.432V205H137.432V202ZM137.432 38.416H140.432V35.416H137.432V38.416ZM46.424 38.416V35.416H43.424V38.416H46.424ZM46.424 202V205H49.424V202H46.424ZM0.0560017 202H-2.944V205H0.0560017V202ZM0.0560017 0.399986V-2.60001H-2.944V0.399986H0.0560017ZM180.8 0.399986V202H186.8V0.399986H180.8ZM183.8 199H137.432V205H183.8V199ZM140.432 202V38.416H134.432V202H140.432ZM137.432 35.416H46.424V41.416H137.432V35.416ZM43.424 38.416V202H49.424V38.416H43.424ZM46.424 199H0.0560017V205H46.424V199ZM3.056 202V0.399986H-2.944V202H3.056ZM0.0560017 3.39999H183.8V-2.60001H0.0560017V3.39999Z" fill="#282C34"/>
</svg>
