<svg viewBox="0 0 1330 498" fill="none" xmlns="http://www.w3.org/2000/svg">
    <g><svg x="3">
        <path d="M208.8 39.4V241H162.432V77.416H71.424V241H25.056V39.4H208.8Z" fill="white"/>
        <path d="M208.8 39.4H211.8V36.4H208.8V39.4ZM208.8 241V244H211.8V241H208.8ZM162.432 241H159.432V244H162.432V241ZM162.432 77.416H165.432V74.416H162.432V77.416ZM71.424 77.416V74.416H68.424V77.416H71.424ZM71.424 241V244H74.424V241H71.424ZM25.056 241H22.056V244H25.056V241ZM25.056 39.4V36.4H22.056V39.4H25.056ZM205.8 39.4V241H211.8V39.4H205.8ZM208.8 238H162.432V244H208.8V238ZM165.432 241V77.416H159.432V241H165.432ZM162.432 74.416H71.424V80.416H162.432V74.416ZM68.424 77.416V241H74.424V77.416H68.424ZM71.424 238H25.056V244H71.424V238ZM28.056 241V39.4H22.056V241H28.056ZM25.056 42.4H208.8V36.4H25.056V42.4Z" fill="#282C34"/>
    </svg></g>
    <g><svg><path d="M415.152 443.56V481H259.056V279.4H411.408V316.84H305.424V360.616H399.024V396.904H305.424V443.56H415.152Z" fill="#282C34"/></svg></g>
    <g><svg><path d="M810.136 317.416H745.624V481H699.544V317.416H635.32V279.4H810.136V317.416Z" fill="#282C34"/></svg></g>
    <g><svg><path d="M531.104 399.784H498.848V481H452.48V279.4H498.848V360.904H532.256L585.248 279.4H634.496L568.544 376.744L636.512 481H583.52L531.104 399.784Z" fill="#282C34"/></svg></g>
    <g><svg><rect x="105" width="40" height="80" transform="rotate(90 105 0)" fill="#282C34"/></svg></g>
    <g><svg><rect x="1368.5" y="115.5" width="37" height="597" transform="rotate(90 1368.5 115.5)" fill="white" stroke="#282C34" stroke-width="3"/></svg></g>
    <g><svg><path d="M346.32 39.4C364.176 39.4 379.632 42.376 392.688 48.328C405.936 54.28 416.112 62.728 423.216 73.672C430.32 84.616 433.872 97.576 433.872 112.552C433.872 127.336 430.32 140.296 423.216 151.432C416.112 162.376 405.936 170.824 392.688 176.776C379.632 182.536 364.176 185.416 346.32 185.416H305.712V241H259.056V39.4H346.32ZM343.728 147.4C357.744 147.4 368.4 144.424 375.696 138.472C382.992 132.328 386.64 123.688 386.64 112.552C386.64 101.224 382.992 92.584 375.696 86.632C368.4 80.488 357.744 77.416 343.728 77.416H305.712V147.4H343.728Z" fill="#282C34"/></svg></g>
    <g><svg><path d="M564.248 244.456C543.32 244.456 524.408 239.944 507.512 230.92C490.808 221.896 477.656 209.512 468.056 193.768C458.648 177.832 453.944 159.976 453.944 140.2C453.944 120.424 458.648 102.664 468.056 86.92C477.656 70.984 490.808 58.504 507.512 49.48C524.408 40.456 543.32 35.944 564.248 35.944C585.176 35.944 603.992 40.456 620.696 49.48C637.4 58.504 650.552 70.984 660.152 86.92C669.752 102.664 674.552 120.424 674.552 140.2C674.552 159.976 669.752 177.832 660.152 193.768C650.552 209.512 637.4 221.896 620.696 230.92C603.992 239.944 585.176 244.456 564.248 244.456ZM564.248 204.712C576.152 204.712 586.904 202.024 596.504 196.648C606.104 191.08 613.592 183.4 618.968 173.608C624.536 163.816 627.32 152.68 627.32 140.2C627.32 127.72 624.536 116.584 618.968 106.792C613.592 97 606.104 89.416 596.504 84.04C586.904 78.472 576.152 75.688 564.248 75.688C552.344 75.688 541.592 78.472 531.992 84.04C522.392 89.416 514.808 97 509.24 106.792C503.864 116.584 501.176 127.72 501.176 140.2C501.176 152.68 503.864 163.816 509.24 173.608C514.808 183.4 522.392 191.08 531.992 196.648C541.592 202.024 552.344 204.712 564.248 204.712Z" fill="#282C34"/></svg></g>
    <g><svg><path d="M50.1413 17L50.1413 24L49.4113 24L49.4113 17.64L44.9813 17.64L44.9813 24L44.2513 24L44.2513 17L50.1413 17ZM65.1232 17C66.0166 17 66.7166 17.2133 67.2232 17.64C67.7299 18.0667 67.9832 18.6533 67.9832 19.4C67.9832 20.1467 67.7299 20.7333 67.2232 21.16C66.7166 21.58 66.0166 21.79 65.1232 21.79L63.2432 21.79V24H62.5032L62.5032 17L65.1232 17ZM65.1032 21.14C65.7966 21.14 66.3266 20.99 66.6932 20.69C67.0599 20.3833 67.2432 19.9533 67.2432 19.4C67.2432 18.8333 67.0599 18.4 66.6932 18.1C66.3266 17.7933 65.7966 17.64 65.1032 17.64L63.2432 17.64L63.2432 21.14L65.1032 21.14ZM82.6729 24.06C81.9795 24.06 81.3495 23.9067 80.7829 23.6C80.2229 23.2867 79.7829 22.86 79.4629 22.32C79.1495 21.78 78.9929 21.1733 78.9929 20.5C78.9929 19.8267 79.1495 19.22 79.4629 18.68C79.7829 18.14 80.2229 17.7167 80.7829 17.41C81.3495 17.0967 81.9795 16.94 82.6729 16.94C83.3662 16.94 83.9895 17.0933 84.5429 17.4C85.1029 17.7067 85.5429 18.1333 85.8629 18.68C86.1829 19.22 86.3429 19.8267 86.3429 20.5C86.3429 21.1733 86.1829 21.7833 85.8629 22.33C85.5429 22.87 85.1029 23.2933 84.5429 23.6C83.9895 23.9067 83.3662 24.06 82.6729 24.06ZM82.6729 23.4C83.2262 23.4 83.7262 23.2767 84.1729 23.03C84.6195 22.7767 84.9695 22.43 85.2229 21.99C85.4762 21.5433 85.6029 21.0467 85.6029 20.5C85.6029 19.9533 85.4762 19.46 85.2229 19.02C84.9695 18.5733 84.6195 18.2267 84.1729 17.98C83.7262 17.7267 83.2262 17.6 82.6729 17.6C82.1195 17.6 81.6162 17.7267 81.1629 17.98C80.7162 18.2267 80.3629 18.5733 80.1029 19.02C79.8495 19.46 79.7229 19.9533 79.7229 20.5C79.7229 21.0467 79.8495 21.5433 80.1029 21.99C80.3629 22.43 80.7162 22.7767 81.1629 23.03C81.6162 23.2767 82.1195 23.4 82.6729 23.4Z" fill="white"/></svg></g>
</svg>
