<svg width="175" height="202" viewBox="0 0 175 202" fill="none" xmlns="http://www.w3.org/2000/svg">
<path d="M87.32 0.399986C105.176 0.399986 120.632 3.37599 133.688 9.32799C146.936 15.28 157.112 23.728 164.216 34.672C171.32 45.616 174.872 58.576 174.872 73.552C174.872 88.336 171.32 101.296 164.216 112.432C157.112 123.376 146.936 131.824 133.688 137.776C120.632 143.536 105.176 146.416 87.32 146.416H46.712V202H0.0560014V0.399986H87.32ZM84.728 108.4C98.744 108.4 109.4 105.424 116.696 99.472C123.992 93.328 127.64 84.688 127.64 73.552C127.64 62.224 123.992 53.584 116.696 47.632C109.4 41.488 98.744 38.416 84.728 38.416H46.712V108.4H84.728Z" fill="#282C34"/>
</svg>
