<svg width="21" height="26" viewBox="0 0 21 26" fill="none" xmlns="http://www.w3.org/2000/svg">
<path d="M10.6895 25.2505L20.6896 16.2504C21.0938 15.8631 21.0967 15.2012 20.7366 14.8283C20.3707 14.4493 19.699 14.4215 19.3145 14.7813L11.0019 22.1877L11.5542 1C11.5542 0.4477 11.1065 -4.32459e-07 10.5542 -4.566e-07C10.0019 -4.80742e-07 9.5542 0.4477 9.5542 0.999999L9.0019 22.1877L1.6894 14.7813C1.3049 14.4212 0.627281 14.4434 0.26728 14.8283C-0.0927207 15.2129 -0.101622 15.8318 0.314277 16.2504L9.31428 25.2505C9.78228 25.6308 10.3559 25.5308 10.6895 25.2505Z" fill="white"/>
</svg>
