<svg width="149" height="70" viewBox="0 0 149 70" fill="none" xmlns="http://www.w3.org/2000/svg">
<path d="M32.6821 7.05118H18.1628V0.682373C18.054 0.682373 17.8909 0.682373 17.7821 0.682373H0V69.2608H7.50438V39.1795H17.8365C29.2562 39.1795 36.9237 31.6734 36.9781 20.0162V19.9025C36.9237 14.671 35.3467 10.2924 32.6821 7.05118ZM17.7821 32.5264H7.45V7.3355H17.7821C24.7427 7.3355 29.4193 12.3396 29.4193 19.9594C29.4193 27.5223 24.7427 32.5264 17.7821 32.5264Z" fill="#282C34"/>
<path d="M44.1017 18.5378V7.05118H52.8024C56.6633 3.92364 61.2856 1.70593 66.6148 0.682373H18.1626C24.3075 0.796102 29.3648 3.07068 32.6819 7.05118H36.9236V19.9594V20.0163V20.0731V69.3176H44.156V51.5191C42.0352 46.7425 40.8933 41.1698 40.8933 35.0284C40.8389 28.8871 41.9809 23.3144 44.1017 18.5378Z" fill="#282C34"/>
<path d="M74.2283 63.1763C58.8389 63.1763 48.3437 51.6897 48.3437 34.9716C48.3437 18.3103 58.8389 6.82372 74.2283 6.82372C82.1133 6.82372 88.6389 9.78067 93.2612 14.7847L97.9378 9.89439C92.1192 3.63932 83.7991 0 73.8477 0C71.3462 0 68.8991 0.227457 66.6152 0.682372H67.7572V7.05118H52.8028C49.105 10.065 46.1685 13.9886 44.1021 18.5378V51.4054C49.2137 62.892 59.9265 70 73.7933 70C83.7447 70 92.0648 66.3607 97.8834 60.1056L93.2068 55.329C88.6389 60.3331 82.059 63.1763 74.2283 63.1763Z" fill="#282C34"/>
<path d="M64.4941 32.5833C65.908 32.5833 67.1043 32.0715 67.92 31.1617L68.7901 32.0147C67.7569 33.1519 66.2343 33.8343 64.4397 33.8343C60.8507 33.8343 58.458 31.2754 58.458 27.4655C58.458 23.7125 60.8507 21.1536 64.4397 21.1536C66.2343 21.1536 67.7569 21.8359 68.7901 22.9732L67.92 23.8831C67.1043 22.9732 65.908 22.4614 64.4941 22.4614C61.7208 22.4614 59.8175 24.5654 59.8175 27.5792C59.8175 30.5362 61.7208 32.5833 64.4941 32.5833Z" fill="#282C34"/>
<path d="M73.9017 25.589C76.24 25.589 77.817 27.2381 77.817 29.6832C77.817 32.1284 76.24 33.8343 73.9017 33.8343C71.5633 33.8343 69.9863 32.1853 69.9863 29.6832C69.9863 27.2381 71.5633 25.589 73.9017 25.589ZM73.9017 32.6402C75.4243 32.6402 76.5119 31.446 76.5119 29.6832C76.5119 27.9204 75.4243 26.7263 73.9017 26.7263C72.379 26.7263 71.2914 27.9204 71.2914 29.6832C71.2914 31.446 72.3246 32.6402 73.9017 32.6402Z" fill="#282C34"/>
<path d="M81.0798 25.7027V26.3851C81.678 25.8733 82.4393 25.589 83.3094 25.589C85.0495 25.589 86.1915 26.8969 86.1915 28.8871V33.7206H84.9408V28.8871C84.9408 27.6361 84.1795 26.7831 83.0375 26.7831C82.2218 26.7831 81.5693 27.0675 81.0798 27.5792V33.7206H79.8291V25.7596H81.0798V25.7027Z" fill="#282C34"/>
<path d="M92.1737 27.2949C91.8474 26.8968 91.1948 26.6694 90.7054 26.6694C89.8897 26.6694 89.5635 27.2949 89.5635 27.8067C89.5635 28.489 90.216 28.7734 91.1405 29.1714C92.1193 29.6263 93.1525 30.1381 93.1525 31.3891C93.1525 32.5833 92.3368 33.7774 90.5967 33.7774C89.6178 33.7774 88.6934 33.3794 88.0952 32.697L88.8565 31.9009C89.2372 32.3558 89.9441 32.6401 90.5423 32.6401C91.5211 32.6401 91.9018 31.9578 91.9018 31.3891C91.9018 30.7636 91.358 30.4793 90.3792 30.0812C89.2916 29.6263 88.3127 29.1145 88.3127 27.7498C88.3127 26.6125 89.0197 25.4752 90.5967 25.4752C91.4667 25.4752 92.3368 25.8164 92.935 26.4419L92.1737 27.2949Z" fill="#282C34"/>
<path d="M94.2941 25.7027H95.273V23.9399H96.5781V25.7027H98.5901V26.7832H96.5781V31.2186C96.5781 32.0715 97.1218 32.697 97.9375 32.697C98.1551 32.697 98.4269 32.6402 98.5901 32.5265V33.6637C98.3182 33.7775 97.9919 33.8343 97.6656 33.8343C96.1974 33.8343 95.2186 32.8108 95.2186 31.2186V26.7832H94.2397V25.7027H94.2941Z" fill="#282C34"/>
<path d="M104.3 25.6458V26.84C104.137 26.7831 103.919 26.7831 103.702 26.7831C102.886 26.7831 102.179 27.1812 101.69 27.8635V33.7206H100.439V25.7595H101.69V26.7262C102.233 26.0439 102.995 25.6458 103.756 25.6458C103.974 25.589 104.137 25.6458 104.3 25.6458Z" fill="#282C34"/>
<path d="M112.675 30.4224C112.675 32.4696 111.369 33.8343 109.412 33.8343C107.454 33.8343 106.149 32.4696 106.149 30.4224V25.7027H107.454V30.4224C107.454 31.7303 108.27 32.6402 109.466 32.6402C110.662 32.6402 111.478 31.7303 111.478 30.4224V25.7027H112.729V30.4224H112.675Z" fill="#282C34"/>
<path d="M118.656 32.6402C119.472 32.6402 120.179 32.3559 120.614 31.8441L121.43 32.697C120.723 33.4363 119.744 33.8912 118.602 33.8912C116.264 33.8912 114.687 32.2421 114.687 29.7401C114.687 27.2949 116.264 25.6459 118.602 25.6459C119.798 25.6459 120.723 26.1008 121.43 26.84L120.614 27.6361C120.179 27.1243 119.472 26.7832 118.656 26.7832C117.079 26.7832 115.992 27.9773 115.992 29.7401C115.992 31.5029 117.079 32.6402 118.656 32.6402Z" fill="#282C34"/>
<path d="M122.463 25.7027H123.441V23.9399H124.747V25.7027H126.759V26.7832H124.747V31.2186C124.747 32.0715 125.29 32.697 126.106 32.697C126.324 32.697 126.595 32.6402 126.759 32.5265V33.6637C126.487 33.7775 126.16 33.8343 125.834 33.8343C124.366 33.8343 123.387 32.8108 123.387 31.2186V26.7832H122.408V25.7027H122.463Z" fill="#282C34"/>
<path d="M129.26 22.4045C129.75 22.4045 130.13 22.8026 130.13 23.3144C130.13 23.8262 129.75 24.2242 129.26 24.2242C128.771 24.2242 128.39 23.8262 128.39 23.3144C128.39 22.8026 128.771 22.4045 129.26 22.4045ZM128.608 25.7027H129.858V33.6637H128.608V25.7027Z" fill="#282C34"/>
<path d="M135.786 25.589C138.124 25.589 139.701 27.2381 139.701 29.6832C139.701 32.1284 138.124 33.8343 135.786 33.8343C133.448 33.8343 131.871 32.1853 131.871 29.6832C131.871 27.2381 133.448 25.589 135.786 25.589ZM135.786 32.6402C137.309 32.6402 138.396 31.446 138.396 29.6832C138.396 27.9204 137.309 26.7263 135.786 26.7263C134.263 26.7263 133.176 27.9204 133.176 29.6832C133.176 31.446 134.209 32.6402 135.786 32.6402Z" fill="#282C34"/>
<path d="M142.909 25.7027V26.3851C143.508 25.8733 144.269 25.589 145.139 25.589C146.879 25.589 148.021 26.8969 148.021 28.8871V33.7206H146.77V28.8871C146.77 27.6361 146.009 26.7831 144.867 26.7831C144.051 26.7831 143.399 27.0675 142.909 27.5792V33.7206H141.659V25.7596H142.909V25.7027Z" fill="#282C34"/>
<path d="M89.998 48.3915C90.8137 48.3915 91.5206 48.1072 91.9557 47.5954L92.7714 48.4484C92.0644 49.1876 91.0856 49.6425 89.9436 49.6425C87.6053 49.6425 86.0283 47.9935 86.0283 45.4914C86.0283 43.0463 87.6053 41.3972 89.9436 41.3972C91.14 41.3972 92.0644 41.8521 92.7714 42.5914L91.9557 43.3875C91.5206 42.8757 90.8137 42.5345 89.998 42.5345C88.421 42.5345 87.3334 43.7287 87.3334 45.4914C87.3334 47.2542 88.3666 48.3915 89.998 48.3915Z" fill="#282C34"/>
<path d="M97.8831 41.3404C100.221 41.3404 101.798 42.9895 101.798 45.4346C101.798 47.8798 100.221 49.5857 97.8831 49.5857C95.5448 49.5857 93.9678 47.9366 93.9678 45.4346C94.0222 43.0463 95.5992 41.3404 97.8831 41.3404ZM97.8831 48.3916C99.4057 48.3916 100.493 47.1974 100.493 45.4346C100.493 43.6718 99.4057 42.4777 97.8831 42.4777C96.3605 42.4777 95.2729 43.6718 95.2729 45.4346C95.2729 47.1974 96.3605 48.3916 97.8831 48.3916Z" fill="#282C34"/>
<path d="M113.001 44.1267C113.001 43.2169 112.457 42.5914 111.641 42.5914C110.825 42.5914 110.118 42.8757 109.629 43.3875C109.683 43.615 109.738 43.8993 109.738 44.1836V49.5289H108.487V44.1836C108.487 43.2738 107.943 42.6483 107.073 42.6483C106.257 42.6483 105.605 42.9326 105.115 43.4444V49.5857H103.865V41.6247H105.115V42.3071C105.714 41.7953 106.475 41.511 107.345 41.511C108.215 41.511 108.868 41.909 109.303 42.5914C109.955 41.909 110.88 41.511 111.913 41.511C113.381 41.511 114.251 42.6483 114.251 44.2405V49.5857H113.001V44.1267Z" fill="#282C34"/>
<path d="M118.004 41.5109V42.1933C118.602 41.6815 119.363 41.3972 120.288 41.3972C122.463 41.3972 123.931 43.0463 123.931 45.4915C123.931 47.9366 122.354 49.6426 120.07 49.6426C119.309 49.6426 118.602 49.472 118.004 49.0739V53.9643H116.699V41.5109H118.004ZM119.907 42.5345C119.091 42.5345 118.439 42.8188 117.949 43.3306V47.6523C118.385 48.1072 119.091 48.3915 119.907 48.3915C121.484 48.3915 122.572 47.1974 122.572 45.4346C122.572 43.6718 121.484 42.5345 119.907 42.5345Z" fill="#282C34"/>
<path d="M131.762 49.472C131.653 49.5288 131.436 49.5857 131.218 49.5857C130.511 49.5857 130.022 49.2445 129.804 48.6759C129.206 49.2445 128.445 49.6426 127.629 49.6426C126.106 49.6426 125.399 48.5622 125.399 47.3111C125.399 45.6621 126.705 44.8091 128.553 44.8091C129.26 44.8091 129.695 44.9228 129.695 44.9228V43.8424C129.695 43.16 129.26 42.4208 128.118 42.4208C127.52 42.4208 126.813 42.5914 126.378 43.0463L125.726 42.3639C126.378 41.6816 127.248 41.3404 128.227 41.3404C130.13 41.3404 131.001 42.4777 131.001 43.8424V47.8798C131.001 48.3347 131.272 48.5622 131.816 48.5622V49.472H131.762ZM129.695 47.7661V45.8895C129.695 45.8895 129.315 45.7758 128.662 45.7758C127.466 45.7758 126.705 46.1739 126.705 47.1974C126.705 47.8798 127.031 48.5053 128.01 48.5053C128.608 48.5053 129.26 48.2778 129.695 47.7661Z" fill="#282C34"/>
<path d="M134.862 41.5109V42.1933C135.46 41.6815 136.221 41.3972 137.091 41.3972C138.831 41.3972 139.973 42.7051 139.973 44.6953V49.5288H138.723V44.6953C138.723 43.4443 137.961 42.5914 136.819 42.5914C136.004 42.5914 135.351 42.8757 134.862 43.3875V49.5288H133.611V41.5678H134.862V41.5109Z" fill="#282C34"/>
<path d="M143.78 53.9074H142.366L144.487 49.472L141.169 41.511H142.583L145.085 47.8798L147.586 41.511H149L143.78 53.9074Z" fill="#282C34"/>
<rect x="15" width="54" height="7" fill="#282C34"/>
<rect x="37" y="61" width="54" height="7" transform="rotate(-90 37 61)" fill="#282C34"/>
</svg>
