<svg width="155" height="26" viewBox="0 0 155 26" fill="none" xmlns="http://www.w3.org/2000/svg">
<g clip-path="url(#clip0)">
<path fill-rule="evenodd" clip-rule="evenodd" d="M117.681 16.5298C119.739 14.567 121.731 12.6697 123.718 10.7703C124.915 9.62648 126.106 8.47865 127.302 7.33437C127.383 7.25678 127.464 7.18793 127.63 7.18888C128.907 7.19622 130.184 7.1929 131.533 7.1929C131.043 7.66628 130.59 8.10487 130.136 8.543C128.29 10.3237 126.445 12.105 124.592 13.8824C124.478 13.9916 124.494 14.0702 124.568 14.1781C125.313 15.2582 126.052 16.3405 126.795 17.4214C127.676 18.702 128.559 19.9813 129.44 21.2621C130.378 22.6259 131.307 23.9933 132.256 25.3524C132.429 25.5996 132.352 25.6294 132.029 25.6256C130.946 25.6131 129.862 25.6169 128.778 25.623C128.581 25.6242 128.477 25.579 128.382 25.439C126.381 22.4755 124.37 19.515 122.362 16.5539C122.294 16.4541 122.231 16.3519 122.154 16.2308C121.654 16.5688 121.267 16.9776 120.834 17.3521C119.81 18.2366 118.805 19.1335 117.781 20.0182C117.662 20.1218 117.683 20.2245 117.683 20.3326C117.68 21.9978 117.675 23.6633 117.688 25.3285C117.689 25.5575 117.632 25.6341 117.313 25.6273C116.427 25.6081 115.54 25.6131 114.653 25.6247C114.406 25.628 114.351 25.571 114.351 25.3874C114.357 17.0041 114.357 8.62083 114.351 0.237316C114.351 0.0516093 114.41 -0.000672402 114.655 0.00240479C115.541 0.0142329 116.428 0.0194361 117.314 0.000273643C117.636 -0.00658518 117.688 0.0736125 117.688 0.30048C117.679 5.56129 117.681 10.8223 117.681 16.0829V16.5298Z" fill="white"/>
<path fill-rule="evenodd" clip-rule="evenodd" d="M92.2638 9.70419C92.7164 9.37867 93.0947 9.10141 93.4799 8.83007C94.5156 8.10096 95.6387 7.4724 97.0007 7.15516C99.0957 6.66664 101.158 6.71396 103.143 7.47216C104.683 8.06027 105.597 9.04534 106.08 10.2906C106.277 10.7995 106.376 11.3176 106.376 11.8482C106.376 16.3326 106.373 20.817 106.383 25.3014C106.384 25.5533 106.316 25.6378 105.969 25.629C105.12 25.6075 104.27 25.607 103.421 25.6267C103.102 25.634 103.044 25.5611 103.044 25.3307C103.054 20.8274 103.071 16.3238 103.037 11.8205C103.029 10.7226 102.462 9.78817 101.061 9.31858C100.167 9.01908 99.2016 8.97011 98.2402 9.09053C96.1811 9.34791 94.547 10.201 93.0325 11.2554C92.4171 11.6838 92.241 12.1354 92.2456 12.7536C92.2795 16.9444 92.2607 21.1359 92.2699 25.3272C92.2703 25.5531 92.2201 25.6347 91.8977 25.6276C91.0363 25.6077 90.1737 25.6089 89.3122 25.6267C89.0022 25.6331 88.9308 25.5689 88.9314 25.3328C88.94 17.2722 88.9385 9.21141 88.9385 1.15081C88.9385 0.84777 88.9508 0.544725 88.9339 0.242626C88.9237 0.0654388 88.9733 -0.00174815 89.2307 0.00203858C90.1293 0.0155223 91.0286 0.0164683 91.927 0.00156555C92.2062 -0.0029307 92.2706 0.0545542 92.2699 0.266756C92.2601 3.2849 92.2635 6.30304 92.2638 9.32118V9.70419Z" fill="white"/>
<path fill-rule="evenodd" clip-rule="evenodd" d="M75.2082 25.993C72.6014 25.9956 70.4623 25.6088 68.5018 24.694C67.3458 24.1547 66.3975 23.4442 65.5586 22.638C65.433 22.5174 65.4699 22.4473 65.6238 22.3605C66.3757 21.9368 67.1244 21.5108 67.8614 21.0724C68.04 20.9662 68.0905 21.0239 68.1958 21.1289C68.9258 21.8543 69.7496 22.506 70.7887 22.9718C72.3899 23.6903 74.1192 23.9015 75.9507 23.7447C76.9722 23.6571 77.9214 23.4388 78.7179 22.9332C79.9897 22.1268 80.4727 20.9958 79.8447 19.8342C79.5168 19.2281 78.8884 18.8288 78.1776 18.4834C76.995 17.909 75.6459 17.6656 74.3554 17.3084C72.832 16.8868 71.2548 16.5681 69.7693 16.0818C67.7648 15.426 66.3122 14.2552 66.1799 12.3222C66.109 11.2896 66.3129 10.3 66.9911 9.39372C67.3836 8.86925 67.8818 8.41267 68.5326 8.05309C69.9931 7.24616 71.6362 6.90195 73.4096 6.8518C75.4914 6.79265 77.4131 7.19577 79.2286 7.96958C80.2514 8.40534 81.1233 8.96719 81.8929 9.63337C82.0222 9.74527 82.1325 9.8697 82.2572 9.98515C82.3686 10.0878 82.255 10.1434 82.1786 10.1945C81.5346 10.6255 80.8785 11.0464 80.2437 11.4855C80.0676 11.6075 79.9992 11.6035 79.8293 11.4717C79.1911 10.9761 78.5963 10.4472 77.8312 10.0502C76.3408 9.2771 74.7134 8.91964 72.9256 9.07294C71.6039 9.18649 70.3614 9.48362 69.8032 10.5335C69.2278 11.6153 69.3543 12.5803 70.5959 13.3525C71.4915 13.9098 72.5512 14.1852 73.6165 14.465C75.3344 14.9159 77.036 15.4049 78.7656 15.8282C80.1436 16.1655 81.2877 16.7475 82.1663 17.6102C83.1654 18.5917 83.5145 19.7287 83.4098 20.9728C83.3365 21.8403 83.0422 22.6361 82.436 23.3645C81.7723 24.162 80.8496 24.7383 79.7754 25.1828C78.4565 25.7285 76.6872 26.024 75.2082 25.993Z" fill="white"/>
<path fill-rule="evenodd" clip-rule="evenodd" d="M55.5312 10.8637C55.7609 10.5838 55.9727 10.3158 56.1974 10.0542C56.8424 9.30448 57.5548 8.60187 58.4944 8.04924C59.5649 7.41879 60.7875 7.09729 62.1076 6.96907C62.4595 6.93501 62.8123 6.89621 63.1713 6.90544C63.3357 6.90946 63.377 6.94565 63.3757 7.06749C63.3693 7.81481 63.3689 8.56236 63.376 9.31015C63.3773 9.43435 63.3271 9.45896 63.1701 9.46889C62.6602 9.5013 62.151 9.54199 61.651 9.63804C60.212 9.91459 59.0347 10.4961 58.1096 11.3886C56.8624 12.5916 56.1041 13.9798 55.4915 15.4245C55.4548 15.5106 55.4671 15.6107 55.4671 15.7041C55.4659 18.912 55.4631 22.1196 55.473 25.3273C55.4736 25.5522 55.4268 25.6343 55.1011 25.627C54.2153 25.6069 53.3281 25.6154 52.4417 25.626C52.2019 25.6289 52.1357 25.578 52.136 25.3897C52.1428 19.4 52.1428 13.4106 52.1363 7.42092C52.1363 7.23734 52.1936 7.1853 52.4368 7.18837C53.3478 7.2002 54.2594 7.19996 55.1704 7.18837C55.4105 7.1853 55.4739 7.23332 55.4724 7.41879C55.4601 8.46916 55.465 9.51952 55.469 10.5699C55.4693 10.6574 55.4256 10.7535 55.5312 10.8637Z" fill="white"/>
<path fill-rule="evenodd" clip-rule="evenodd" d="M18.3026 20.5683C17.7521 21.5785 16.7355 22.2141 15.4668 22.6258C14.1534 23.0518 12.764 23.186 11.3438 23.2082C8.91993 23.2461 6.49638 23.2092 4.07282 23.2326C3.78527 23.2352 3.70492 23.1786 3.70707 22.9534C3.72062 21.4119 3.71415 19.8707 3.71415 18.329H3.71231C3.71231 16.7783 3.71631 15.2273 3.70738 13.6762C3.70615 13.4975 3.7514 13.4332 4.00417 13.4344C6.12077 13.4419 8.23892 13.4067 10.3543 13.449C11.9331 13.481 13.5004 13.6314 14.961 14.164C16.327 14.6619 17.4427 15.3693 18.1551 16.4083C18.6699 17.1591 18.7909 17.9786 18.7721 18.8142C18.7582 19.4207 18.6092 20.0058 18.3026 20.5683ZM3.71415 6.71725C3.71385 5.37354 3.71939 4.02983 3.7083 2.6866C3.70646 2.48599 3.74987 2.41667 4.04234 2.41786C6.61552 2.42874 9.18963 2.40177 11.7625 2.43418C12.8594 2.44814 13.957 2.55128 14.9991 2.87136C16.4745 3.32439 17.3836 4.13984 17.7361 5.32552C17.9855 6.16392 18.0375 7.00137 17.7216 7.83953C17.3183 8.91024 16.3719 9.63769 15.1654 10.1778C13.7412 10.8149 12.1646 11.0155 10.5384 11.0197C8.38362 11.0256 6.22884 11.0174 4.07405 11.0261C3.79112 11.0271 3.70399 10.9771 3.70646 10.7477C3.72246 9.4042 3.71415 8.06049 3.71415 6.71725ZM22.2747 17.29C21.8508 15.6636 20.7391 14.3707 19.0255 13.3845C18.1884 12.9026 17.2645 12.5361 16.2322 12.3559C16.1592 12.3431 16.073 12.3301 16.0656 12.2667C16.057 12.1881 16.1635 12.1997 16.226 12.1799C16.7666 12.0069 17.31 11.8427 17.8251 11.623C18.9285 11.1524 19.8536 10.5371 20.5226 9.71032C21.3933 8.6344 21.6728 7.44659 21.626 6.19799C21.5303 3.63405 19.8727 1.85222 16.9427 0.735381C15.371 0.135917 13.6522 0.017867 11.9294 0.0112447C8.08745 -0.00366058 4.24584 0.0102987 0.404237 0.000835676C0.0757397 0.000126142 -0.000612057 0.064709 3.68331e-06 0.313816C0.011087 4.48641 0.00770091 8.65901 0.00770091 12.8314H0.00646893V25.2067C0.00646893 25.6453 0.00646973 25.6453 0.592963 25.6453C3.96691 25.6453 7.34056 25.6539 10.7142 25.6408C11.9515 25.6363 13.1907 25.5947 14.4117 25.4163C16.1392 25.1644 17.818 24.8159 19.2841 24.0194C20.523 23.3464 21.4287 22.4808 21.9259 21.376C22.5269 20.0398 22.6362 18.6765 22.2747 17.29Z" fill="white"/>
<path fill-rule="evenodd" clip-rule="evenodd" d="M150.192 18.2359C150.192 19.0114 150.192 19.7873 150.192 20.5628C150.192 20.6749 150.192 20.7738 150.074 20.8727C148.65 22.0699 146.958 22.9639 144.969 23.5054C143.979 23.7751 142.94 23.9325 141.904 23.7115C140.613 23.4364 139.539 22.8835 139.061 21.8807C138.64 20.9962 138.8 20.1131 139.484 19.3151C140.422 18.2212 141.849 17.6284 143.358 17.1299C145.468 16.4335 147.682 16.0202 149.938 15.7216C150.186 15.6888 150.196 15.7621 150.195 15.9088C150.189 16.6842 150.192 17.4602 150.192 18.2359ZM154.02 25.3753C153.638 24.0713 153.517 22.748 153.517 21.4154C153.517 18.2647 153.521 15.1141 153.514 11.9633C153.513 11.1182 153.213 10.3215 152.667 9.59546C151.547 8.10744 149.756 7.34948 147.638 7.02017C146.187 6.79449 144.715 6.7855 143.242 6.95937C140.175 7.32156 137.885 8.54462 136.328 10.5969C136.244 10.7071 136.19 10.7636 136.398 10.8422C137.222 11.1526 138.037 11.4769 138.844 11.8112C139.078 11.9077 139.158 11.8779 139.266 11.6933C139.81 10.7665 140.633 10.017 141.843 9.58339C143.623 8.94513 145.496 8.877 147.375 9.25101C148.776 9.53016 149.703 10.2205 150.053 11.3428C150.258 11.9997 150.154 12.6585 150.195 13.3164C150.204 13.4513 150.09 13.4338 149.986 13.4494C149.374 13.5393 148.76 13.6261 148.149 13.7243C145.179 14.2024 142.245 14.7746 139.549 15.8891C138.363 16.3793 137.324 17.0235 136.595 17.9137C135.641 19.0788 135.407 20.3562 135.59 21.7089C135.777 23.0933 136.602 24.1903 138.028 25.0174C139.06 25.6156 140.255 25.9016 141.544 25.9669C143.041 26.0426 144.495 25.9192 145.907 25.5028C147.495 25.0339 148.822 24.2842 149.988 23.3486C150.082 23.2736 150.147 23.1537 150.324 23.1534C150.435 23.9171 150.543 24.675 150.659 25.4321C150.672 25.5194 150.609 25.649 150.842 25.6476C151.911 25.6424 152.981 25.6452 154.063 25.6452C154.047 25.5406 154.044 25.4562 154.02 25.3753Z" fill="white"/>
<path fill-rule="evenodd" clip-rule="evenodd" d="M31.1269 14.4588C31.2984 13.1636 31.7051 11.9303 32.702 10.8478C33.6185 9.8528 34.8592 9.2855 36.4346 9.11659C37.397 9.01345 38.3379 9.03356 39.2707 9.23464C40.17 9.42839 40.8852 9.83482 41.5021 10.3659C42.6862 11.3851 43.1021 12.6185 43.2327 13.936C43.2505 14.1143 43.2484 14.2946 43.2782 14.4716C43.3124 14.6752 43.2071 14.7166 42.955 14.7155C41.036 14.7069 39.1168 14.7107 37.1975 14.7107C35.2782 14.7107 33.3593 14.7067 31.44 14.7155C31.1719 14.7169 31.1014 14.653 31.1269 14.4588ZM47.1466 21.6152C46.6553 21.4248 46.1648 21.2334 45.6719 21.0453C45.3779 20.933 45.0368 20.7021 44.7967 20.752C44.5556 20.8019 44.4167 21.1357 44.2293 21.3432C42.4507 23.3076 39.9976 24.0079 37.1627 23.7484C35.2801 23.5759 33.8648 22.7463 32.7722 21.5845C31.5296 20.2625 31.0533 18.7582 31.0016 17.1514C30.9942 16.9276 31.086 16.8964 31.3464 16.8973C33.8214 16.9049 36.2967 16.9018 38.7716 16.9018H42.5027C43.7585 16.9018 45.0146 16.894 46.2704 16.9082C46.5546 16.9111 46.6128 16.85 46.6066 16.6433C46.5879 16.0003 46.6229 15.3559 46.5949 14.7133C46.5272 13.1697 46.2286 11.6604 45.2622 10.2781C44.3342 8.95052 42.9999 7.94322 41.1669 7.36906C39.6999 6.90941 38.1642 6.78285 36.5891 6.8744C34.4966 6.99623 32.6653 7.57701 31.1617 8.70851C29.7858 9.74398 28.8712 10.9992 28.3496 12.4198C27.9457 13.5196 27.7425 14.6424 27.7062 15.7881C27.6674 17.0069 27.7209 18.2141 28.0581 19.4102C28.5153 21.0314 29.3631 22.4964 30.88 23.7058C31.9499 24.5581 33.1878 25.2099 34.6548 25.5893C36.5365 26.0757 38.4588 26.0866 40.3947 25.8474C41.8673 25.665 43.2419 25.2697 44.4023 24.5392C45.5904 23.7916 46.5097 22.861 47.2735 21.8383C47.3837 21.6914 47.2682 21.6623 47.1466 21.6152Z" fill="white"/>
</g>
<defs>
<clipPath id="clip0">
<rect width="154.062" height="26" fill="white"/>
</clipPath>
</defs>
</svg>
