<svg width="139" height="33" viewBox="0 0 139 33" fill="none" xmlns="http://www.w3.org/2000/svg">
<path d="M18.1421 0.530017C8.71783 0.992856 2.52475 6.54692 0.729657 11.4957C-1.3347 17.2278 1.26819 24.7045 4.94813 27.5527C8.44857 30.2229 14.148 32.3591 18.905 32.6795C23.0786 32.9999 31.8746 33 32.6375 33V28.3004C32.5477 28.3004 23.3927 28.3004 19.3986 28.0155C16.0328 27.8019 11.59 26.1286 9.07685 24.206C7.68565 23.1023 6.33933 20.1473 6.02518 17.121H32.5926V12.4214H6.56372C8.04467 9.00353 12.4427 5.51444 18.5011 5.22961C25.9059 4.87358 32.5926 4.94479 32.6375 4.94479L32.7272 0.245192C32.458 0.245192 25.7712 0.173988 18.1421 0.530017Z" fill="white"/>
<path d="M87.3428 0.530017C77.9185 0.992856 71.7254 6.54692 69.9303 11.4957C67.866 17.2278 70.4689 24.7045 74.1488 27.5527C77.6493 30.2229 83.3487 32.3591 88.1057 32.6795C92.2793 32.9999 101.075 33 101.838 33V28.3004C101.748 28.3004 92.5934 28.3004 88.5993 28.0155C85.2335 27.8019 80.7907 26.1286 78.2775 24.206C76.8863 23.1023 75.54 20.1473 75.2259 17.121H101.793V12.4214H75.7644C77.2454 9.00353 81.6433 5.51444 87.7018 5.22961C95.1066 4.87358 101.793 4.94479 101.838 4.94479L101.928 0.245192C101.659 0.245192 94.9719 0.173988 87.3428 0.530017Z" fill="white"/>
<path d="M49.4217 17.1211C49.9602 17.1211 50.5885 17.1211 51.3065 17.1211C54.9865 17.1567 60.0127 17.1567 63.199 15.6258C67.7765 13.4184 67.4624 10.1073 67.1931 6.83182C66.7443 1.8474 60.3717 0.209662 57.0957 0.0316471H56.9162C56.7816 0.0316471 45.3378 -0.0395589 38.6062 0.0316471L38.696 4.73124C44.9788 4.66004 55.4801 4.73124 56.7367 4.73124C57.2752 4.80245 61.0449 5.19408 61.2244 7.22345C61.4937 10.4277 61.3591 10.9618 60.0576 11.6026C58.3074 12.4571 53.7299 12.4215 51.2616 12.4215C50.4987 12.4215 49.7807 12.4215 49.1973 12.4215C46.4149 12.4927 38.5613 12.4215 38.4716 12.4215L38.3818 17.1211H38.4267L60.5961 32.9288H69.6614L48.3446 17.1567C48.7485 17.1211 49.1075 17.1211 49.4217 17.1211Z" fill="white"/>
<path d="M134.779 16.8719C131.278 14.0237 119.431 12.2079 116.648 11.8163C114.27 11.211 112.654 10.3922 112.071 9.4309C111.712 8.86125 111.712 8.1848 112.116 7.40153C113.013 5.65698 116.693 4.55329 118.802 4.55329H134.016V0.42334H118.802C115.167 0.42334 109.198 2.09668 107.314 5.83499C106.326 7.68635 106.371 9.53771 107.359 11.1754C108.615 13.276 111.263 14.8069 115.257 15.7682L115.571 15.8394C121.764 16.6939 129.438 18.4385 131.009 19.7202C132.31 20.7527 133.028 22.2124 132.894 23.5297C132.804 24.491 132.265 25.2742 131.368 25.8439C128.361 27.6952 126.162 27.8377 121.45 27.9801C116.828 28.1225 107.852 28.0513 107.762 28.0513L107.718 32.1812C107.897 32.2168 110.096 32.2168 112.878 32.2168C115.751 32.2168 119.206 32.1812 121.719 32.11C126.431 31.9676 130.156 31.8608 134.599 29.1194C136.663 27.8376 137.92 25.9863 138.1 23.8501C138.324 21.3579 137.067 18.7589 134.779 16.8719Z" fill="white"/>
</svg>
