<svg width="242" height="41" viewBox="0 0 242 41" fill="none" xmlns="http://www.w3.org/2000/svg">
<path d="M127.124 15.0888C126.868 15.7076 127.586 16.3676 128.406 16.2439C129.791 16.0376 129.74 14.3875 128.099 14.4287C127.586 14.5937 127.278 14.6762 127.124 15.0888ZM233.53 15.5426C233.324 16.1614 233.991 16.8214 234.76 16.7389C236.299 16.5739 236.247 14.8 234.555 14.8412C234.042 15.0063 233.683 15.0888 233.53 15.5426ZM220.146 19.9567C220.146 19.2554 220.043 17.6878 220.351 17.3165C220.812 16.8214 222.863 16.9865 223.838 16.8627C224.043 16.8627 224.299 16.8214 224.504 16.8214C225.838 16.8214 225.632 17.4815 225.632 18.4716C225.632 18.8841 225.632 19.2967 225.632 19.7505C225.632 20.0392 225.632 20.3693 225.581 20.6581C225.427 21.4831 225.581 22.3907 225.325 23.1333C225.12 23.8346 224.709 24.3709 224.197 24.866C223.786 25.2372 223.12 25.7735 222.197 25.6085C219.787 25.1135 220.146 22.4732 220.146 19.9567ZM203.531 21.8132C203.069 23.7521 203.275 26.0211 204.71 26.9699C205.018 27.1762 205.326 27.3412 205.685 27.4237C207.326 27.8775 208.454 27.1349 209.377 26.5574C209.838 26.2686 210.454 25.8148 211.325 26.0211C212.556 26.2686 212.966 27.2587 214.3 27.465C214.966 27.5887 215.582 27.3412 215.992 27.1349C216.71 26.7636 217.274 26.3511 218.299 26.1861C218.864 26.1036 219.325 26.3098 219.633 26.4749C220.402 26.8049 221.017 27.2999 222.043 27.4237C222.607 27.5062 223.12 27.2999 223.427 27.1762C224.197 26.8049 224.761 26.3099 225.735 26.1861C226.248 26.1036 226.658 26.3098 226.966 26.4336C227.684 26.7636 228.145 27.2587 229.068 27.4237C230.709 27.7125 232.299 26.5574 233.324 26.1861C233.786 26.0211 234.401 26.0211 234.812 26.2273C235.222 26.4336 235.581 26.7224 235.94 26.9287C236.658 27.3412 237.94 27.63 239.17 27.3825C239.529 27.2999 239.888 27.1762 240.145 27.0524C240.401 26.9287 241.324 26.4749 241.17 26.1448C241.17 26.1036 241.119 26.1036 241.119 26.0623C240.709 25.9798 239.888 26.2686 239.375 26.3098C237.786 26.5161 236.658 25.5673 236.196 24.7835C235.888 24.2059 235.735 23.6283 235.529 22.927C235.478 22.597 235.427 22.2257 235.376 21.8957C235.222 21.1531 235.427 20.3693 234.555 20.2043C233.222 19.998 233.53 21.7719 233.376 22.597C233.068 24.1646 232.658 25.031 231.068 25.526C230.248 25.8148 229.273 25.8148 228.607 25.4023C227.427 24.6597 227.479 23.2158 227.479 21.5656C227.479 20.8231 227.479 20.0392 227.427 19.2967C227.427 18.6366 227.273 17.3577 227.581 16.9865C227.991 16.4502 229.427 16.7802 230.196 16.4914C230.401 16.4089 230.709 16.2439 230.607 15.9551C230.35 15.0888 228.453 15.7076 227.684 15.2538C226.761 14.7175 227.94 12.4898 226.709 12.0772C226.299 11.9535 225.94 12.1185 225.786 12.3248C225.376 12.7373 225.53 13.6036 225.53 14.3049C225.53 14.5937 225.53 14.8412 225.427 15.0475C225.325 15.2125 225.171 15.3363 224.966 15.4188C224.658 15.5426 224.248 15.4601 223.838 15.5013C223.222 15.5013 222.556 15.5426 221.94 15.5426C221.53 15.5426 221.069 15.5838 220.71 15.5013C219.12 15.1713 220.966 12.036 219.017 11.9947C218.658 12.1185 218.453 12.201 218.299 12.4898C217.992 13.2323 218.453 14.4287 218.094 15.13C217.735 15.8313 216.146 15.3363 215.53 16.0376C215.479 16.1201 215.325 16.2851 215.377 16.4914C215.633 17.5228 217.479 16.8214 217.941 17.4815C218.248 17.894 218.094 19.1317 218.094 19.7505C218.094 21.7719 218.043 23.1745 217.12 24.4534C216.915 24.7422 216.71 24.9897 216.402 25.196C216.146 25.361 215.889 25.526 215.582 25.6085C215.223 25.7323 214.607 25.7735 214.197 25.6498C212.659 25.2372 212.761 23.5871 212.454 22.1845C212.3 21.4006 212.659 20.2868 211.684 20.163C210.608 20.0392 210.505 21.6482 210.3 22.3495C209.89 23.8759 209.326 25.4023 207.428 25.7323C206.249 25.9386 205.582 25.196 205.377 24.5359C205.274 24.2059 205.326 23.8346 205.274 23.4633C205.172 22.9683 205.223 22.267 205.326 21.8132C205.48 21.1118 205.121 20.0392 204.249 20.163C203.736 20.2868 203.685 21.1944 203.531 21.8132ZM175.891 11.0046C175.994 11.4172 176.763 11.2109 177.173 11.1696C178.25 10.9634 179.583 10.4683 179.84 11.6234C179.942 13.6449 180.045 15.6663 180.096 17.6878C180.096 18.3066 180.147 18.8841 180.147 19.5029C180.147 20.2868 180.199 21.1119 180.199 21.8957V22.597C180.353 23.4633 180.147 24.866 180.968 25.1547C181.429 25.3198 181.737 24.9897 181.84 24.7422C182.147 24.2059 182.147 23.4633 182.25 22.762C182.25 22.5557 182.25 22.3495 182.301 22.1432C182.301 21.4419 182.352 20.7818 182.352 20.0805C182.404 18.6779 182.404 17.234 182.455 15.8313C182.455 15.13 182.455 14.3875 182.506 13.6861V13.1498C182.506 12.696 182.506 12.2835 182.506 11.8297C182.506 11.5409 182.455 11.2522 182.558 10.9634C182.609 10.7159 182.763 10.5508 183.019 10.4271C183.583 10.1796 185.993 10.0558 186.916 10.1796C187.634 10.2621 188.352 10.3033 189.019 10.4271C191.429 10.9221 193.48 11.8297 194.865 13.1911C195.583 13.9337 196.249 14.8 196.659 15.7901C196.865 16.3676 196.967 16.9865 197.121 17.6465C197.429 19.0904 197.018 20.9056 196.506 21.9369C194.967 25.1547 191.993 26.6399 187.48 27.4237C186.762 27.5475 185.993 27.5475 185.275 27.63C184.968 27.63 184.609 27.63 184.301 27.6712H183.224C182.814 27.6712 182.352 27.63 181.942 27.63C181.429 27.5887 180.917 27.5475 180.404 27.5475C179.737 27.465 179.019 27.3825 178.353 27.2999C177.994 27.2587 177.481 27.1349 177.122 27.2174C177.122 27.2587 177.071 27.2587 177.071 27.2999C177.224 27.5887 177.737 27.63 178.096 27.7537C179.071 28.0425 180.096 28.2075 181.173 28.4138C186.609 29.3626 192.557 28.0838 195.788 26.2686C198.044 24.9897 199.736 23.2983 200.557 20.8231C200.762 20.2043 200.967 19.0492 200.813 18.2653C200.813 18.0591 200.813 17.894 200.762 17.6878C200.659 17.1515 200.608 16.6152 200.454 16.1201C200.146 15.1713 199.788 14.3049 199.275 13.5624C196.967 10.4271 192.916 8.6119 186.66 8.65315C186.352 8.65315 186.045 8.69441 185.737 8.69441C185.173 8.73566 184.609 8.81817 184.045 8.85942C181.993 9.18946 179.942 9.43698 178.199 9.97328C177.583 10.1796 177.019 10.3033 176.455 10.5508C176.148 10.6333 175.84 10.7571 175.891 11.0046ZM110.715 24.6184C111.945 24.6184 112.663 26.2273 111.279 26.5574C110.356 26.7636 108.92 26.3511 109.125 25.5673C109.381 24.9485 110.099 24.8247 110.715 24.6184ZM120.253 24.4534C120.458 24.4534 120.663 24.4534 120.817 24.4947C121.278 24.6597 121.945 25.3198 121.637 25.8973C121.483 26.1861 121.073 26.3511 120.612 26.3924C119.689 26.5161 118.407 26.0211 118.766 25.2372C119.022 24.7422 119.637 24.6597 120.253 24.4534ZM86.5621 22.0607C85.6903 23.6283 86.921 25.526 88.0492 26.2686C89.485 27.1762 91.7926 27.6712 94.2027 27.0937C95.3822 26.8049 96.3052 26.2686 97.5872 26.1036C97.8949 26.0623 98.2538 26.1448 98.5102 26.1861C99.6896 26.4749 100.767 27.5887 102.356 27.2174C102.869 27.0937 103.33 26.8874 103.741 26.6399C104.818 26.0211 105.689 25.1547 106.202 24.1646C106.561 23.5458 106.818 22.762 107.279 22.1845C107.535 21.8544 108.1 21.6482 108.664 21.8957C108.92 22.0194 109.125 22.1432 109.33 22.267C109.535 22.3907 109.74 22.5557 109.843 22.7208C109.997 22.9683 109.894 23.2571 109.74 23.4221C109.535 23.6283 109.228 23.7521 108.971 23.8759C108.51 24.1234 108.048 24.4534 107.741 24.8247C106.971 25.6498 107.125 26.4749 108.151 26.9699C109.792 27.7537 113.792 27.9188 114.304 26.2273C114.509 25.6085 114.099 24.9897 113.894 24.5772C113.792 24.3709 113.535 24.0821 113.638 23.7521C113.74 23.3808 114.151 23.2158 114.509 23.0095C115.176 22.5557 115.894 22.1019 116.561 21.6482C116.817 21.5244 117.279 21.4006 117.638 21.5244C117.945 21.6069 118.202 21.8132 118.407 21.9369C118.663 22.1019 119.381 22.5145 119.278 22.9683C119.176 23.2571 118.868 23.4221 118.612 23.5871C117.894 23.9996 115.894 25.2785 116.971 26.3098C117.176 26.4749 117.432 26.6399 117.74 26.7636C118.253 27.0112 118.868 27.1349 119.484 27.2587C121.432 27.5887 123.586 27.2174 123.945 25.9798C124.304 24.7835 122.458 23.8759 123.894 23.1333C124.15 23.0095 124.406 22.927 124.663 22.8033C124.97 22.6795 125.381 22.4732 125.945 22.5557C126.868 22.6795 126.97 23.5046 127.278 24.1646C127.74 25.1547 128.611 26.8461 129.842 27.1762C130.509 27.3412 131.073 27.0112 131.38 26.8049C132.355 26.1861 133.073 25.2372 133.791 24.4534C134.047 24.1646 134.56 23.5046 135.226 23.5871C136.303 23.7521 136.406 25.526 136.714 26.3511C136.867 26.6811 137.021 27.0937 137.431 27.2174C138.047 27.3412 138.457 26.5986 138.611 26.3098C139.072 25.4023 139.739 23.4221 140.867 23.1745C141.38 23.0508 141.739 23.3396 141.944 23.5458C142.559 24.2472 142.354 25.6498 142.765 26.5161C142.918 26.8461 143.226 27.3412 143.841 27.2587C144.559 27.1349 144.764 26.3099 144.97 25.7735C145.329 24.8247 145.739 23.7108 146.918 23.4221C147.79 23.2158 148.098 23.8759 148.303 24.2884C148.816 25.3198 149.021 26.8049 150.303 27.2174C150.918 27.4237 151.738 27.2587 152.2 27.0524C153.328 26.5986 153.892 25.7735 155.328 25.5673C155.738 25.526 156.097 25.6498 156.354 25.7735C157.072 26.0623 157.584 26.4749 158.251 26.8049C160.148 27.6712 162.712 27.2999 164.251 26.4749C165.379 25.8561 166.404 24.9485 166.815 23.7521C167.533 21.8544 165.943 20.3693 164.353 19.8742C163.174 19.5029 161.174 19.4617 159.994 19.8742C159.738 19.9567 158.969 20.2455 159.174 20.5343C159.277 20.6993 159.636 20.6581 159.841 20.6168C160.405 20.493 161.225 20.3693 161.943 20.4518C163.687 20.6993 165.174 21.6894 164.507 23.4221C164.405 23.6696 164.251 23.9584 164.097 24.1646C163.379 25.031 161.174 26.0211 159.277 25.5673C158.097 25.2785 157.174 24.6597 156.815 23.7521C156.559 23.0508 156.559 21.8957 156.713 21.1119C156.764 20.7406 156.661 20.2868 156.2 20.3693C155.584 20.493 155.277 21.8544 155.02 22.3907C154.405 23.6696 153.482 24.9897 151.636 25.2372C150.764 25.361 150.354 24.6597 150.149 24.2472C149.636 23.2571 149.482 22.0607 149.175 20.9468C149.021 20.3693 148.969 19.7505 148.2 19.6267C147.636 19.5442 147.175 19.833 146.969 20.0805C146.303 20.7406 145.944 21.6482 145.277 22.3495C145.021 22.597 144.611 23.0095 143.944 22.927C142.765 22.762 142.559 21.4419 142.2 20.6581C142.047 20.328 141.79 19.6267 141.124 19.7092C139.995 19.8742 139.636 21.7307 139.124 22.5145C138.919 22.8445 138.457 23.4221 137.739 23.1745C136.406 22.7208 137.175 20.0805 135.688 19.7917C134.816 19.6267 134.252 20.5755 133.944 20.9881C133.278 21.9369 132.816 23.0508 132.047 23.9584C131.739 24.3297 131.329 24.7835 130.663 24.866C129.893 24.9897 129.534 24.3709 129.329 23.9584C128.919 23.1333 128.765 22.1432 128.509 21.1944C128.355 20.5755 128.406 19.998 127.893 19.7505C127.124 19.3379 126.509 20.0805 126.099 20.3693C125.176 20.9468 124.201 21.4006 123.124 21.8957C122.817 22.0194 122.253 22.3907 121.74 22.3082C121.176 22.2257 120.817 21.8544 120.458 21.6069C119.74 21.1531 119.022 20.6168 118.355 20.0805C117.996 19.7917 117.586 19.2554 116.868 19.2142C116.714 19.2554 116.612 19.2554 116.458 19.3379C115.997 19.5855 115.791 20.1218 115.484 20.493C115.022 21.0706 113.586 22.3495 112.612 22.4732C111.997 22.5557 111.535 22.0607 111.228 21.8132C110.305 21.0706 109.535 20.3693 108.305 19.8742C107.843 19.7092 106.971 19.3792 106.356 19.668C105.894 19.9155 105.894 21.0293 105.638 21.5244C105.074 22.8858 104.151 24.3297 102.869 25.1135C102.407 25.4023 101.741 25.8973 100.818 25.691C99.2281 25.361 98.8692 23.7521 98.5102 22.4732C98.3564 21.8957 98.2538 20.6581 97.5872 20.5343C97.0231 20.4518 96.9205 20.8643 96.8693 21.1944C96.7667 21.5656 96.9205 21.9782 96.818 22.3907C96.818 22.597 96.818 22.8445 96.7667 23.0508C96.6641 23.5046 96.6641 23.9171 96.459 24.2472C95.8949 25.2785 93.9463 26.3511 91.8439 26.1036C91.3823 26.0623 90.9721 26.0623 90.5619 25.9386C89.3824 25.5673 88.7158 24.866 88.5107 23.7521C88.4594 23.3808 88.562 23.0095 88.6645 22.8033C89.1773 21.6069 90.5106 21.3181 92.2541 21.0706C92.8694 20.9881 94.6642 21.1944 94.8694 20.8643C95.0232 20.5755 94.3053 20.328 94.1002 20.2455C93.1771 19.8742 91.5875 19.6267 90.2542 19.8742C88.6645 19.998 87.2287 20.8231 86.5621 22.0607ZM58.0506 27.3412C57.948 27.795 57.9993 28.29 58.3582 28.4963C58.7685 28.7438 59.4864 28.7026 59.8454 28.4551C60.4094 28.0838 60.512 26.9287 60.7171 26.2273C61.3837 23.6696 62.0504 19.7917 62.717 17.234C62.9221 16.5739 63.076 14.965 64.0503 15.0063C65.1272 15.0888 65.2297 17.1927 65.4861 18.0178C65.9476 19.9155 66.3579 21.7719 66.8194 23.6696C67.0758 24.6597 67.1271 25.7735 67.7424 26.5161C68.2039 27.0937 69.3834 27.7537 70.5628 27.3412C71.8961 26.8874 72.255 25.4848 72.8191 24.4122C74.0498 21.8132 75.3318 19.1729 76.5625 16.5739C76.9728 15.6663 77.4343 14.7587 77.8445 13.8512C77.9984 13.5624 78.2547 13.0673 78.8188 13.1086C80.2547 13.2736 79.588 15.7901 79.8444 16.9865C79.9983 20.328 80.1521 22.8858 80.3059 26.2273C80.5623 27.5887 79.8444 29.1564 81.8443 29.1564C82.0494 29.1564 82.2033 29.1564 82.3571 29.1151C83.3827 28.8676 83.3827 27.5887 83.1776 26.5574C83.1263 26.0623 83.1263 25.5673 83.075 25.031C83.075 24.6597 83.0238 24.2471 83.0238 23.8759C82.7161 19.9567 82.4084 16.8627 82.152 12.9848C81.9469 11.9122 82.2033 10.0145 81.5879 9.39573C81.229 9.02444 80.5111 8.94193 79.6906 8.94193C79.4855 8.94193 79.2803 8.94193 79.1265 8.98319C78.665 9.02444 78.2547 9.02444 77.9983 9.23071C77.3317 9.64325 76.7676 11.3759 76.4087 12.1185C75.2805 14.6762 74.1524 17.1927 72.9729 19.7505C72.5114 20.7406 72.1012 21.7307 71.6397 22.7208C71.4346 23.1745 71.1782 23.7108 70.5628 23.7934C69.9987 23.8759 69.7423 23.4633 69.5885 23.1745C69.1783 22.3082 69.127 21.1944 68.8706 20.2455C68.3578 17.7703 67.845 15.295 67.3322 12.7786C67.1271 11.9122 67.0758 10.3858 66.3579 9.93203C65.8451 9.602 64.358 9.47823 63.4862 9.6845C62.2555 9.97328 62.1017 11.9122 61.794 12.9848C60.871 16.3676 59.8966 21.0706 58.9736 24.4122C58.5634 25.4435 58.307 26.3924 58.0506 27.3412Z" fill="white"/>
<path d="M184.609 39.3872H185.122L185.019 38.3971L185.993 38.9747L186.25 38.6034L185.122 38.1909L186.25 37.7783L185.993 37.4071L185.019 37.9846L185.122 36.9945H184.609L184.711 37.9846L183.737 37.4071L183.481 37.7783L184.609 38.1909L183.481 38.6034L183.737 38.9747L184.711 38.3971L184.609 39.3872ZM176.763 40.9549C178.199 40.9549 179.173 40.2123 179.173 39.181C179.173 38.1496 178.148 37.5308 176.814 37.5308C176.25 37.5308 175.891 37.6133 175.481 37.7783L175.635 36.0457H178.866V35.4681H174.968L174.763 38.1084L175.276 38.3971C175.686 38.2321 176.148 38.0671 176.712 38.0671C177.686 38.0671 178.404 38.5209 178.404 39.2222C178.404 39.9235 177.737 40.4186 176.763 40.4186C176.096 40.4186 175.43 40.1298 174.814 39.676L174.302 40.1298C174.968 40.5836 175.84 40.9549 176.763 40.9549ZM170.199 40.4186C169.071 40.4186 168.405 39.9648 168.405 39.3872C168.405 38.7684 169.174 38.3559 170.199 38.3559C171.174 38.3559 171.994 38.7684 171.994 39.3872C171.994 39.9235 171.327 40.4186 170.199 40.4186ZM170.199 37.8196C169.328 37.8196 168.661 37.4071 168.661 36.8295C168.661 36.2932 169.328 35.8807 170.199 35.8807C171.071 35.8807 171.738 36.2932 171.738 36.8295C171.738 37.4071 171.071 37.8196 170.199 37.8196ZM170.199 40.9549C171.635 40.9549 172.763 40.3361 172.763 39.3872C172.763 38.7272 172.148 38.3146 171.379 38.0671C171.994 37.8196 172.558 37.4483 172.558 36.8295C172.558 36.0044 171.481 35.3856 170.251 35.3856C169.02 35.3856 167.943 36.0044 167.943 36.8295C167.943 37.4483 168.456 37.8608 169.122 38.0671C168.302 38.3146 167.738 38.7684 167.738 39.4285C167.635 40.2948 168.763 40.9549 170.199 40.9549ZM163.379 38.3559C162.405 38.3559 161.687 37.8608 161.687 37.1595C161.687 36.4995 162.302 35.8807 163.328 35.8807C164.353 35.8807 165.071 36.417 165.071 37.1183C165.071 37.7371 164.405 38.3559 163.379 38.3559ZM163.174 40.9549C164.866 40.9549 165.994 39.7173 165.994 37.9846C165.994 36.912 165.687 36.2932 165.174 35.8807C164.712 35.5094 164.148 35.3031 163.379 35.3031C161.943 35.3031 160.918 36.1282 160.918 37.1595C160.918 38.1496 161.892 38.8509 163.277 38.8509C164.2 38.8509 164.815 38.4384 165.174 37.9846C165.225 39.3872 164.353 40.3773 163.174 40.3773C162.559 40.3773 162.046 40.1711 161.482 39.7998L161.02 40.2948C161.636 40.6661 162.302 40.9549 163.174 40.9549ZM157.995 40.8724H158.764V35.3856H158.2L156.559 35.8394L156.764 36.3345L158.046 36.0044V40.8724H157.995ZM146.611 40.8724H151.585V40.2948H147.38V38.3971H151.072V37.8196H147.38V35.9632H151.533V35.3856H146.611V40.8724ZM141.995 40.9549C143.226 40.9549 143.995 40.5836 144.713 40.0061L144.201 39.5935C143.534 40.0886 142.919 40.3773 141.995 40.3773C140.508 40.3773 139.38 39.3872 139.38 38.1084C139.38 36.8708 140.508 35.8807 141.995 35.8807C142.919 35.8807 143.534 36.2107 144.149 36.6232L144.662 36.1694C143.995 35.6744 143.226 35.3031 141.995 35.3031C139.996 35.3031 138.56 36.582 138.56 38.1084C138.611 39.7173 140.047 40.9549 141.995 40.9549ZM130.663 40.8724H131.432V36.3757L135.791 40.8724H136.406V35.4269H135.637V39.7998L131.381 35.4269H130.663V40.8724ZM127.329 40.8724H128.099V35.4269H127.329V40.8724ZM122.766 40.9549C124.099 40.9549 125.073 40.3361 125.073 39.4285C125.073 38.6034 124.355 38.1496 122.868 37.9021C121.381 37.6546 121.022 37.3658 121.022 36.8295C121.022 36.3344 121.586 35.9632 122.458 35.9632C123.176 35.9632 123.791 36.1282 124.407 36.5407L124.868 36.0457C124.201 35.5919 123.484 35.3856 122.458 35.3856C121.176 35.3856 120.253 36.0044 120.253 36.8708C120.253 37.7783 120.971 38.1909 122.509 38.4384C123.945 38.6859 124.253 38.9747 124.253 39.4698C124.253 40.0061 123.637 40.4186 122.766 40.4186C121.843 40.4186 121.125 40.1711 120.458 39.6348L119.997 40.0886C120.817 40.6661 121.689 40.9549 122.766 40.9549ZM114.151 39.3872H114.663L114.561 38.3971L115.535 38.9747L115.792 38.6034L114.663 38.1909L115.792 37.7783L115.535 37.4071L114.561 37.9846L114.663 36.9945H114.151L114.253 37.9846L113.279 37.4071L113.022 37.7783L114.151 38.1909L113.022 38.6034L113.279 38.9747L114.253 38.3971L114.151 39.3872Z" fill="white"/>
<path d="M16.5651 13.8924L16.7702 12.8198H17.0779L19.3342 22.597H20.9239L17.642 10.097H13.2319L15.6934 11.1284L15.1293 13.8924H16.5651Z" fill="white"/>
<path d="M21.2317 24.0408H19.8472L20.8215 27.2998H22.1547L23.1291 24.0408H21.7958L21.5907 25.0309H21.3856L21.2317 24.0408Z" fill="white"/>
<path d="M25.1803 15.46H23.7958L21.8984 22.5969H23.4881L25.1803 15.46Z" fill="white"/>
<path d="M14.7194 15.4188L12.3605 26.2274L9.18115 27.3H16.7193L13.9502 26.2686L16.2577 15.3776L14.7194 15.4188Z" fill="white"/>
<path d="M40.513 17.3989C40.513 23.4219 37.3337 28.8675 31.0775 33.6529C27.129 36.6645 23.1292 38.4384 21.8985 38.9334C20.6678 38.4384 16.668 36.6645 12.7194 33.6529C6.51459 28.8675 3.33526 23.3807 3.33526 17.3989C3.33526 16.615 3.54037 14.8411 3.74549 12.9847C4.00189 10.757 4.25829 8.24048 4.36085 6.50781C14.7193 6.30154 20.155 3.33126 21.8985 2.13489C23.6933 3.33126 29.0776 6.30154 39.4874 6.46656C39.5387 8.24048 39.8464 10.7157 40.1028 12.9434C40.3079 14.8411 40.513 16.615 40.513 17.3989ZM12.9758 35.3856C13.0271 35.3443 13.0784 35.3031 13.1297 35.2618C13.1809 35.2206 13.2322 35.1793 13.2835 35.1381L13.3348 35.0968C16.668 37.4483 19.796 38.8922 21.1293 39.4697C20.9242 39.511 20.7191 39.5522 20.4627 39.5935C20.0524 39.6347 19.6422 39.6347 19.2832 39.511L18.7192 39.3047C18.4628 39.1809 18.1551 39.0159 17.8474 38.8097C17.5397 38.6034 17.1808 38.3559 16.7705 38.1083C16.668 38.0258 16.5141 37.9433 16.4116 37.8608C16.309 37.7783 16.1552 37.6958 16.0526 37.6133C15.95 37.5308 15.7962 37.4483 15.6937 37.3658C15.5911 37.2833 15.4373 37.2008 15.3347 37.1183L14.8732 36.8295C14.8219 36.7882 14.7193 36.747 14.6681 36.7057C14.6168 36.6645 14.5142 36.6232 14.4629 36.582C14.4117 36.5407 14.3091 36.4994 14.2578 36.4582C14.2065 36.4169 14.104 36.3757 14.0527 36.3344C13.8476 36.1694 13.6425 36.0456 13.3861 35.9219C13.1809 35.7981 12.9246 35.6744 12.7194 35.5919C12.8733 35.5093 12.9246 35.4268 12.9758 35.3856ZM12.822 36.9532C12.8733 36.9945 12.9246 36.9945 12.9758 37.0357C13.4886 37.3658 13.9501 37.6958 14.4629 38.0258C14.9757 38.3559 15.4373 38.6859 15.9501 39.0159C16.309 39.2635 16.668 39.4697 16.9756 39.6347C17.3346 39.7998 17.6423 39.9235 18.0012 40.006C17.232 40.5011 16.3603 40.7073 15.5398 40.6661C14.6681 40.6248 13.9501 40.3773 13.2835 39.9235C12.7194 39.5522 12.3092 39.0572 12.0528 38.4384C11.7964 37.8608 11.8477 37.2008 12.1041 36.5407C12.2066 36.582 12.3092 36.6232 12.3605 36.7057C12.463 36.747 12.5656 36.8295 12.6682 36.8707C12.7194 36.912 12.7707 36.912 12.822 36.9532ZM22.6164 39.4697C23.9497 38.8922 27.0777 37.4483 30.4109 35.0968L30.4622 35.1381C30.5135 35.1793 30.5648 35.2206 30.616 35.2618C30.6673 35.3031 30.7186 35.3443 30.7699 35.3856C30.8212 35.4268 30.8724 35.4681 30.9237 35.5093C30.7186 35.5919 30.4622 35.7156 30.2571 35.8394C30.052 35.9631 29.8468 36.0869 29.5904 36.2519C29.5392 36.2932 29.4366 36.3344 29.3853 36.3757C29.334 36.4169 29.2315 36.4582 29.1802 36.4994C29.1289 36.5407 29.0264 36.5819 28.9751 36.6232C28.9238 36.6645 28.8212 36.7057 28.77 36.747L28.3084 37.0357C28.2059 37.1183 28.052 37.2008 27.9495 37.2833C27.8469 37.3658 27.6931 37.4483 27.5905 37.5308C27.488 37.6133 27.3341 37.6958 27.2316 37.7783C27.129 37.8608 26.9752 37.9433 26.8726 38.0258C26.4624 38.3146 26.1034 38.5209 25.7957 38.7272C25.4881 38.9334 25.1804 39.0984 24.924 39.2222L24.3599 39.4285C24.001 39.511 23.5907 39.5522 23.1805 39.511C23.0266 39.5522 22.8215 39.511 22.6164 39.4697ZM25.847 40.006C26.206 39.9235 26.5137 39.7998 26.8726 39.6347C27.2316 39.4697 27.5393 39.2635 27.8982 39.0159C28.411 38.6859 28.8725 38.3559 29.3853 38.0258C29.8981 37.6958 30.3596 37.3658 30.8724 37.0357C30.9237 36.9945 30.975 36.9945 31.0263 36.9532C31.0775 36.912 31.1288 36.912 31.1801 36.8707C31.2827 36.8295 31.3852 36.747 31.4878 36.7057C31.5903 36.6645 31.6929 36.582 31.7442 36.5407C32.0519 37.2008 32.0519 37.8608 31.7955 38.4384C31.5391 39.0572 31.1288 39.511 30.5648 39.9235C29.9494 40.3361 29.1802 40.5836 28.3084 40.6661C27.4367 40.7073 26.6162 40.5011 25.847 40.006ZM43.6411 7.25038C43.4872 6.75534 43.1795 6.38405 42.718 6.13653C42.2565 5.889 41.6924 5.72399 41.1284 5.68273H40.7694C40.6156 5.68273 40.3592 5.72399 40.2053 5.72399C29.7956 5.68273 24.3086 2.79496 22.5651 1.59859C22.7702 1.39232 23.2318 0.979782 23.283 0.938528C23.3343 0.897274 23.3856 0.856019 23.4882 0.814766C23.7958 0.64975 24.1035 0.484734 24.4625 0.402226C24.8214 0.319718 25.1291 0.360972 25.4881 0.484734C25.847 0.64975 26.0521 0.85602 26.206 1.1448C26.3598 1.43358 26.3085 1.72235 26.1034 2.01113C25.9496 2.17615 25.7957 2.29991 25.5393 2.34116C25.2829 2.38242 25.0778 2.38242 24.8727 2.34116C24.8214 2.34116 24.8214 2.34116 24.8214 2.34116C24.8214 2.34116 24.7701 2.34116 24.7701 2.29991C24.6676 2.25865 24.565 2.17615 24.5138 2.09364C24.4625 2.05238 24.4625 1.92862 24.4625 1.80486C24.4625 1.80486 24.4625 1.84611 24.5138 1.84611L24.565 1.88737C24.565 1.92862 24.6163 1.92862 24.6163 1.92862L24.6676 1.96988C24.7702 2.01113 24.8727 2.01113 24.924 2.01113C25.0265 1.96988 25.0778 1.92862 25.1291 1.84611C25.1291 1.84611 25.1291 1.80486 25.1804 1.80486V1.76361C25.2317 1.6811 25.2317 1.59859 25.2317 1.51608C25.2317 1.43358 25.1804 1.35107 25.0778 1.26856L25.0265 1.22731L24.9753 1.18605C24.924 1.1448 24.8214 1.10354 24.7189 1.1448C24.6163 1.1448 24.565 1.18605 24.4625 1.22731C24.4112 1.22731 24.4112 1.26856 24.3599 1.26856C24.3086 1.30981 24.3086 1.30981 24.2574 1.35107C24.2574 1.35107 24.2061 1.35107 24.2061 1.39232C24.2061 1.39232 24.2061 1.43357 24.1548 1.43357V1.47483C24.1548 1.47483 24.1548 1.47483 24.1548 1.51608C24.1035 1.59859 24.0522 1.72235 24.0522 1.80486C24.0522 1.92862 24.0522 2.01113 24.0522 2.09364C24.1035 2.2174 24.1548 2.29991 24.2061 2.38242C24.2574 2.46492 24.3599 2.54743 24.4625 2.58869C24.7189 2.71245 25.0778 2.7537 25.4368 2.67119C25.7957 2.58869 26.0521 2.42367 26.2573 2.17615C26.5137 1.80486 26.5649 1.43358 26.4111 1.10354C26.2573 0.732258 25.9496 0.484734 25.5393 0.278464C25.0265 0.0309406 24.4625 -0.0515675 23.8984 0.0309404C23.3343 0.113448 22.8215 0.319718 22.4113 0.64975L22.1549 0.85602C22.0523 0.938528 21.9498 1.06229 21.8472 1.18605C21.7447 1.06229 21.6421 0.979782 21.5395 0.85602L21.2831 0.64975C20.8216 0.319718 20.3601 0.154702 19.796 0.0309404C19.2319 -0.0515675 18.6679 0.0309406 18.1551 0.278464C17.7448 0.484734 17.4372 0.773512 17.2833 1.10354C17.1295 1.47483 17.1295 1.84611 17.4372 2.17615C17.6423 2.42367 17.8987 2.58869 18.2576 2.67119C18.6166 2.7537 18.9243 2.71245 19.2319 2.58869C19.3345 2.54743 19.4371 2.46492 19.4883 2.38242C19.5909 2.29991 19.6422 2.2174 19.6422 2.09364C19.6935 2.01113 19.6935 1.88737 19.6422 1.80486C19.6422 1.6811 19.5909 1.59859 19.5396 1.51608C19.5396 1.51608 19.5396 1.51608 19.5396 1.47483C19.5396 1.47483 19.5396 1.47483 19.5396 1.43357C19.5396 1.43357 19.5396 1.39232 19.4883 1.39232C19.4883 1.39232 19.4883 1.35107 19.4371 1.35107C19.4371 1.30981 19.3858 1.30981 19.3345 1.26856C19.2832 1.26856 19.2832 1.22731 19.2319 1.22731C19.1294 1.18605 19.0781 1.1448 18.9755 1.1448C18.873 1.1448 18.8217 1.1448 18.7192 1.18605L18.6679 1.22731L18.6166 1.26856C18.514 1.35107 18.514 1.43358 18.4628 1.51608C18.4628 1.59859 18.4628 1.6811 18.514 1.76361V1.80486C18.514 1.80486 18.514 1.84611 18.5653 1.84611C18.6166 1.92862 18.6679 1.96988 18.7704 2.01113C18.873 2.05238 18.9243 2.05238 19.0268 1.96988L19.0781 1.92862L19.1294 1.88737L19.1807 1.84611C19.1807 1.84611 19.1807 1.80486 19.2319 1.80486C19.2319 1.92862 19.2319 2.01113 19.1807 2.13489C19.1294 2.2174 19.0268 2.29991 18.9243 2.34116C18.9243 2.34116 18.873 2.34116 18.873 2.38242H18.8217C18.6166 2.46492 18.4115 2.46492 18.1551 2.38242C17.8987 2.34116 17.7448 2.2174 17.591 2.05238C17.3859 1.76361 17.3346 1.47483 17.4884 1.18605C17.6423 0.897274 17.8987 0.691004 18.2064 0.525988C18.514 0.360972 18.873 0.319718 19.2319 0.44348C19.5909 0.525988 19.8986 0.691004 20.2063 0.85602C20.2575 0.897274 20.3088 0.938528 20.4114 0.979782C20.4627 1.02104 20.9242 1.43357 21.1293 1.63984C19.3858 2.79496 13.8989 5.72399 3.48909 5.76524C3.28398 5.76524 3.02758 5.72399 2.92502 5.72399H2.56606C2.00198 5.76524 1.43791 5.889 0.976391 6.17778C0.514874 6.4253 0.207196 6.79659 0.0533575 7.29164C-0.0492019 7.66292 0.00207769 8.03421 0.155917 8.4055C0.361035 8.77678 0.719993 8.98305 1.23279 9.06556C1.59175 9.14807 1.89943 9.06556 2.2071 8.9418C2.51478 8.77678 2.7199 8.57051 2.82246 8.32299C2.87374 8.24048 2.87374 8.11672 2.82246 8.03421C2.82246 7.9517 2.77118 7.82794 2.66862 7.74543C2.61734 7.66292 2.51478 7.58042 2.41222 7.53916C2.30966 7.45665 2.2071 7.4154 2.05326 7.37415C2.05326 7.37415 2.05326 7.37415 2.00198 7.37415H1.9507H1.89942H1.84814C1.79687 7.37415 1.74559 7.37415 1.74559 7.37415C1.69431 7.37415 1.64303 7.37415 1.64303 7.4154C1.54047 7.4154 1.48919 7.45665 1.38663 7.49791C1.33535 7.53916 1.28407 7.62167 1.28407 7.66292V7.70418C1.28407 7.70418 1.28407 7.74543 1.28407 7.78669C1.28407 7.86919 1.33535 7.9517 1.43791 8.03421C1.48919 8.11672 1.59175 8.15797 1.69431 8.19923H1.74559H1.79687C1.89942 8.19923 2.00198 8.19923 2.05326 8.19923C2.15582 8.15797 2.2071 8.11672 2.2071 8.03421C2.2071 8.03421 2.2071 7.99295 2.2071 7.9517C2.2071 7.91045 2.2071 7.91045 2.2071 7.86919C2.2071 7.86919 2.2071 7.82794 2.2071 7.78669C2.2071 7.74543 2.2071 7.74543 2.15582 7.74543C2.25838 7.82794 2.36094 7.91045 2.41222 7.99296C2.4635 8.07546 2.4635 8.19923 2.41222 8.28173V8.32299C2.41222 8.32299 2.41222 8.36424 2.36094 8.36424C2.25838 8.52926 2.15582 8.65302 1.89942 8.73553C1.69431 8.81803 1.43791 8.85929 1.23279 8.81803C0.822552 8.73553 0.566154 8.57051 0.412315 8.28173C0.258476 7.99296 0.207196 7.70418 0.309756 7.37415C0.412315 7.08537 0.617434 6.8791 0.925111 6.71408C1.23279 6.59032 1.59175 6.50781 1.9507 6.46656C2.05326 6.46656 2.10454 6.46656 2.2071 6.46656C2.25838 6.46656 2.87374 6.46656 3.2327 6.50781C3.28398 9.72562 2.41222 15.6662 2.41222 17.3989C2.41222 25.3196 7.84786 31.0952 12.9758 34.808C12.9246 34.8493 12.822 34.8905 12.7707 34.9318C12.6682 35.0143 12.5143 35.1381 12.4118 35.2206L12.3605 35.2618C12.3605 35.3031 12.3092 35.3031 12.3092 35.3031C11.4374 35.0143 10.5657 34.9318 9.64265 35.0143C8.71962 35.0968 7.95042 35.4681 7.33507 36.0869C6.82227 36.582 6.56587 37.1183 6.51459 37.7371C6.46331 38.3559 6.77099 38.8922 7.43763 39.346C7.84786 39.6347 8.36066 39.7585 8.97602 39.7173C9.59137 39.676 10.0529 39.511 10.3606 39.181C10.5144 39.0572 10.5657 38.9334 10.6682 38.7684C10.7195 38.6034 10.7708 38.4384 10.7195 38.2321C10.7195 38.0671 10.6682 37.9433 10.5657 37.7783C10.4631 37.6133 10.3606 37.4895 10.2067 37.3658C10.2067 37.3658 10.2067 37.3658 10.1554 37.3245L10.1042 37.2833L10.0529 37.242C10.0529 37.242 10.0016 37.2008 9.95033 37.2008C9.89905 37.1595 9.84777 37.1595 9.79649 37.1183C9.74521 37.1183 9.69393 37.077 9.59137 37.077C9.43753 37.0357 9.2837 37.0357 9.18114 37.077C9.0273 37.1183 8.92474 37.1595 8.82218 37.2833C8.82218 37.3245 8.7709 37.3245 8.7709 37.3658C8.7709 37.407 8.71962 37.407 8.71962 37.4483C8.66834 37.6133 8.61706 37.7371 8.66834 37.9021C8.71962 38.0258 8.7709 38.1496 8.87346 38.2734L8.92474 38.3146C8.92474 38.3559 8.97602 38.3559 8.97602 38.3559C9.07858 38.4384 9.23242 38.4796 9.38625 38.4796C9.54009 38.4796 9.64265 38.4384 9.79649 38.3146C9.79649 38.2734 9.84777 38.2734 9.84777 38.2321C9.84777 38.1909 9.89905 38.1496 9.89905 38.1083C9.89905 38.0671 9.95033 38.0258 9.95033 38.0258C9.95033 37.9846 9.95033 37.9433 9.95033 37.9433C10.0529 38.1083 10.1042 38.2734 10.0529 38.4384C10.0016 38.6034 9.95033 38.7272 9.79649 38.8509L9.74521 38.8922C9.74521 38.8922 9.69393 38.9334 9.64265 38.9334C9.38625 39.0984 9.07858 39.2222 8.66834 39.2222C8.2581 39.2635 7.89914 39.1397 7.59147 38.9334C7.07867 38.6034 6.82227 38.1496 6.87355 37.6546C6.92483 37.1595 7.12995 36.7057 7.54019 36.3344C7.95042 35.9631 8.41194 35.7569 9.0273 35.7569C9.64265 35.7569 10.2067 35.8394 10.7195 35.9631C10.8221 36.0044 10.9759 36.0457 11.0785 36.0869C11.181 36.1282 11.3349 36.1694 11.4374 36.2107C11.1298 36.912 11.0785 37.6133 11.2836 38.3559C11.4887 39.0984 11.9502 39.676 12.6682 40.171C13.5399 40.7486 14.5142 41.0374 15.5911 40.9961C16.668 40.9549 17.6423 40.6661 18.4628 40.0473C19.0268 40.1298 19.5396 40.1298 20.1037 40.0473C20.6678 39.9648 21.1806 39.841 21.6934 39.676C22.2062 39.841 22.719 39.9648 23.283 40.0473C23.8471 40.1298 24.3599 40.1298 24.924 40.0473C25.7445 40.6661 26.7188 40.9961 27.7956 40.9961C28.8725 41.0374 29.8468 40.7486 30.7186 40.171C31.4365 39.676 31.898 39.0984 32.1031 38.3559C32.3083 37.6133 32.257 36.912 31.9493 36.2107C32.0519 36.1694 32.1544 36.1282 32.3083 36.0869C32.4108 36.0457 32.5647 36.0044 32.6672 35.9631C33.2313 35.7981 33.7954 35.7156 34.3594 35.7569C34.9748 35.7569 35.4363 35.9631 35.8466 36.3344C36.2568 36.7057 36.4619 37.1595 36.5132 37.6546C36.5645 38.1496 36.3081 38.5621 35.7953 38.9334C35.4876 39.1397 35.1286 39.2222 34.7184 39.2222C34.3082 39.181 34.0005 39.0984 33.7441 38.9334C33.6928 38.9334 33.6928 38.8922 33.6415 38.8922L33.5902 38.8509C33.4877 38.7272 33.3851 38.6034 33.3339 38.4384C33.2826 38.2734 33.3338 38.1083 33.4364 37.9433C33.4364 37.9846 33.4364 38.0258 33.4364 38.0258C33.4364 38.0671 33.4364 38.1083 33.4877 38.1083C33.4877 38.1496 33.539 38.1909 33.539 38.2321C33.539 38.2734 33.5902 38.2734 33.5902 38.3146C33.6928 38.4384 33.8466 38.4796 34.0005 38.4796C34.1543 38.4796 34.2569 38.4384 34.4107 38.3559C34.462 38.3559 34.462 38.3146 34.462 38.3146C34.462 38.2734 34.5133 38.2734 34.5133 38.2734C34.6158 38.1909 34.7184 38.0671 34.7184 37.9021C34.7697 37.7783 34.7697 37.6133 34.6671 37.4483C34.6671 37.407 34.6158 37.407 34.6158 37.3658C34.6158 37.3245 34.5646 37.3245 34.5646 37.2833C34.462 37.2008 34.3594 37.1183 34.2056 37.077C34.0518 37.0357 33.9492 37.0357 33.7954 37.077C33.7441 37.077 33.6415 37.077 33.5902 37.1183C33.539 37.1183 33.4877 37.1595 33.4364 37.2008C33.3851 37.2008 33.3851 37.2008 33.3339 37.242C33.2826 37.242 33.2826 37.2833 33.2826 37.2833L33.2313 37.3245C33.2313 37.3245 33.18 37.3245 33.18 37.3658C33.0262 37.4895 32.9236 37.6133 32.8211 37.7783C32.7185 37.9433 32.6672 38.0671 32.6672 38.2321C32.6672 38.4384 32.6672 38.6034 32.7185 38.7684C32.7698 38.9334 32.8723 39.0572 33.0262 39.181C33.3851 39.4697 33.8466 39.676 34.4107 39.7173C35.0261 39.7585 35.5389 39.6347 35.9491 39.346C36.6157 38.8922 36.9234 38.3559 36.8721 37.7371C36.8209 37.1183 36.5645 36.582 36.0517 36.0869C35.4363 35.4681 34.6158 35.1381 33.7441 35.0143C32.8211 34.9318 31.9493 35.0143 31.0775 35.3031L31.0263 35.2618L30.975 35.2206C30.8724 35.0968 30.7699 35.0143 30.616 34.9318C30.5648 34.8905 30.4622 34.8493 30.4109 34.808C35.5389 31.0952 40.9745 25.3196 40.9745 17.3989C40.9745 15.7074 40.1028 9.76688 40.0002 6.46656C40.3592 6.46656 40.9745 6.4253 41.0258 6.4253C41.1284 6.4253 41.1796 6.4253 41.2822 6.4253C41.6412 6.46656 42.0001 6.54907 42.3078 6.67283C42.6155 6.79659 42.8206 7.04411 42.9231 7.33289C43.0257 7.62167 42.9744 7.9517 42.8206 8.24048C42.6667 8.52926 42.4103 8.69427 42.0001 8.77678C41.7437 8.81803 41.5386 8.77678 41.3335 8.69427C41.1284 8.61177 40.9745 8.44675 40.872 8.32299C40.872 8.32299 40.872 8.28173 40.8207 8.28173V8.24048C40.7694 8.15797 40.8207 8.07546 40.8207 7.9517C40.872 7.86919 40.9232 7.78669 41.0771 7.70418C41.0771 7.70418 41.0771 7.74543 41.0258 7.74543C41.0258 7.78668 41.0258 7.78669 41.0258 7.82794C41.0258 7.86919 41.0258 7.86919 41.0258 7.91045C41.0258 7.9517 41.0258 7.9517 41.0258 7.99296C41.0771 8.07546 41.1284 8.11672 41.1796 8.15797C41.2822 8.19922 41.3335 8.19922 41.436 8.15797H41.4873H41.5386C41.6412 8.11672 41.6924 8.07546 41.795 7.99296C41.8463 7.91045 41.8976 7.82794 41.9488 7.74543C41.9488 7.70418 41.9488 7.70418 41.9488 7.66292C41.9488 7.62167 41.9488 7.62167 41.9488 7.62167C41.9488 7.53916 41.8976 7.49791 41.8463 7.45665C41.795 7.4154 41.6924 7.37415 41.5899 7.37415C41.5386 7.37415 41.4873 7.33289 41.4873 7.33289C41.436 7.33289 41.3848 7.33289 41.3848 7.33289H41.3335H41.2822H41.2309C41.2309 7.33289 41.2309 7.33289 41.1796 7.33289C41.0771 7.37415 40.9232 7.4154 40.8207 7.49791C40.7181 7.58042 40.6156 7.62167 40.5643 7.70418C40.4617 7.82794 40.4104 7.91045 40.4104 7.99296C40.4104 8.07546 40.4104 8.19923 40.4104 8.28173C40.513 8.52926 40.6668 8.73553 41.0258 8.90054C41.3335 9.06556 41.6924 9.10681 42.0001 9.0243C42.5129 8.9418 42.8719 8.69427 43.077 8.36424C43.7436 7.99295 43.7949 7.62167 43.6411 7.25038Z" fill="white"/>
<path d="M12.0018 18.6777C12.1556 21.4417 14.617 21.6068 14.7196 21.6068H27.8472C27.9498 21.6068 30.4112 21.483 30.5137 18.719V18.6777C30.5137 15.7074 27.8985 15.5424 27.7959 15.5424H14.6683C14.5658 15.5012 12.0018 15.6662 12.0018 18.6777ZM14.6683 21.978C14.617 21.978 11.6428 21.813 11.489 18.719V18.6777H11.6428H11.489V18.4715C11.5915 15.2949 14.617 15.1299 14.6683 15.1299H27.7959C27.8472 15.1299 30.8214 15.2949 30.9753 18.4715V18.6365V18.6777H30.7701H30.9753V18.719C30.8214 21.813 27.8472 21.978 27.7959 21.978H14.6683ZM10.8736 18.9252C10.8736 18.9252 10.8736 18.9665 10.8736 19.0078C11.0275 23.1744 15.7965 23.3807 16.0016 23.3807H26.4626C26.719 23.3807 31.4368 23.1331 31.5906 19.0078C31.5906 18.9665 31.5906 18.9252 31.5906 18.9252V18.5127C31.5393 17.8526 31.4368 17.2751 31.1804 16.8213C31.0265 16.5325 30.8214 16.2437 30.6676 15.9962C30.3599 15.5837 30.0522 15.1299 29.9497 14.5523C29.8984 13.686 30.4625 13.1909 30.7701 13.1497C30.924 13.1084 31.1291 13.1909 31.3342 13.2322C31.3855 13.2735 31.4881 13.2735 31.5393 13.2735C31.5906 13.2735 31.6419 13.2322 31.6419 13.1909C31.6419 12.9022 31.2317 12.8609 31.1804 12.8609H31.1291C29.7958 12.8609 29.6933 13.8923 29.6933 13.9335V14.1398H12.771V13.9335C12.771 13.8098 12.6684 12.8609 11.3351 12.8609H11.2839C11.2326 12.8609 10.8223 12.9022 10.8223 13.1909C10.8223 13.2322 10.8736 13.2735 10.9249 13.2735C10.9762 13.2735 11.0275 13.2322 11.13 13.2322C11.2839 13.1909 11.489 13.1084 11.6941 13.1497C12.0018 13.2322 12.6171 13.7272 12.5146 14.5523C12.4633 15.1299 12.1043 15.5837 11.7967 15.9962C11.5915 16.2437 11.3864 16.5325 11.2839 16.8213C11.0275 17.3576 10.8736 18.0589 10.8736 18.9252ZM26.4626 23.752H16.0016C15.9503 23.752 10.5659 23.5457 10.4121 19.0078V18.8427C10.4121 17.9764 10.5659 17.2751 10.8223 16.6975C10.9762 16.3675 11.1813 16.0787 11.3864 15.8312C11.6941 15.4187 11.9505 15.0474 12.0531 14.5523C12.1043 13.851 11.6428 13.5622 11.5403 13.5622C11.489 13.5622 11.3864 13.6035 11.3351 13.6035C11.2326 13.6447 11.0787 13.686 10.9762 13.686C10.6685 13.686 10.4121 13.4797 10.4121 13.2322C10.4121 12.6959 11.0275 12.5309 11.3351 12.5309H11.3864C12.6684 12.5309 13.1299 13.2735 13.2838 13.7685H29.3343C29.4369 13.2735 29.9497 12.5309 31.2317 12.5309H31.2829C31.5906 12.5309 32.206 12.6959 32.206 13.2322C32.206 13.4797 31.9496 13.686 31.6419 13.686C31.4881 13.686 31.3855 13.6447 31.2829 13.6035C31.2317 13.5622 31.1291 13.5622 31.0778 13.5622C31.0265 13.5622 30.5137 13.851 30.565 14.5936C30.6163 15.0886 30.924 15.4599 31.2317 15.8725C31.4368 16.1612 31.6419 16.4088 31.7957 16.7388C32.0521 17.3163 32.206 18.0177 32.206 18.884V18.9665V19.049C31.8983 23.5457 26.5139 23.752 26.4626 23.752Z" fill="white"/>
<path d="M30.2058 32.7865C26.8726 35.3442 23.5395 36.9531 21.8985 37.6957C20.3088 36.9944 16.9244 35.3442 13.5912 32.7865C7.69405 28.2485 4.66855 23.0505 4.66855 17.3987C4.66855 16.6974 4.87367 14.9235 5.07879 13.0671C5.2839 11.2106 5.48902 9.1892 5.64286 7.53905C14.3091 7.20901 19.4884 4.94005 21.8985 3.53741C24.3087 4.94005 29.5392 7.20901 38.2055 7.53905C38.308 9.1892 38.5644 11.2106 38.7695 13.0671C38.9746 14.9235 39.1798 16.6974 39.1798 17.3987C39.1285 23.0505 36.103 28.2485 30.2058 32.7865ZM39.59 17.3987C39.59 16.6562 39.3849 14.8823 39.1798 13.0258C38.9746 11.0456 38.7182 8.90043 38.6157 7.16776C29.4879 6.87898 24.1548 4.445 21.8985 3.08362C19.6422 4.445 14.3604 6.92024 5.18134 7.16776C5.07879 8.85917 4.82239 11.0456 4.61727 13.0258C4.41215 14.8823 4.20703 16.6562 4.20703 17.3987C4.20703 23.1743 7.28381 28.4548 13.2835 33.1165C16.7706 35.798 20.3601 37.4894 21.8472 38.1495C23.3856 37.4894 26.9239 35.798 30.4109 33.1165C36.5132 28.4548 39.59 23.1743 39.59 17.3987Z" fill="white"/>
<path d="M25.2316 10.097H29.6417L27.1803 11.0871L29.4366 21.2356C29.4366 21.2356 29.2827 21.3594 28.8212 21.5656C28.3597 21.7307 28.0007 21.7719 28.0007 21.7719L26.1034 12.7786H25.847L25.5906 13.7686H24.2573L25.2316 10.097Z" fill="white"/>
<path d="M29.7956 22.6793L30.5648 26.2272L33.7442 27.2998H26.2061L28.9752 26.2684L28.3598 23.2981C28.3598 23.2981 28.7188 23.1744 29.0777 23.0094C29.4367 22.8443 29.7956 22.6793 29.7956 22.6793Z" fill="white"/>
</svg>
