<svg width="186" height="28" viewBox="0 0 186 28" fill="none" xmlns="http://www.w3.org/2000/svg">
<path d="M19.7046 0C8.50259 0 0.917969 6.13238 0.917969 14.0006C0.917969 21.8688 8.50259 28 19.7046 28C30.9063 28 38.491 21.8688 38.491 14.0006C38.491 6.13238 30.9067 0 19.7046 0ZM19.7046 27.0782C11.9106 27.0782 6.69204 22.7911 6.69204 14.0006C6.69204 5.20888 11.9106 0.922917 19.7046 0.922917C27.4968 0.922917 32.715 5.20888 32.715 14.0006C32.715 22.7911 27.4968 27.0782 19.7046 27.0782Z" fill="white"/>
<path d="M65.2092 1.13917V1.73688C67.3662 1.79075 68.3405 2.11596 68.3405 3.25579C68.3405 4.179 67.5047 5.31797 63.6088 10.1481C61.4911 12.7369 60.2691 14.7724 59.9021 15.4137C59.4392 14.3039 58.2844 12.079 55.4683 8.46497C54.563 7.27156 53.7981 6.40365 53.1717 5.64347C51.8494 4.06955 51.2939 3.25579 51.2939 2.76697C51.2939 2.00823 51.8498 1.89906 53.4505 1.73688V1.13917C53.4505 1.13917 50.5271 1.19419 48.649 1.19419C43.8481 1.19419 40.6477 1.03087 40.6477 1.03087V1.62772C44.0572 2.00795 46.0048 3.09333 51.5709 9.98445C55.1902 14.6509 55.8162 16.279 55.8857 18.3956V19.2632C55.8857 22.0306 55.8857 23.8217 55.6068 24.8529C55.2592 26.1558 54.2845 26.2097 52.1279 26.3718V26.9698C52.9622 26.9145 55.6068 26.7524 58.1808 26.7524C60.8254 26.7524 64.2352 26.9698 64.2352 26.9698V26.3718C62.148 26.21 61.1046 26.1558 60.7559 24.8529C60.4774 23.8217 60.4774 22.0306 60.4774 19.2632V18.1781C60.6159 16.3332 61.4518 14.6506 64.5835 10.6902C69.4538 4.55809 71.6104 2.17012 75.5761 1.62743V1.03058C74.7418 1.08445 71.8195 1.1939 68.7579 1.1939C66.53 1.19448 65.2092 1.13917 65.2092 1.13917Z" fill="white"/>
<path d="M129.223 1.03094V1.6278C131.38 1.79083 132.354 1.84498 132.702 3.14756C132.979 4.17908 132.979 6.02292 132.979 8.7914V13.0235H114.541V8.7914C114.541 6.02292 114.541 4.17879 114.819 3.14756C115.167 1.84498 116.211 1.79112 118.298 1.6278V1.03094C118.298 1.03094 114.889 1.19427 112.245 1.19427C109.67 1.19427 107.027 1.08481 106.191 1.03094V1.6278C108.349 1.79083 109.322 1.84498 109.67 3.14756C109.949 4.17908 109.949 6.02292 109.949 8.7914V19.2095C109.949 21.9768 109.949 23.8221 109.67 24.853C109.322 26.1559 108.349 26.2097 106.191 26.3719V26.9699C107.027 26.9146 109.67 26.8066 112.245 26.8066C114.888 26.8066 118.298 26.9699 118.298 26.9699V26.3719C116.211 26.21 115.167 26.1559 114.819 24.853C114.541 23.8218 114.541 21.9768 114.541 19.2095V14.1625H132.979V19.2095C132.979 21.9768 132.979 23.8221 132.702 24.853C132.355 26.1559 131.38 26.2097 129.223 26.3719V26.9699C130.058 26.9146 132.702 26.8066 135.276 26.8066C137.92 26.8066 141.329 26.9699 141.329 26.9699V26.3719C139.242 26.21 138.198 26.1559 137.85 24.853C137.573 23.8218 137.573 21.9768 137.573 19.2095V8.7914C137.573 6.02292 137.573 4.17879 137.85 3.14756C138.197 1.84498 139.242 1.79112 141.329 1.6278V1.03094C141.329 1.03094 137.921 1.19427 135.276 1.19427C132.702 1.19456 130.058 1.0851 129.223 1.03094Z" fill="white"/>
<path d="M91.7879 12.5896L88.1 10.7988C85.178 9.33401 82.9516 8.03143 82.9516 5.37212C82.9516 2.65894 85.5256 0.976981 89.3528 0.976981C94.8495 0.976981 96.1012 4.45033 96.5891 6.94604H97.2155C97.2155 6.62054 97.354 5.64346 97.354 4.28701C97.354 2.60506 97.2155 1.68186 97.2155 1.68186C96.7971 1.46553 94.0845 0.217102 89.6309 0.217102C83.1599 0.217102 79.6116 3.30994 79.6116 7.05406C79.6116 9.8214 81.1414 12.4804 86.0117 14.8145L89.7 16.6045C92.6219 18.0162 95.128 19.481 95.128 22.1942C95.128 25.5042 92.2046 27.0781 88.1701 27.0781C82.9512 27.0781 80.724 24.5822 79.4018 19.9695H78.7764C78.7063 20.7294 78.6365 21.5435 78.6365 22.791C78.6365 24.365 78.7764 25.7217 78.7764 25.7217C78.9848 25.8847 82.1157 27.8383 87.6132 27.8383C94.571 27.8383 98.6072 24.8535 98.6072 20.3492C98.6076 17.1469 96.52 14.8684 91.7879 12.5896Z" fill="white"/>
<path d="M166.796 0C155.593 0 148.01 6.13238 148.01 14.0006C148.01 21.8688 155.593 28 166.796 28C177.998 28 185.582 21.8688 185.582 14.0006C185.582 6.13238 177.998 0 166.796 0ZM166.796 27.0782C159.003 27.0782 153.784 22.7911 153.784 14.0006C153.784 5.20888 159.003 0.922917 166.796 0.922917C174.588 0.922917 179.807 5.20888 179.807 14.0006C179.807 22.7911 174.588 27.0782 166.796 27.0782Z" fill="white"/>
</svg>
