<svg width="159" height="31" viewBox="0 0 159 31" fill="none" xmlns="http://www.w3.org/2000/svg">
<path fill-rule="evenodd" clip-rule="evenodd" d="M54.4502 6.34695H58.0696C59.7415 6.34695 60.8891 5.85028 60.8882 4.5868C60.8882 3.41379 59.8649 2.61488 58.2687 2.61488H54.4502V6.34695ZM54.425 8.69489V13.3163H50.6813V0.356779H58.7668C61.7124 0.356779 64.0085 1.54775 64.5085 3.50362C64.5256 3.58621 64.5416 3.65249 64.5559 3.71208C64.6031 3.90852 64.6328 4.03215 64.6328 4.42701C64.6328 5.01544 64.6066 5.13929 64.5085 5.53008C63.9833 7.45001 61.8367 8.69489 59.0677 8.69489H54.425ZM71.2653 0.356138H67.5216V13.315H71.2653V0.356138ZM78.6959 5.99209H83.0873C84.1358 5.99209 85.3339 5.77841 85.7329 5.03341C85.8825 4.78379 85.9068 4.69524 85.9068 4.30317C85.9068 3.91923 85.8581 3.82764 85.7394 3.60426L85.7329 3.59218C85.3339 2.84589 84.3358 2.59691 83.263 2.59691H78.6959V5.99209ZM74.9081 13.3157V0.356138L83.744 0.355496C84.1926 0.355496 84.6664 0.355496 85.1411 0.392072C87.9363 0.479983 89.5586 2.13362 89.5586 4.01762C89.5586 5.38698 88.7587 6.59592 86.8634 7.09259C87.7624 7.32424 88.5173 7.70733 88.8073 8.3734C89.2821 9.4508 89.2487 11.4862 89.2487 11.4862C89.2487 11.4862 89.201 12.7125 90.172 13.3157H85.8383C85.687 13.1373 85.6131 12.9429 85.5636 12.7824C85.3755 12.1141 85.3615 11.4215 85.3478 10.7448C85.3451 10.6113 85.3424 10.4785 85.3384 10.3466C85.215 8.9952 84.9646 8.28421 82.618 8.28421H78.6518V13.3157H74.9081ZM99.7826 2.95241L97.2631 8.49853H102.353L99.7826 2.95241ZM97.6351 0.356138H101.93L108.517 13.3157H104.572L103.352 10.6488H96.2893L95.0669 13.3157H91.1485L97.6351 0.356138ZM123.235 2.61488V0.356138H110.388V13.3163H123.709V10.9337H114.082V7.60979H122.434V5.36966H114.082V2.61488H123.235ZM133.688 11.3239C131.044 11.3239 130.196 10.1522 130.196 8.44463L130.197 0.320845H126.43V8.74751C126.43 12.0009 129.322 13.6898 133.765 13.6898C136.859 13.6898 140.353 12.5155 140.852 10.1169C140.978 9.65421 141.027 9.1922 141.027 8.74751V0.320845H137.258V8.44399C137.258 8.80077 137.234 9.13701 137.184 9.51112C136.933 10.7554 135.311 11.3239 133.688 11.3239ZM154.671 9.77806C154.671 11.0415 152.846 11.4317 151.375 11.4317C149.454 11.4317 147.433 10.8632 147.208 9.31476H143.465C143.864 12.4263 146.957 13.6712 151.051 13.6712C154.794 13.6712 158.312 12.4263 158.312 9.45786C158.312 6.62332 154.768 6.0834 151.716 5.61848C149.409 5.26697 147.383 4.95834 147.383 3.73335C147.383 2.5597 149.131 2.16955 150.476 2.16955C152.324 2.16955 153.871 2.72012 154.098 4.10745H157.688C157.391 1.28081 154.62 0 150.851 0C147.134 0 143.789 1.03119 143.789 4.03623C143.789 6.79825 147.263 7.34722 150.285 7.8248C152.612 8.19246 154.671 8.51782 154.671 9.77806ZM54.606 22.8461H58.5668C59.8406 22.8461 61.2134 22.5438 61.2134 21.4427C61.2134 20.2864 59.8144 20.1099 58.5182 20.0733H54.606V22.8461ZM50.8182 30.7927V17.8338L59.2667 17.8332C62.3105 17.8332 64.9805 18.7585 64.9805 21.2104C64.9805 22.2961 64.2328 23.3267 62.8105 23.7893C64.6328 24.3046 65.63 25.425 65.63 26.8104C65.63 29.6371 62.5609 30.7927 58.9668 30.7927H50.8182ZM54.606 28.464H58.6929C60.1639 28.464 61.7376 28.0912 61.7367 26.8444C61.7367 25.5848 60.3396 25.0862 58.6677 25.0862H54.606V28.464ZM75.1531 20.4295L72.6327 25.9756H77.724L75.1531 20.4295ZM73.0083 17.8338H77.3006L83.8881 30.7927H79.9453L78.723 28.1259H71.6608L70.4375 30.7927H66.5199L73.0083 17.8338ZM97.064 26.7572L89.6532 17.8338H85.76V30.7927H89.4532V21.8861L96.8667 30.7927H100.732V17.8338H97.064V26.7572ZM107.981 23.1663V17.8338H104.239V30.7927H107.981V26.2419L109.928 24.8719L115.868 30.7927H120.409L112.523 23.0771L119.759 17.8338H115.093L107.981 23.1663ZM42.7309 0.498593H0V22.8044L0.104492 22.7614C13.0923 16.1339 1.30421 10.8667 1.12175 10.7852C1.12059 10.7847 1.1199 10.7844 1.11969 10.7843L0.853951 10.6637L1.04492 10.4846L2.1619 9.43546L2.35107 9.25707L2.58618 9.40659C4.69673 10.7484 6.07585 12.0138 6.90277 13.1913C7.97742 14.7223 8.12245 16.1084 7.7306 17.3263C7.33966 18.5404 6.41454 19.5825 5.34801 20.4346C3.33564 22.0421 0.802607 22.9808 0.402655 23.1227L0 23.2664V31H42.7309V27.4066L42.4517 27.4034C41.7279 27.3906 41.0043 27.3755 40.2807 27.3578C39.7069 27.3443 39.1142 27.3263 38.5098 27.3077L40.7708 28.9845L40.7681 28.987L40.8059 29.0153L40.469 29.2604L40.4573 29.2527L40.4474 29.2617L37.2595 27.2654C35.9982 27.2202 34.7376 27.1652 33.478 27.1005L32.6474 27.0562L32.3754 27.0408L34.8634 28.8824L34.5256 29.1282L31.2251 26.9715C26.8229 26.6295 22.8522 26.1514 19.5166 25.7497C17.4168 25.4963 15.5684 25.2736 14.0127 25.1343L13.9884 25.1324L13.9839 25.1318C5.75064 24.3198 2.83832 27.1231 2.77808 27.1811C2.77753 27.1816 2.77722 27.1819 2.77714 27.182L2.51862 27.4303L2.36008 27.1409L1.27732 25.1754L1.22147 25.074L1.32687 24.9951C1.33498 24.9887 4.29408 22.694 11.2869 23.2998C13.0624 23.4538 15.8666 23.8426 19.2752 24.3155L19.3535 24.3264C22.2737 24.7307 25.634 25.196 29.1722 25.6278L27.7534 24.7006L27.7462 24.6961L20.6029 20.4019L20.0976 20.0977H22.9954L23.0684 20.151L30.717 25.812C32.4128 26.0119 34.1125 26.1945 35.8155 26.36L25.9771 20.1978H28.9236L37.4351 26.5101C38.6494 26.6179 39.8475 26.7142 41.0158 26.7931L41.7292 26.838C41.8144 26.8432 41.8982 26.8484 41.9801 26.8534C42.1422 26.8634 42.2966 26.8729 42.439 26.881L42.4769 26.8829L42.7309 26.8945V26.8079L42.3264 26.5358L39.5799 24.7404L39.5736 24.7365L32.4285 20.4391L32.025 20.1972H34.7697L34.8273 20.2389L42.5949 25.9897L42.6498 26.0301L42.7309 26.0815V17.8217L42.5057 17.864C38.8917 18.5237 30.8395 19.6421 22.7414 18.4056C14.6136 17.1639 6.44427 13.5596 2.65554 4.76847L2.58618 4.6074L2.79246 4.52719L4.98228 3.67054L5.35251 3.52488L5.40926 3.82454C5.40929 3.82471 5.40935 3.82504 5.40943 3.82556C5.43717 3.98798 8.45735 21.6753 42.3832 17.3314L42.7309 17.2782V10.9742L42.3778 10.9813C25.5268 11.4589 20.2299 13.824 20.1349 13.8664C20.1342 13.8667 20.1337 13.8669 20.1336 13.867L19.8625 13.9857L19.7211 13.7816C18.3059 11.7212 17.4231 9.49578 16.8809 7.26399C16.3404 5.03605 16.1395 2.80169 16.0864 0.713644L16.0819 0.498679H17.8051L17.8375 0.678992C19.4445 8.12578 21.0858 10.2953 21.4956 10.7426C23.0405 10.5635 34.3526 9.30584 42.3976 9.92764L42.7309 9.94492V0.498593Z" fill="white"/>
</svg>
