<svg width="165" height="21" viewBox="0 0 165 21" fill="none" xmlns="http://www.w3.org/2000/svg">
<g clip-path="url(#clip0)">
<path d="M75.1552 17.5697C74.1264 17.7345 73.0096 17.6266 72.1156 17.159C71.0714 16.6404 70.3753 15.7111 70.2427 14.7197C70.2261 14.517 70.2254 14.3159 70.2403 14.1131C70.3928 12.9732 71.4374 11.9297 72.816 11.6675C74.51 13.1917 76.2038 14.7144 77.9073 16.2308C77.2118 16.9184 76.2217 17.3949 75.1552 17.5697ZM82.8035 15.6374C82.8614 15.0119 82.9161 14.379 83.1625 13.7788C83.4518 13.0232 83.9633 12.2414 84.8749 11.8886C85.0615 11.8428 85.2545 11.8096 85.4487 11.7954C85.4506 11.6517 85.4398 11.5058 85.4841 11.3647C85.4314 11.1673 85.5053 10.9661 85.4796 10.7661C85.4442 10.466 85.4487 10.1643 85.459 9.8631C85.4861 9.48768 85.4217 9.10386 85.4841 8.73162C85.4571 8.63736 85.4487 8.54207 85.4462 8.44677C84.314 8.43782 83.1842 8.6958 82.2098 9.16388C80.7411 9.86942 79.6299 11.0725 79.2421 12.4351C77.0516 10.5012 74.9029 8.53627 72.7183 6.5992C72.2537 6.17111 72.0479 5.57832 72.1373 5.01382C72.2756 4.40364 72.746 3.84076 73.4336 3.56229C73.8924 3.35593 74.4327 3.32425 74.9434 3.37695C75.7303 3.48276 76.4109 3.94077 76.7339 4.53371C77.9496 4.0172 79.1919 3.53964 80.4026 3.01154C80.1928 2.6898 79.9741 2.36968 79.6988 2.08218C78.4895 0.77433 76.5061 -0.0416776 74.4958 -0.00218381C72.1707 -0.0343982 69.9083 1.08448 68.8134 2.75612C68.1199 3.7855 67.8625 5.00708 68.1013 6.16586C68.3116 7.24632 68.9453 8.26776 69.887 9.04226C68.7966 9.57088 67.8625 10.3185 67.209 11.2084C66.4576 12.2219 66.0839 13.4155 66.1269 14.5991C66.1726 15.7664 66.5946 16.9263 67.3596 17.9135C68.5007 19.4167 70.4165 20.5077 72.5362 20.862C73.6157 21.0463 74.7364 21.0358 75.8228 20.891C77.6738 20.6114 79.392 19.839 80.7024 18.7359C81.2486 19.2509 81.8244 19.7442 82.382 20.2513C84.2361 20.2486 86.0908 20.2576 87.9455 20.2471C86.224 18.7165 84.5147 17.1764 82.8035 15.6374Z" fill="white"/>
<path d="M9.15673 10.8671C8.46194 11.4742 7.48154 11.8217 6.47927 11.9138C5.75876 11.9386 5.0376 11.9201 4.31645 11.9254V3.78019C5.16241 3.79758 6.02444 3.72021 6.85367 3.89233C7.8553 4.07241 8.78554 4.52153 9.43269 5.17498C11.0384 6.78449 10.9155 9.36812 9.15673 10.8671ZM14.5637 6.079C14.1038 4.43728 12.9613 2.91148 11.3022 1.90205C9.71512 0.922814 7.71635 0.446878 5.74139 0.439464C3.82754 0.440004 1.91369 0.439464 0.000482483 0.439464C-0.000160828 7.04409 -0.000160828 13.6471 0.000482483 20.2512H4.31645C4.31645 18.598 4.3158 16.9442 4.31645 15.2914C5.34897 15.2751 6.39049 15.3399 7.41593 15.2135C9.0969 15.0203 10.7013 14.3948 11.9281 13.4339C13.5731 12.1666 14.5708 10.3801 14.776 8.54729C14.8275 7.72118 14.8114 6.88558 14.5637 6.079Z" fill="white"/>
<path d="M31.8072 0.440055C33.2584 0.439515 34.7098 0.441133 36.161 0.439515C36.1707 0.549503 36.1791 0.659624 36.1829 0.770151C36.1798 0.989182 36.1809 1.20821 36.1798 1.42832C36.1803 1.64735 36.1823 1.86692 36.1798 2.08649C36.1798 2.40553 36.1823 2.72458 36.1798 3.04362C36.1803 3.14364 36.1803 3.24378 36.1809 3.3438C36.1636 3.82243 36.1893 4.30147 36.1798 4.78064C36.1862 5.43935 36.1636 6.09738 36.1798 6.75556C36.1836 7.77388 36.1803 8.79164 36.1798 9.80887C36.1803 9.98788 36.1798 10.1669 36.1823 10.3475C36.1668 10.5671 36.1668 10.7871 36.1823 11.0067C36.1798 11.1662 36.1803 11.3252 36.1803 11.4848C36.1515 12.1798 36.221 12.8758 36.132 13.5692C36.0067 14.7686 35.6072 15.9586 34.8769 17.0063C34.1301 18.091 33.0204 19.0055 31.6952 19.6168C30.2163 20.3034 28.503 20.6146 26.8105 20.6146C24.9275 20.6314 23.0124 20.2628 21.4137 19.4299C19.8757 18.6385 18.6886 17.4207 18.0325 16.0376C17.4882 14.9171 17.2786 13.7025 17.2895 12.502C17.2901 8.48152 17.2895 4.46106 17.2895 0.440055C18.7517 0.439515 20.214 0.439515 21.6762 0.439515C21.6769 4.5426 21.6762 8.64473 21.6769 12.7468C21.7207 13.8973 22.0231 15.1125 22.9641 16.006C23.7342 16.7536 24.9096 17.1522 26.0836 17.2275C27.3072 17.3259 28.6137 17.1906 29.67 16.6446C30.5186 16.2076 31.1008 15.49 31.4083 14.7197C31.6443 14.1632 31.7312 13.5745 31.7897 12.9906C31.8277 11.5506 31.7955 10.1106 31.8058 8.66948C31.8058 5.92742 31.8058 3.18313 31.8072 0.440055Z" fill="white"/>
<path d="M52.6836 0.443674C54.1363 0.435857 55.5888 0.441652 57.0401 0.439495C57.0414 5.90637 57.0401 11.3715 57.0414 16.8368C59.5259 16.8394 62.0117 16.831 64.4968 16.8405C64.4948 17.9767 64.4955 19.1124 64.4968 20.2486C60.5585 20.2539 56.6214 20.2539 52.6843 20.2486C52.6843 13.6471 52.6843 7.0452 52.6836 0.443674Z" fill="white"/>
<path d="M100.775 14.9618C100.665 15.4309 100.355 15.8732 99.8902 16.1654C99.3382 16.5261 98.6486 16.7062 97.9653 16.8062C96.6544 16.9836 95.3214 16.892 93.9988 16.9152C94.0006 15.1966 93.9975 13.4776 94.0006 11.7595C94.987 11.7648 95.9724 11.7453 96.9579 11.7727C97.914 11.8217 98.9123 11.9401 99.7217 12.3861C100.296 12.6888 100.685 13.2022 100.788 13.7524C100.863 14.1526 100.858 14.5622 100.775 14.9618ZM93.9988 3.66965C94.9688 3.6807 95.9468 3.62638 96.9085 3.76333C97.5987 3.86765 98.3025 4.09032 98.7689 4.5389C99.2096 4.96955 99.355 5.54981 99.3382 6.09947C99.355 6.72341 99.1022 7.37942 98.5231 7.80329C97.912 8.24505 97.0841 8.41616 96.2896 8.46355C95.5253 8.47723 94.763 8.46566 93.9988 8.46935C93.9988 6.86979 93.9988 5.26972 93.9988 3.66965ZM104.61 11.8691C104.017 10.8592 102.959 10.0563 101.735 9.56976C101.739 9.55501 101.745 9.52501 101.747 9.51026C102.64 8.87371 103.287 8.00442 103.537 7.05458C103.724 6.36433 103.681 5.6482 103.547 4.95378C103.375 4.27673 103.065 3.6191 102.595 3.04207C101.918 2.20531 100.948 1.53622 99.8484 1.09708C98.9638 0.759569 97.9925 0.618446 97.0307 0.523152C96.4453 0.489454 95.8611 0.4505 95.2757 0.442008C93.4056 0.436213 91.5336 0.441605 89.6616 0.439448C89.6616 7.04407 89.6616 13.6471 89.6616 20.2512C92.4117 20.2401 95.1619 20.2744 97.9102 20.2338C99.8612 20.1022 101.806 19.4872 103.216 18.3542C104.312 17.5012 105.052 16.3418 105.234 15.1108C105.369 14.013 105.207 12.8679 104.61 11.8691Z" fill="white"/>
<path d="M107.579 0.439469C112.537 0.439469 117.495 0.439469 122.453 0.440008C122.451 1.55363 122.459 2.66711 122.449 3.78073C118.942 3.78289 115.434 3.77386 111.926 3.78545C111.928 5.34549 111.928 6.90566 111.926 8.46515C115.255 8.47568 118.585 8.46673 121.914 8.46937C121.915 9.5661 121.914 10.6634 121.915 11.7585C118.586 11.7622 115.257 11.7559 111.928 11.7622C111.926 13.4776 111.929 15.194 111.926 16.9099C115.434 16.9221 118.943 16.9115 122.453 16.9152C122.454 18.0277 122.453 19.1387 122.453 20.2512C117.495 20.2512 112.537 20.2512 107.579 20.2512C107.579 13.6482 107.579 7.04409 107.579 0.439469Z" fill="white"/>
<path d="M132.302 11.7465C133.272 9.75516 134.249 7.76598 135.206 5.77052C136.174 7.76071 137.126 9.75674 138.102 11.7454C136.167 11.7507 134.235 11.7507 132.302 11.7465ZM136.94 0.484803C136.916 0.380478 136.763 0.40474 136.674 0.399482C135.693 0.401639 134.712 0.401639 133.733 0.399482C133.64 0.408379 133.502 0.377917 133.456 0.462699C130.168 7.05829 126.877 13.6535 123.591 20.2497C125.153 20.2539 126.715 20.2513 128.276 20.2513C129.093 18.5343 129.905 16.8152 130.72 15.0977C133.707 15.0993 136.694 15.0977 139.68 15.0993C140.494 16.8168 141.301 18.5375 142.122 20.2523C143.786 20.2486 145.45 20.255 147.115 20.2486C143.725 13.6603 140.331 7.07258 136.94 0.484803Z" fill="white"/>
<path d="M158.751 7.83493C158.528 8.47992 158.001 9.05067 157.294 9.39027C156.268 9.89572 155.034 10.0195 153.857 10.0184C153.4 10.0168 152.945 10.0168 152.49 10.0168C152.49 7.93867 152.49 5.85946 152.49 3.78022C153.73 3.78494 154.991 3.7228 156.203 3.99036C156.724 4.11611 157.241 4.27988 157.682 4.54636C158.246 4.87012 158.642 5.37086 158.809 5.9158C158.997 6.545 158.963 7.21314 158.751 7.83493ZM162.391 17.0158C161.37 15.4384 160.393 13.8393 159.502 12.2098C160.2 11.8886 160.848 11.49 161.402 11.0135C162.108 10.4275 162.609 9.69722 162.941 8.92324C163.626 7.1789 163.552 5.17339 162.434 3.55863C161.924 2.82875 161.192 2.20751 160.333 1.74681C159.041 1.03971 157.51 0.688988 155.983 0.521583C155.445 0.486807 154.909 0.434777 154.37 0.439495C152.291 0.441652 150.213 0.436799 148.133 0.442056C148.135 7.04466 148.135 13.6471 148.133 20.2497C149.587 20.2523 151.037 20.2539 152.49 20.2497C152.49 18.032 152.49 15.8138 152.49 13.5961C152.628 13.5945 152.769 13.5934 152.909 13.5882C153.266 13.5455 153.63 13.5655 153.989 13.5261C154.359 13.5008 154.722 13.4408 155.094 13.425C155.249 13.7567 155.447 14.0726 155.626 14.3948C156.753 16.3814 157.971 18.3331 159.276 20.247C161.08 20.2565 162.883 20.2523 164.687 20.2486C163.87 19.1956 163.111 18.1131 162.391 17.0158Z" fill="white"/>
<path d="M39.1141 0.439469C40.5635 0.439469 42.0116 0.439469 43.4615 0.439469C43.4615 5.90527 43.4603 11.3715 43.4615 16.8368C45.9441 16.8368 48.426 16.8368 50.9085 16.8368C50.9085 17.9751 50.9091 19.1139 50.9085 20.2512C46.9779 20.2512 43.046 20.2512 39.1141 20.2512C39.1134 13.6482 39.1141 7.04409 39.1141 0.439469Z" fill="white"/>
</g>
<defs>
<clipPath id="clip0">
<rect width="164.688" height="21" fill="white"/>
</clipPath>
</defs>
</svg>
