<svg width="170" height="33" viewBox="0 0 170 33" fill="none" xmlns="http://www.w3.org/2000/svg">
<path fill-rule="evenodd" clip-rule="evenodd" d="M11.0353 15.872V19.2409C11.0353 19.2853 11.0051 19.3194 10.9531 19.3367C10.8894 19.3634 10.8143 19.3428 10.7798 19.2935C10.5776 18.9867 10.4479 18.6293 10.4061 18.2529C10.2808 17.4155 10.4417 16.5542 10.8084 15.8052C10.8381 15.755 10.8894 15.7249 10.9431 15.7433C10.9963 15.7548 11.0353 15.872 11.0353 15.872ZM12.4928 5.41264C13.0042 5.44695 13.512 5.52014 14.0124 5.63166C14.4292 7.44299 13.8004 8.84858 13.5212 9.48594C13.3238 9.93658 13.0866 10.3757 12.8117 10.8003C12.8084 10.8003 12.8084 10.8003 12.8084 10.8003C12.7761 10.8446 12.7224 10.8718 12.6627 10.8718C12.5681 10.8718 12.4931 10.8107 12.4931 10.7362V5.41264H12.4928ZM10.2656 25.4167C9.19137 25.2692 8.2036 24.9591 7.22581 24.469C1.83571 21.7655 0.453014 15.938 2.3492 11.5294C3.3056 9.30452 5.27497 7.21046 7.98523 6.12447C8.97585 5.73132 10.0059 5.4966 11.0388 5.41866L11.0353 12.4952C10.9531 12.7832 10.806 13.0694 10.6059 13.3318C10.4517 13.5293 10.2825 13.7217 10.0927 13.9062C9.95009 14.0455 9.8049 14.1807 9.65544 14.3138C9.18686 14.7363 8.762 15.1762 8.38585 15.642C7.98499 16.147 7.6837 16.6946 7.49503 17.2602C7.42137 17.4641 7.36101 17.6683 7.31325 17.8738C6.88815 19.714 7.84147 21.9546 10.5976 22.2795C10.6739 22.2885 10.7511 22.2959 10.8297 22.302C10.8796 22.3049 10.925 22.3222 10.9557 22.3496C10.9892 22.3808 11.0042 22.417 10.9966 22.4511C10.9966 22.4511 10.9892 22.4883 10.9685 22.5896C10.7737 23.555 10.5308 24.5366 10.2656 25.4167ZM13.5671 4.37392C13.214 4.32263 12.8557 4.28612 12.4928 4.26532V3.19119C12.4928 3.13187 12.5413 3.08441 12.6121 3.06506C12.682 3.05046 12.7573 3.07766 12.7958 3.12311C12.8469 3.1879 12.8904 3.25032 12.9386 3.31567C13.0272 3.4385 13.1104 3.56207 13.1869 3.68527C13.3328 3.91871 13.459 4.14869 13.5671 4.37392ZM20.9061 10.874C19.5173 11.4398 18.6326 12.5802 18.5475 13.8086C18.4035 15.8902 20.6744 17.1104 22.6429 18.1432C22.7812 18.2159 22.9152 18.2854 23.0423 18.3519C23.7559 18.7242 24.7852 19.2855 25.1108 19.7961C25.2353 19.9966 25.294 20.2209 25.2533 20.4808C25.1621 21.0652 24.416 21.4348 23.6758 21.4335C23.2764 21.433 22.8636 21.349 22.5195 21.2183C21.5943 20.8677 20.827 20.4025 20.3033 19.7259C19.9528 19.2734 19.7045 18.8392 19.4887 18.3382H18.7391L19.0014 22.5746C19.0014 22.5746 19.0014 22.5746 19.0033 22.5746C17.3633 24.181 15.0809 25.3639 12.3407 25.505C12.4745 24.4745 12.5259 23.6543 12.5408 23.3498C12.5484 23.1954 12.5539 23.0435 12.557 22.8946C12.5629 22.711 12.5674 22.5285 12.5674 22.345C12.5674 22.2812 12.618 22.2311 12.6998 22.2178C13.7047 22.0141 14.6266 21.6544 15.4013 21.1608C16.438 20.4897 17.1461 19.6012 17.4179 18.6194C17.5481 18.1305 17.5374 17.6309 17.3775 17.1463C17.2502 16.7993 16.9976 16.4834 16.6487 16.2302C16.2191 15.915 15.6816 15.6829 15.0869 15.5619C14.889 15.5241 14.6827 15.5 14.4779 15.4885C14.1559 15.4794 13.8273 15.5 13.5141 15.5546C13.2107 15.6011 12.9887 15.7871 12.9804 16.0087C12.9785 16.1841 13.0766 16.3511 13.2601 16.4723C13.349 16.5226 13.4466 16.5617 13.5464 16.5924C13.7068 16.6447 13.8565 16.7081 13.9886 16.7888C14.1956 16.9156 14.342 17.0855 14.4166 17.2659C14.518 17.5404 14.5071 17.8226 14.3831 18.0903C14.2529 18.3878 14.0214 18.6601 13.7144 18.8841C13.449 19.0867 12.8338 19.4435 12.5855 19.3296C12.5299 19.3041 12.4928 19.2597 12.4928 19.2097V14.2134C12.9355 13.6355 13.1724 13.059 13.5787 12.4754C13.9019 12.018 14.2319 11.5665 14.5672 11.1179C15.8316 9.42662 16.5406 7.98837 16.6768 6.64027C17.8413 7.26686 18.7293 7.97285 19.5336 8.90663C20.0856 9.55512 20.5416 10.2073 20.9061 10.874ZM21.2347 22.137C22.8109 22.556 24.3385 22.8209 25.8916 22.3472C26.435 22.1815 26.9492 21.9274 27.4173 21.5671C28.3499 20.8491 28.8746 19.8188 28.8822 18.8082C28.8939 17.2566 27.7828 16.3755 26.2687 15.4837C25.1521 14.8261 23.6152 14.123 22.6029 13.4078C22.0728 13.0329 21.6275 12.3889 22.3159 11.9167C22.7065 11.649 23.3564 11.5849 23.8473 11.6556C24.2924 11.7198 24.7546 11.8737 25.1557 12.0723C26.1955 12.5548 26.9143 13.6914 27.3757 14.5348H28.1183L27.8709 10.5033H27.1581C27.1581 10.5033 26.7643 11.081 26.2903 11.1064C26.0531 11.1191 25.7972 11.0167 25.4429 10.8809C25.2778 10.8174 25.1089 10.7619 24.9375 10.7141C24.1681 10.4993 23.2333 10.4279 22.3428 10.5248C21.1376 8.18476 19.1028 6.30352 16.6043 5.23012C16.4211 4.35439 15.9768 3.49326 15.2668 2.59727C15.0921 2.3766 14.8994 2.15429 14.6882 1.92997C14.2272 1.44009 12.7917 -0.014234 11.8543 0.0113188C11.6878 0.0158818 11.5041 0.0423459 11.3727 0.0898012C11.2662 0.135796 11.1802 0.205154 11.1356 0.290756C11.0904 0.372707 11.0593 0.456303 11.051 0.546286C11.0355 0.634443 11.0453 0.726432 11.0415 0.82116L11.0396 4.26678C4.88623 4.62981 0.0131836 9.5042 0.0131836 15.464C0.0131836 21.0491 4.29219 25.6808 9.89401 26.5403C9.69679 27.078 9.49362 27.5396 9.29355 27.884L9.0709 28.2673C8.7304 28.8119 8.36304 29.2485 7.98024 29.5396C7.88092 29.6145 7.77684 29.6824 7.66326 29.7499C7.4803 29.863 7.27975 29.9636 7.06589 30.0501C6.86344 30.1259 6.64127 30.1843 6.41862 30.221C6.2991 30.2379 6.17839 30.242 6.0622 30.2312C5.87258 30.2117 5.71266 30.1363 5.60978 30.0224C5.51021 29.9154 5.48099 29.7745 5.52637 29.6466C5.59053 29.4956 5.70506 29.3553 5.86901 29.2485C6.09142 29.0986 6.39035 29.0052 6.69877 28.9994C6.80023 28.9933 6.90265 28.9952 7.00269 29.0041C7.12862 29.0127 7.25575 29.0127 7.38264 29.0041C7.48006 28.9972 7.57083 28.9745 7.65851 28.9426C7.82579 28.8643 7.92084 28.734 7.91276 28.588C7.91656 28.5265 7.89351 28.4644 7.83648 28.4153C7.76805 28.3472 7.67823 28.2919 7.57724 28.2549C7.27143 28.143 6.94257 28.0765 6.60586 28.0612C6.21807 28.0408 5.83409 28.0685 5.4615 28.1428C5.03355 28.2205 4.62319 28.347 4.25393 28.5157L3.93054 28.6641C3.5456 28.8508 3.22006 29.0879 2.97579 29.3637C2.68376 29.7006 2.5198 30.0837 2.5084 30.4774C2.43806 32.9062 6.54812 33.4415 8.67788 32.6415C11.2724 31.6671 11.7919 28.8714 12.1632 26.6773C15.881 26.5627 19.1632 24.8032 21.2347 22.137Z" fill="white"/>
<path d="M11.0353 15.872V19.2409C11.0353 19.2853 11.0051 19.3194 10.9531 19.3367C10.8894 19.3634 10.8143 19.3428 10.7798 19.2935C10.5776 18.9867 10.4479 18.6293 10.4061 18.2529C10.2808 17.4155 10.4417 16.5542 10.8084 15.8052C10.8381 15.755 10.8894 15.7249 10.9431 15.7433C10.9963 15.7548 11.0353 15.872 11.0353 15.872ZM12.4928 5.41264C13.0042 5.44695 13.512 5.52014 14.0124 5.63166C14.4292 7.44299 13.8004 8.84858 13.5212 9.48594C13.3238 9.93658 13.0866 10.3757 12.8117 10.8003C12.8084 10.8003 12.8084 10.8003 12.8084 10.8003C12.7761 10.8446 12.7224 10.8718 12.6627 10.8718C12.5681 10.8718 12.4931 10.8107 12.4931 10.7362V5.41264H12.4928ZM10.2656 25.4167C9.19137 25.2692 8.2036 24.9591 7.22581 24.469C1.83571 21.7655 0.453014 15.938 2.3492 11.5294C3.3056 9.30452 5.27497 7.21046 7.98523 6.12447C8.97585 5.73132 10.0059 5.4966 11.0388 5.41866L11.0353 12.4952C10.9531 12.7832 10.806 13.0694 10.6059 13.3318C10.4517 13.5293 10.2825 13.7217 10.0927 13.9062C9.95009 14.0455 9.8049 14.1807 9.65544 14.3138C9.18686 14.7363 8.762 15.1762 8.38585 15.642C7.98499 16.147 7.6837 16.6946 7.49503 17.2602C7.42137 17.4641 7.36101 17.6683 7.31325 17.8738C6.88815 19.714 7.84147 21.9546 10.5976 22.2795C10.6739 22.2885 10.7511 22.2959 10.8297 22.302C10.8796 22.3049 10.925 22.3222 10.9557 22.3496C10.9892 22.3808 11.0042 22.417 10.9966 22.4511C10.9966 22.4511 10.9892 22.4883 10.9685 22.5896C10.7737 23.555 10.5308 24.5366 10.2656 25.4167ZM13.5671 4.37392C13.214 4.32263 12.8557 4.28612 12.4928 4.26532V3.19119C12.4928 3.13187 12.5413 3.08441 12.6121 3.06506C12.682 3.05046 12.7573 3.07766 12.7958 3.12311C12.8469 3.1879 12.8904 3.25032 12.9386 3.31567C13.0272 3.4385 13.1104 3.56207 13.1869 3.68527C13.3328 3.91871 13.459 4.14869 13.5671 4.37392ZM20.9061 10.874C19.5173 11.4398 18.6326 12.5802 18.5475 13.8086C18.4035 15.8902 20.6744 17.1104 22.6429 18.1432C22.7812 18.2159 22.9152 18.2854 23.0423 18.3519C23.7559 18.7242 24.7852 19.2855 25.1108 19.7961C25.2353 19.9966 25.294 20.2209 25.2533 20.4808C25.1621 21.0652 24.416 21.4348 23.6758 21.4335C23.2764 21.433 22.8636 21.349 22.5195 21.2183C21.5943 20.8677 20.827 20.4025 20.3033 19.7259C19.9528 19.2734 19.7045 18.8392 19.4887 18.3382H18.7391L19.0014 22.5746C19.0014 22.5746 19.0014 22.5746 19.0033 22.5746C17.3633 24.181 15.0809 25.3639 12.3407 25.505C12.4745 24.4745 12.5259 23.6543 12.5408 23.3498C12.5484 23.1954 12.5539 23.0435 12.557 22.8946C12.5629 22.711 12.5674 22.5285 12.5674 22.345C12.5674 22.2812 12.618 22.2311 12.6998 22.2178C13.7047 22.0141 14.6266 21.6544 15.4013 21.1608C16.438 20.4897 17.1461 19.6012 17.4179 18.6194C17.5481 18.1305 17.5374 17.6309 17.3775 17.1463C17.2502 16.7993 16.9976 16.4834 16.6487 16.2302C16.2191 15.915 15.6816 15.6829 15.0869 15.5619C14.889 15.5241 14.6827 15.5 14.4779 15.4885C14.1559 15.4794 13.8273 15.5 13.5141 15.5546C13.2107 15.6011 12.9887 15.7871 12.9804 16.0087C12.9785 16.1841 13.0766 16.3511 13.2601 16.4723C13.349 16.5226 13.4466 16.5617 13.5464 16.5924C13.7068 16.6447 13.8565 16.7081 13.9886 16.7888C14.1956 16.9156 14.342 17.0855 14.4166 17.2659C14.518 17.5404 14.5071 17.8226 14.3831 18.0903C14.2529 18.3878 14.0214 18.6601 13.7144 18.8841C13.449 19.0867 12.8338 19.4435 12.5855 19.3296C12.5299 19.3041 12.4928 19.2597 12.4928 19.2097V14.2134C12.9355 13.6355 13.1724 13.059 13.5787 12.4754C13.9019 12.018 14.2319 11.5665 14.5672 11.1179C15.8316 9.42662 16.5406 7.98837 16.6768 6.64027C17.8413 7.26686 18.7293 7.97285 19.5336 8.90663C20.0856 9.55512 20.5416 10.2073 20.9061 10.874ZM21.2347 22.137C22.8109 22.556 24.3385 22.8209 25.8916 22.3472C26.435 22.1815 26.9492 21.9274 27.4173 21.5671C28.3499 20.8491 28.8746 19.8188 28.8822 18.8082C28.8939 17.2566 27.7828 16.3755 26.2687 15.4837C25.1521 14.8261 23.6152 14.123 22.6029 13.4078C22.0728 13.0329 21.6275 12.3889 22.3159 11.9167C22.7065 11.649 23.3564 11.5849 23.8473 11.6556C24.2924 11.7198 24.7546 11.8737 25.1557 12.0723C26.1955 12.5548 26.9143 13.6914 27.3757 14.5348H28.1183L27.8709 10.5033H27.1581C27.1581 10.5033 26.7643 11.081 26.2903 11.1064C26.0531 11.1191 25.7972 11.0167 25.4429 10.8809C25.2778 10.8174 25.1089 10.7619 24.9375 10.7141C24.1681 10.4993 23.2333 10.4279 22.3428 10.5248C21.1376 8.18476 19.1028 6.30352 16.6043 5.23012C16.4211 4.35439 15.9768 3.49326 15.2668 2.59727C15.0921 2.3766 14.8994 2.15429 14.6882 1.92997C14.2272 1.44009 12.7917 -0.014234 11.8543 0.0113188C11.6878 0.0158818 11.5041 0.0423459 11.3727 0.0898012C11.2662 0.135796 11.1802 0.205154 11.1356 0.290756C11.0904 0.372707 11.0593 0.456303 11.051 0.546286C11.0355 0.634443 11.0453 0.726432 11.0415 0.82116L11.0396 4.26678C4.88623 4.62981 0.0131836 9.5042 0.0131836 15.464C0.0131836 21.0491 4.29219 25.6808 9.89401 26.5403C9.69679 27.078 9.49362 27.5396 9.29355 27.884L9.0709 28.2673C8.7304 28.8119 8.36304 29.2485 7.98024 29.5396C7.88092 29.6145 7.77684 29.6824 7.66326 29.7499C7.4803 29.863 7.27975 29.9636 7.06589 30.0501C6.86344 30.1259 6.64127 30.1843 6.41862 30.221C6.2991 30.2379 6.17839 30.242 6.0622 30.2312C5.87258 30.2117 5.71266 30.1363 5.60978 30.0224C5.51021 29.9154 5.48099 29.7745 5.52637 29.6466C5.59053 29.4956 5.70506 29.3553 5.86901 29.2485C6.09142 29.0986 6.39035 29.0052 6.69877 28.9994C6.80023 28.9933 6.90265 28.9952 7.00269 29.0041C7.12862 29.0127 7.25575 29.0127 7.38264 29.0041C7.48006 28.9972 7.57083 28.9745 7.65851 28.9426C7.82579 28.8643 7.92084 28.734 7.91276 28.588C7.91656 28.5265 7.89351 28.4644 7.83648 28.4153C7.76805 28.3472 7.67823 28.2919 7.57724 28.2549C7.27143 28.143 6.94257 28.0765 6.60586 28.0612C6.21807 28.0408 5.83409 28.0685 5.4615 28.1428C5.03355 28.2205 4.62319 28.347 4.25393 28.5157L3.93054 28.6641C3.5456 28.8508 3.22006 29.0879 2.97579 29.3637C2.68376 29.7006 2.5198 30.0837 2.5084 30.4774C2.43806 32.9062 6.54812 33.4415 8.67788 32.6415C11.2724 31.6671 11.7919 28.8714 12.1632 26.6773C15.881 26.5627 19.1632 24.8032 21.2347 22.137Z" fill="white"/>
<path fill-rule="evenodd" clip-rule="evenodd" d="M135.284 11.8326C135.403 11.8565 135.502 11.8846 135.613 11.927C135.732 11.9715 135.822 12.0248 135.908 12.1011C136.001 12.1975 136.058 12.2915 136.094 12.4081C136.137 12.5401 136.165 12.6534 136.188 12.7885C136.227 13.0606 136.243 13.2921 136.24 13.566V19.5795C136.241 19.9314 136.222 20.3996 136.083 20.7462C136.054 20.819 136.016 20.8776 135.957 20.9386C135.794 21.078 135.618 21.1695 135.389 21.2324C135.08 21.3171 134.832 21.3365 134.499 21.3407V22.2735H142.59V21.3434C142.176 21.3326 141.457 21.2737 141.163 20.994C141.071 20.8979 141.014 20.855 140.979 20.7387C140.936 20.6064 140.908 20.4932 140.886 20.358C140.847 20.0856 140.831 19.854 140.834 19.5801V10.818H134.499V11.751C134.777 11.7587 135.012 11.783 135.284 11.8326Z" fill="white"/>
<path d="M135.284 11.8326C135.403 11.8565 135.502 11.8846 135.613 11.927C135.732 11.9715 135.822 12.0248 135.908 12.1011C136.001 12.1975 136.058 12.2915 136.094 12.4081C136.137 12.5401 136.165 12.6534 136.188 12.7885C136.227 13.0606 136.243 13.2921 136.24 13.566V19.5795C136.241 19.9314 136.222 20.3996 136.083 20.7462C136.054 20.819 136.016 20.8776 135.957 20.9386C135.794 21.078 135.618 21.1695 135.389 21.2324C135.08 21.3171 134.832 21.3365 134.499 21.3407V22.2735H142.59V21.3434C142.176 21.3326 141.457 21.2737 141.163 20.994C141.071 20.8979 141.014 20.855 140.979 20.7387C140.936 20.6064 140.908 20.4932 140.886 20.358C140.847 20.0856 140.831 19.854 140.834 19.5801V10.818H134.499V11.751C134.777 11.7587 135.012 11.783 135.284 11.8326Z" fill="white"/>
<path fill-rule="evenodd" clip-rule="evenodd" d="M151.485 11.8545C151.917 11.9602 152.051 12.1254 152.052 12.1256C152.3 12.3831 152.333 13.2179 152.331 13.6607V19.1714C152.136 19.3853 151.962 19.5607 151.745 19.762C151.494 19.9935 151.22 20.22 150.892 20.3894C150.6 20.5379 150.302 20.6058 149.952 20.6025C149.705 20.6016 149.485 20.554 149.285 20.4403C148.932 20.2388 148.811 19.9075 148.776 19.5868C148.759 19.4483 148.748 19.3309 148.739 19.192C148.724 18.9241 148.719 18.6978 148.719 18.4296V10.818H142.556V11.7428C142.814 11.764 143.03 11.7974 143.279 11.8545C143.471 11.8998 143.714 11.9892 143.845 12.1256C144.094 12.3833 144.127 13.2179 144.125 13.6607V17.8293C144.123 18.5143 144.149 19.1006 144.244 19.7648C144.284 20.0601 144.347 20.3072 144.457 20.592L144.458 20.5941C144.696 21.1758 145.176 21.6374 145.78 22.0063C146.446 22.4212 147.181 22.6181 148.04 22.6115C149.415 22.6083 150.52 22.2573 151.54 21.5442C151.834 21.3399 152.07 21.1563 152.332 20.9274V22.2733H158.494V21.406C158.236 21.3881 158.021 21.3565 157.772 21.3005C157.58 21.2554 157.344 21.166 157.213 21.0307C156.958 20.7666 156.924 19.9276 156.926 19.4777V10.8176H150.762V11.7425C151.02 11.764 151.236 11.7974 151.485 11.8545Z" fill="white"/>
<path d="M151.485 11.8545C151.917 11.9602 152.051 12.1254 152.052 12.1256C152.3 12.3831 152.333 13.2179 152.331 13.6607V19.1714C152.136 19.3853 151.962 19.5607 151.745 19.762C151.494 19.9935 151.22 20.22 150.892 20.3894C150.6 20.5379 150.302 20.6058 149.952 20.6025C149.705 20.6016 149.485 20.554 149.285 20.4403C148.932 20.2388 148.811 19.9075 148.776 19.5868C148.759 19.4483 148.748 19.3309 148.739 19.192C148.724 18.9241 148.719 18.6978 148.719 18.4296V10.818H142.556V11.7428C142.814 11.764 143.03 11.7974 143.279 11.8545C143.471 11.8998 143.714 11.9892 143.845 12.1256C144.094 12.3833 144.127 13.2179 144.125 13.6607V17.8293C144.123 18.5143 144.149 19.1006 144.244 19.7648C144.284 20.0601 144.347 20.3072 144.457 20.592L144.458 20.5941C144.696 21.1758 145.176 21.6374 145.78 22.0063C146.446 22.4212 147.181 22.6181 148.04 22.6115C149.415 22.6083 150.52 22.2573 151.54 21.5442C151.834 21.3399 152.07 21.1563 152.332 20.9274V22.2733H158.494V21.406C158.236 21.3881 158.021 21.3565 157.772 21.3005C157.58 21.2554 157.344 21.166 157.213 21.0307C156.958 20.7666 156.924 19.9276 156.926 19.4777V10.8176H150.762V11.7425C151.02 11.764 151.236 11.7974 151.485 11.8545Z" fill="white"/>
<path fill-rule="evenodd" clip-rule="evenodd" d="M113.814 16.2283V16.7631C113.814 17.6614 113.814 19.3908 113.814 19.3908C113.677 19.4706 113.546 19.5392 113.409 19.6036C113 19.7947 112.58 19.9466 112.09 19.9431C111.334 19.9377 110.685 19.5575 110.655 18.902C110.636 18.501 110.884 18.0851 111.235 17.7593C111.819 17.2183 112.596 16.7742 113.421 16.4041L113.814 16.2283ZM113.848 20.7008C113.896 20.9025 113.959 21.0698 114.059 21.2598C114.207 21.542 114.409 21.7579 114.71 21.9558C114.992 22.1379 115.277 22.2513 115.633 22.3237C116.01 22.4026 116.342 22.4347 116.733 22.4309C118.481 22.4249 119.598 21.753 120.478 20.7289L119.738 20.2136C119.566 20.402 119.145 20.7099 118.795 20.6241C118.586 20.5726 118.442 20.3825 118.415 20.0435C118.398 19.8267 118.391 19.6626 118.392 19.4339L118.392 15.0578C118.393 14.7033 118.387 14.404 118.371 14.0499C118.36 13.7214 118.333 13.4445 118.281 13.1185C118.262 12.9986 118.219 12.8141 118.168 12.6996C118.02 12.3815 117.829 12.1296 117.543 11.8728C116.859 11.2575 116.028 10.8244 115.024 10.6384C114.401 10.5227 113.859 10.4753 113.218 10.4809C112.025 10.4784 111.013 10.6079 109.885 10.9075C109.412 11.031 109.026 11.1668 108.595 11.3618C108.107 11.5813 107.734 11.8188 107.363 12.1459C107.092 12.3815 106.901 12.606 106.728 12.8902C106.712 12.9161 106.697 12.9426 106.682 12.9694C106.19 13.8669 106.523 14.7241 107.391 15.17C108.301 15.6375 109.702 15.6116 110.491 15.0112C111.264 14.4228 111.195 13.5323 110.461 12.9473C110.026 12.6005 109.877 12.3629 110.198 12.1378C110.346 12.0338 110.541 11.9482 110.762 11.8814C111.67 11.6062 113.391 11.531 113.7 12.5157C113.724 12.5899 113.739 12.664 113.748 12.7464C113.766 12.89 113.779 13.0116 113.791 13.1558C113.808 13.4319 113.815 13.6653 113.814 13.9419V14.9981C112.821 15.35 111.992 15.6628 111.023 16.0516C110.17 16.3938 109.363 16.7472 108.571 17.159C107.232 17.8536 106.154 18.7907 106.151 20.1194C106.15 20.78 106.432 21.3275 107.012 21.7707C107.605 22.2232 108.358 22.4391 109.165 22.4309C109.621 22.428 110.006 22.3825 110.442 22.2803C110.909 22.1708 111.292 22.0465 111.719 21.8652C112.491 21.5396 113.187 21.1428 113.848 20.7008Z" fill="white"/>
<path d="M113.814 16.2283V16.7631C113.814 17.6614 113.814 19.3908 113.814 19.3908C113.677 19.4706 113.546 19.5392 113.409 19.6036C113 19.7947 112.58 19.9466 112.09 19.9431C111.334 19.9377 110.685 19.5575 110.655 18.902C110.636 18.501 110.884 18.0851 111.235 17.7593C111.819 17.2183 112.596 16.7742 113.421 16.4041L113.814 16.2283ZM113.848 20.7008C113.896 20.9025 113.959 21.0698 114.059 21.2598C114.207 21.542 114.409 21.7579 114.71 21.9558C114.992 22.1379 115.277 22.2513 115.633 22.3237C116.01 22.4026 116.342 22.4347 116.733 22.4309C118.481 22.4249 119.598 21.753 120.478 20.7289L119.738 20.2136C119.566 20.402 119.145 20.7099 118.795 20.6241C118.586 20.5726 118.442 20.3825 118.415 20.0435C118.398 19.8267 118.391 19.6626 118.392 19.4339L118.392 15.0578C118.393 14.7033 118.387 14.404 118.371 14.0499C118.36 13.7214 118.333 13.4445 118.281 13.1185C118.262 12.9986 118.219 12.8141 118.168 12.6996C118.02 12.3815 117.829 12.1296 117.543 11.8728C116.859 11.2575 116.028 10.8244 115.024 10.6384C114.401 10.5227 113.859 10.4753 113.218 10.4809C112.025 10.4784 111.013 10.6079 109.885 10.9075C109.412 11.031 109.026 11.1668 108.595 11.3618C108.107 11.5813 107.734 11.8188 107.363 12.1459C107.092 12.3815 106.901 12.606 106.728 12.8902C106.712 12.9161 106.697 12.9426 106.682 12.9694C106.19 13.8669 106.523 14.7241 107.391 15.17C108.301 15.6375 109.702 15.6116 110.491 15.0112C111.264 14.4228 111.195 13.5323 110.461 12.9473C110.026 12.6005 109.877 12.3629 110.198 12.1378C110.346 12.0338 110.541 11.9482 110.762 11.8814C111.67 11.6062 113.391 11.531 113.7 12.5157C113.724 12.5899 113.739 12.664 113.748 12.7464C113.766 12.89 113.779 13.0116 113.791 13.1558C113.808 13.4319 113.815 13.6653 113.814 13.9419V14.9981C112.821 15.35 111.992 15.6628 111.023 16.0516C110.17 16.3938 109.363 16.7472 108.571 17.159C107.232 17.8536 106.154 18.7907 106.151 20.1194C106.15 20.78 106.432 21.3275 107.012 21.7707C107.605 22.2232 108.358 22.4391 109.165 22.4309C109.621 22.428 110.006 22.3825 110.442 22.2803C110.909 22.1708 111.292 22.0465 111.719 21.8652C112.491 21.5396 113.187 21.1428 113.848 20.7008Z" fill="white"/>
<path fill-rule="evenodd" clip-rule="evenodd" d="M101.136 10.8181V11.7473C101.278 11.7488 101.406 11.7544 101.536 11.765C102.369 11.8337 102.802 12.056 102.658 12.7426C102.513 13.4333 101.934 14.4304 101.765 14.7554L100.198 17.6708L97.8921 13.7087C97.5687 12.931 96.7463 12.018 98.0679 11.7869C98.2792 11.7501 98.5134 11.749 98.7173 11.7512V10.8181H90.751V11.698C91.1506 11.7517 91.6537 11.8629 91.9279 12.1045C92.0909 12.2524 92.2121 12.3878 92.3335 12.5575C92.4625 12.7338 92.5668 12.8846 92.6852 13.0653C92.9102 13.4178 93.0903 13.7193 93.2911 14.0803L98.1271 22.6118H99.0181L103.899 13.8098C104.132 13.3825 104.409 13.0797 104.698 12.6612C104.766 12.5654 104.826 12.4853 104.899 12.3914C104.982 12.2817 105.066 12.1952 105.179 12.1029C105.319 11.9987 105.457 11.9257 105.634 11.8625C105.873 11.778 106.067 11.7481 106.332 11.7216V10.8181H101.136Z" fill="white"/>
<path d="M101.136 10.8181V11.7473C101.278 11.7488 101.406 11.7544 101.536 11.765C102.369 11.8337 102.802 12.056 102.658 12.7426C102.513 13.4333 101.934 14.4304 101.765 14.7554L100.198 17.6708L97.8921 13.7087C97.5687 12.931 96.7463 12.018 98.0679 11.7869C98.2792 11.7501 98.5134 11.749 98.7173 11.7512V10.8181H90.751V11.698C91.1506 11.7517 91.6537 11.8629 91.9279 12.1045C92.0909 12.2524 92.2121 12.3878 92.3335 12.5575C92.4625 12.7338 92.5668 12.8846 92.6852 13.0653C92.9102 13.4178 93.0903 13.7193 93.2911 14.0803L98.1271 22.6118H99.0181L103.899 13.8098C104.132 13.3825 104.409 13.0797 104.698 12.6612C104.766 12.5654 104.826 12.4853 104.899 12.3914C104.982 12.2817 105.066 12.1952 105.179 12.1029C105.319 11.9987 105.457 11.9257 105.634 11.8625C105.873 11.778 106.067 11.7481 106.332 11.7216V10.8181H101.136Z" fill="white"/>
<path fill-rule="evenodd" clip-rule="evenodd" d="M84.0851 11.8326C84.2049 11.8565 84.3035 11.8846 84.4142 11.927C84.5328 11.9715 84.6231 12.0248 84.7096 12.1011C84.8025 12.1975 84.8593 12.2915 84.8952 12.4081C84.9384 12.5401 84.9664 12.6534 84.9893 12.7885C85.0287 13.0606 85.0444 13.2921 85.0413 13.566V19.5795C85.0427 19.9314 85.0232 20.3996 84.884 20.7462C84.8557 20.819 84.8172 20.8776 84.7578 20.9386C84.5958 21.078 84.4192 21.1694 84.1902 21.2324C83.881 21.3171 83.6332 21.3365 83.2998 21.3406V22.2759H91.3919V21.3434C90.9772 21.3326 90.2584 21.2737 89.9647 20.994C89.8718 20.8979 89.8155 20.855 89.7801 20.7387C89.7373 20.6064 89.7095 20.4932 89.6872 20.358C89.648 20.0856 89.6325 19.854 89.6356 19.5801V10.818H83.2998V11.751C83.5788 11.7587 83.8135 11.783 84.0851 11.8326Z" fill="white"/>
<path d="M84.0851 11.8326C84.2049 11.8565 84.3035 11.8846 84.4142 11.927C84.5328 11.9715 84.6231 12.0248 84.7096 12.1011C84.8025 12.1975 84.8593 12.2915 84.8952 12.4081C84.9384 12.5401 84.9664 12.6534 84.9893 12.7885C85.0287 13.0606 85.0444 13.2921 85.0413 13.566V19.5795C85.0427 19.9314 85.0232 20.3996 84.884 20.7462C84.8557 20.819 84.8172 20.8776 84.7578 20.9386C84.5958 21.078 84.4192 21.1694 84.1902 21.2324C83.881 21.3171 83.6332 21.3365 83.2998 21.3406V22.2759H91.3919V21.3434C90.9772 21.3326 90.2584 21.2737 89.9647 20.994C89.8718 20.8979 89.8155 20.855 89.7801 20.7387C89.7373 20.6064 89.7095 20.4932 89.6872 20.358C89.648 20.0856 89.6325 19.854 89.6356 19.5801V10.818H83.2998V11.751C83.5788 11.7587 83.8135 11.783 84.0851 11.8326Z" fill="white"/>
<path fill-rule="evenodd" clip-rule="evenodd" d="M76.2139 13.4523V19.1613C76.0873 19.3296 75.9721 19.4683 75.8262 19.6277C75.6546 19.816 75.4928 19.9664 75.2834 20.1321C75.0803 20.2935 74.8823 20.412 74.6279 20.5255C74.2206 20.7065 73.7496 20.7509 73.2965 20.6697C73.1271 20.6396 72.9909 20.5897 72.8555 20.508C72.5817 20.3271 72.3876 20.1418 72.2189 19.9C72.0326 19.6351 71.9045 19.3997 71.7905 19.1128C71.6942 18.8677 71.632 18.6565 71.5816 18.4039C71.5272 18.1345 71.492 17.9058 71.4635 17.634C71.412 17.0863 71.3903 16.6225 71.3908 16.0736C71.3887 15.6255 71.4041 15.247 71.4424 14.7996C71.5082 14.0553 71.6353 13.3597 72.0678 12.6789C72.2075 12.4592 72.3995 12.2347 72.6537 12.0722C73.0919 11.7923 73.8109 11.8235 74.3168 11.9682C75.1867 12.2175 75.8062 12.8635 76.2139 13.4523ZM74.87 6.69282C75.3647 6.72768 75.5519 6.81803 75.5769 6.82861C75.819 6.94269 75.982 7.094 76.0823 7.29806C76.2142 7.57512 76.2135 8.52222 76.2139 8.82046V11.6709C76.0329 11.525 75.8732 11.4066 75.6772 11.2726C75.3554 11.0487 75.052 10.8857 74.6673 10.7304C74.0899 10.4998 73.4134 10.4799 72.7611 10.4808C71.6294 10.4827 70.5817 10.7491 69.6697 11.2321C69.1527 11.5042 68.7625 11.7877 68.38 12.1688C67.966 12.5826 67.6747 12.9675 67.4121 13.4486C66.819 14.5246 66.5962 15.6064 66.5947 16.7448C66.5924 18.4183 67.1441 20.1243 68.6601 21.3758C69.6659 22.2059 70.9429 22.6141 72.4199 22.6119C73.3856 22.6102 74.2249 22.4027 74.9717 21.9413C75.4046 21.6741 75.8433 21.3277 76.2139 20.9936V22.2758H82.6025V21.3408C81.178 21.2818 80.8779 21.0281 80.8254 19.9465C80.8104 19.6423 80.8057 19.3625 80.809 19.0425V5.7439H74.1167V6.67274C74.3817 6.67001 74.6058 6.67585 74.87 6.69282Z" fill="white"/>
<path d="M76.2139 13.4523V19.1613C76.0873 19.3296 75.9721 19.4683 75.8262 19.6277C75.6546 19.816 75.4928 19.9664 75.2834 20.1321C75.0803 20.2935 74.8823 20.412 74.6279 20.5255C74.2206 20.7065 73.7496 20.7509 73.2965 20.6697C73.1271 20.6396 72.9909 20.5897 72.8555 20.508C72.5817 20.3271 72.3876 20.1418 72.2189 19.9C72.0326 19.6351 71.9045 19.3997 71.7905 19.1128C71.6942 18.8677 71.632 18.6565 71.5816 18.4039C71.5272 18.1345 71.492 17.9058 71.4635 17.634C71.412 17.0863 71.3903 16.6225 71.3908 16.0736C71.3887 15.6255 71.4041 15.247 71.4424 14.7996C71.5082 14.0553 71.6353 13.3597 72.0678 12.6789C72.2075 12.4592 72.3995 12.2347 72.6537 12.0722C73.0919 11.7923 73.8109 11.8235 74.3168 11.9682C75.1867 12.2175 75.8062 12.8635 76.2139 13.4523ZM74.87 6.69282C75.3647 6.72768 75.5519 6.81803 75.5769 6.82861C75.819 6.94269 75.982 7.094 76.0823 7.29806C76.2142 7.57512 76.2135 8.52222 76.2139 8.82046V11.6709C76.0329 11.525 75.8732 11.4066 75.6772 11.2726C75.3554 11.0487 75.052 10.8857 74.6673 10.7304C74.0899 10.4998 73.4134 10.4799 72.7611 10.4808C71.6294 10.4827 70.5817 10.7491 69.6697 11.2321C69.1527 11.5042 68.7625 11.7877 68.38 12.1688C67.966 12.5826 67.6747 12.9675 67.4121 13.4486C66.819 14.5246 66.5962 15.6064 66.5947 16.7448C66.5924 18.4183 67.1441 20.1243 68.6601 21.3758C69.6659 22.2059 70.9429 22.6141 72.4199 22.6119C73.3856 22.6102 74.2249 22.4027 74.9717 21.9413C75.4046 21.6741 75.8433 21.3277 76.2139 20.9936V22.2758H82.6025V21.3408C81.178 21.2818 80.8779 21.0281 80.8254 19.9465C80.8104 19.6423 80.8057 19.3625 80.809 19.0425V5.7439H74.1167V6.67274C74.3817 6.67001 74.6058 6.67585 74.87 6.69282Z" fill="white"/>
<path fill-rule="evenodd" clip-rule="evenodd" d="M60.2586 16.2283V16.7631C60.2586 17.6614 60.2586 19.3908 60.2586 19.3908C60.1213 19.4706 59.9908 19.5392 59.853 19.6036C59.4441 19.7947 59.0242 19.9466 58.534 19.9431C57.7789 19.9377 57.1295 19.5575 57.099 18.902C57.0803 18.501 57.3279 18.0851 57.6795 17.7593C58.2638 17.2183 59.0401 16.7742 59.8659 16.4041L60.2586 16.2283ZM60.2931 20.7008C60.3404 20.9025 60.4036 21.0698 60.5039 21.2598C60.6519 21.542 60.8541 21.7579 61.1549 21.9558C61.4367 22.1379 61.7212 22.2513 62.0776 22.3237C62.4549 22.4026 62.7864 22.4347 63.1773 22.4309C64.9259 22.4249 66.043 21.753 66.9228 20.7289L66.1829 20.2136C66.0111 20.402 65.5898 20.7099 65.2403 20.6241C65.0302 20.5726 64.8865 20.3825 64.8594 20.0435C64.8423 19.8267 64.8356 19.6626 64.8368 19.4339V15.0578C64.838 14.7033 64.8316 14.404 64.8157 14.0499C64.8047 13.7214 64.7776 13.4445 64.7254 13.1185C64.7066 12.9986 64.6633 12.8141 64.6123 12.6996C64.464 12.3815 64.2739 12.1296 63.9878 11.8728C63.3035 11.2575 62.4725 10.8244 61.4683 10.6384C60.846 10.5227 60.3038 10.4753 59.6632 10.4809C58.4696 10.4784 57.4581 10.6079 56.3299 10.9075C55.8565 11.031 55.4704 11.1668 55.0394 11.3618C54.5518 11.5813 54.1785 11.8188 53.8073 12.1459C53.5372 12.3815 53.3459 12.606 53.1727 12.8902C53.157 12.9161 53.1418 12.9426 53.127 12.9694C52.6342 13.8669 52.9681 14.7241 53.8356 15.17C54.7454 15.6375 56.1469 15.6116 56.936 15.0112C57.7092 14.4228 57.6394 13.5323 56.9056 12.9473C56.471 12.6005 56.3218 12.3631 56.6421 12.1378C56.7901 12.0338 56.9857 11.9482 57.2064 11.8814C58.1149 11.6062 59.8359 11.531 60.1451 12.5157C60.1683 12.5899 60.1835 12.664 60.1926 12.7464C60.2111 12.89 60.2239 13.0116 60.2356 13.1558C60.2529 13.4319 60.2598 13.6653 60.2584 13.9419V14.9981C59.2656 15.35 58.4371 15.6628 57.4683 16.0516C56.6143 16.3938 55.8081 16.7472 55.0154 17.159C53.6771 17.8536 52.5993 18.7907 52.5962 20.1194C52.5945 20.78 52.8763 21.3275 53.4564 21.7707C54.0492 22.2232 54.8027 22.4391 55.6101 22.4309C56.0656 22.428 56.4508 22.3825 56.8864 22.2803C57.354 22.1708 57.7363 22.0465 58.1643 21.8652C58.9351 21.5396 59.6311 21.1428 60.2931 20.7008Z" fill="white"/>
<path d="M60.2586 16.2283V16.7631C60.2586 17.6614 60.2586 19.3908 60.2586 19.3908C60.1213 19.4706 59.9908 19.5392 59.853 19.6036C59.4441 19.7947 59.0242 19.9466 58.534 19.9431C57.7789 19.9377 57.1295 19.5575 57.099 18.902C57.0803 18.501 57.3279 18.0851 57.6795 17.7593C58.2638 17.2183 59.0401 16.7742 59.8659 16.4041L60.2586 16.2283ZM60.2931 20.7008C60.3404 20.9025 60.4036 21.0698 60.5039 21.2598C60.6519 21.542 60.8541 21.7579 61.1549 21.9558C61.4367 22.1379 61.7212 22.2513 62.0776 22.3237C62.4549 22.4026 62.7864 22.4347 63.1773 22.4309C64.9259 22.4249 66.043 21.753 66.9228 20.7289L66.1829 20.2136C66.0111 20.402 65.5898 20.7099 65.2403 20.6241C65.0302 20.5726 64.8865 20.3825 64.8594 20.0435C64.8423 19.8267 64.8356 19.6626 64.8368 19.4339V15.0578C64.838 14.7033 64.8316 14.404 64.8157 14.0499C64.8047 13.7214 64.7776 13.4445 64.7254 13.1185C64.7066 12.9986 64.6633 12.8141 64.6123 12.6996C64.464 12.3815 64.2739 12.1296 63.9878 11.8728C63.3035 11.2575 62.4725 10.8244 61.4683 10.6384C60.846 10.5227 60.3038 10.4753 59.6632 10.4809C58.4696 10.4784 57.4581 10.6079 56.3299 10.9075C55.8565 11.031 55.4704 11.1668 55.0394 11.3618C54.5518 11.5813 54.1785 11.8188 53.8073 12.1459C53.5372 12.3815 53.3459 12.606 53.1727 12.8902C53.157 12.9161 53.1418 12.9426 53.127 12.9694C52.6342 13.8669 52.9681 14.7241 53.8356 15.17C54.7454 15.6375 56.1469 15.6116 56.936 15.0112C57.7092 14.4228 57.6394 13.5323 56.9056 12.9473C56.471 12.6005 56.3218 12.3631 56.6421 12.1378C56.7901 12.0338 56.9857 11.9482 57.2064 11.8814C58.1149 11.6062 59.8359 11.531 60.1451 12.5157C60.1683 12.5899 60.1835 12.664 60.1926 12.7464C60.2111 12.89 60.2239 13.0116 60.2356 13.1558C60.2529 13.4319 60.2598 13.6653 60.2584 13.9419V14.9981C59.2656 15.35 58.4371 15.6628 57.4683 16.0516C56.6143 16.3938 55.8081 16.7472 55.0154 17.159C53.6771 17.8536 52.5993 18.7907 52.5962 20.1194C52.5945 20.78 52.8763 21.3275 53.4564 21.7707C54.0492 22.2232 54.8027 22.4391 55.6101 22.4309C56.0656 22.428 56.4508 22.3825 56.8864 22.2803C57.354 22.1708 57.7363 22.0465 58.1643 21.8652C58.9351 21.5396 59.6311 21.1428 60.2931 20.7008Z" fill="white"/>
<path fill-rule="evenodd" clip-rule="evenodd" d="M166.545 10.8817C166.38 10.8182 166.211 10.7627 166.039 10.7149C165.166 10.4712 164.08 10.4119 163.086 10.5743C161.087 10.901 159.755 12.2876 159.65 13.8095C159.505 15.8911 161.776 17.1113 163.745 18.1444C163.883 18.2168 164.017 18.2865 164.144 18.3528C164.858 18.7251 165.887 19.2864 166.213 19.7971C166.338 19.9977 166.396 20.2218 166.355 20.4819C166.264 21.0663 165.518 21.4357 164.778 21.4346C164.378 21.4339 163.965 21.35 163.621 21.2193C162.697 20.8686 161.929 20.4034 161.405 19.727C161.055 19.2745 160.807 18.8403 160.591 18.3391H159.841L160.104 22.5756H160.82C161.167 21.9305 161.431 21.894 162.238 22.1112C163.849 22.5455 165.408 22.8316 166.994 22.3482C167.538 22.1824 168.052 21.9284 168.52 21.5682C169.452 20.8502 169.977 19.8197 169.985 18.8091C169.996 17.2575 168.885 16.3765 167.371 15.4847C166.255 14.8272 164.717 14.124 163.705 13.4087C163.175 13.034 162.73 12.39 163.418 11.9179C163.809 11.6499 164.459 11.5859 164.95 11.6567C165.395 11.7207 165.857 11.8746 166.258 12.0734C167.298 12.5558 168.017 13.6923 168.478 14.5359H169.221L168.973 10.5042H168.261C168.261 10.5042 167.867 11.0819 167.393 11.1073C167.155 11.1201 166.899 11.0177 166.545 10.8817Z" fill="white"/>
<path d="M166.545 10.8817C166.38 10.8182 166.211 10.7627 166.039 10.7149C165.166 10.4712 164.08 10.4119 163.086 10.5743C161.087 10.901 159.755 12.2876 159.65 13.8095C159.505 15.8911 161.776 17.1113 163.745 18.1444C163.883 18.2168 164.017 18.2865 164.144 18.3528C164.858 18.7251 165.887 19.2864 166.213 19.7971C166.338 19.9977 166.396 20.2218 166.355 20.4819C166.264 21.0663 165.518 21.4357 164.778 21.4346C164.378 21.4339 163.965 21.35 163.621 21.2193C162.697 20.8686 161.929 20.4034 161.405 19.727C161.055 19.2745 160.807 18.8403 160.591 18.3391H159.841L160.104 22.5756H160.82C161.167 21.9305 161.431 21.894 162.238 22.1112C163.849 22.5455 165.408 22.8316 166.994 22.3482C167.538 22.1824 168.052 21.9284 168.52 21.5682C169.452 20.8502 169.977 19.8197 169.985 18.8091C169.996 17.2575 168.885 16.3765 167.371 15.4847C166.255 14.8272 164.717 14.124 163.705 13.4087C163.175 13.034 162.73 12.39 163.418 11.9179C163.809 11.6499 164.459 11.5859 164.95 11.6567C165.395 11.7207 165.857 11.8746 166.258 12.0734C167.298 12.5558 168.017 13.6923 168.478 14.5359H169.221L168.973 10.5042H168.261C168.261 10.5042 167.867 11.0819 167.393 11.1073C167.155 11.1201 166.899 11.0177 166.545 10.8817Z" fill="white"/>
<path fill-rule="evenodd" clip-rule="evenodd" d="M141.066 7.31364C141.068 6.80295 140.848 6.36673 140.399 5.98928C139.472 5.20334 137.888 5.1433 136.863 5.85494C136.849 5.86462 136.838 5.87283 136.824 5.88287C135.805 6.62025 135.751 7.8477 136.688 8.63801C137.635 9.43763 139.244 9.48217 140.263 8.74442C140.798 8.35821 141.068 7.87672 141.066 7.31364Z" fill="white"/>
<path d="M141.066 7.31364C141.068 6.80295 140.848 6.36673 140.399 5.98928C139.472 5.20334 137.888 5.1433 136.863 5.85494C136.849 5.86462 136.838 5.87283 136.824 5.88287C135.805 6.62025 135.751 7.8477 136.688 8.63801C137.635 9.43763 139.244 9.48217 140.263 8.74442C140.798 8.35821 141.068 7.87672 141.066 7.31364Z" fill="white"/>
<path fill-rule="evenodd" clip-rule="evenodd" d="M121.366 11.8194C121.722 11.8769 121.865 11.9592 121.875 11.9645C122.048 12.0543 122.208 12.2445 122.278 12.4106C122.318 12.5095 122.339 12.5961 122.35 12.6992C122.363 12.8087 122.372 12.9012 122.38 13.0109C122.392 13.2217 122.397 13.3999 122.396 13.6109C122.396 13.6109 122.396 17.2065 122.396 18.7904C122.396 19.2694 122.424 20.4225 122.252 20.892C122.141 21.1944 121.899 21.4054 121.293 21.5036C121.129 21.5302 120.968 21.5428 120.78 21.5521V22.2738H128.87V21.5509C128.632 21.5432 128.29 21.5257 127.989 21.4766C127.275 21.3601 127.066 21.0705 127.003 20.6702C126.972 20.4674 126.959 19.2274 126.959 19.0237C126.959 18.7871 126.959 18.5793 126.959 18.2615C126.959 16.8431 126.848 15.3563 127.646 14.0261C127.891 13.6187 128.248 13.2221 128.748 13.0757C129.269 12.9231 129.555 13.1049 129.879 13.3375C130.377 13.6937 130.937 13.971 131.584 13.9713C132.807 13.9721 133.369 13.232 133.481 12.4398C133.643 11.2994 132.911 10.4226 131.303 10.4852C129.284 10.5635 127.965 11.5962 126.959 12.7786V10.8181H120.78V11.7548C120.987 11.7691 121.162 11.7884 121.366 11.8194Z" fill="white"/>
<path d="M121.366 11.8194C121.722 11.8769 121.865 11.9592 121.875 11.9645C122.048 12.0543 122.208 12.2445 122.278 12.4106C122.318 12.5095 122.339 12.5961 122.35 12.6992C122.363 12.8087 122.372 12.9012 122.38 13.0109C122.392 13.2217 122.397 13.3999 122.396 13.6109C122.396 13.6109 122.396 17.2065 122.396 18.7904C122.396 19.2694 122.424 20.4225 122.252 20.892C122.141 21.1944 121.899 21.4054 121.293 21.5036C121.129 21.5302 120.968 21.5428 120.78 21.5521V22.2738H128.87V21.5509C128.632 21.5432 128.29 21.5257 127.989 21.4766C127.275 21.3601 127.066 21.0705 127.003 20.6702C126.972 20.4674 126.959 19.2274 126.959 19.0237C126.959 18.7871 126.959 18.5793 126.959 18.2615C126.959 16.8431 126.848 15.3563 127.646 14.0261C127.891 13.6187 128.248 13.2221 128.748 13.0757C129.269 12.9231 129.555 13.1049 129.879 13.3375C130.377 13.6937 130.937 13.971 131.584 13.9713C132.807 13.9721 133.369 13.232 133.481 12.4398C133.643 11.2994 132.911 10.4226 131.303 10.4852C129.284 10.5635 127.965 11.5962 126.959 12.7786V10.8181H120.78V11.7548C120.987 11.7691 121.162 11.7884 121.366 11.8194Z" fill="white"/>
<path fill-rule="evenodd" clip-rule="evenodd" d="M40.1841 11.8194C40.5401 11.8769 40.6831 11.9592 40.6933 11.9645C40.8668 12.0543 41.026 12.2445 41.0963 12.4106C41.136 12.5095 41.1574 12.5961 41.1681 12.6992C41.1814 12.8087 41.1902 12.9012 41.1983 13.0109C41.2101 13.2217 41.2149 13.3999 41.2139 13.6109C41.2139 13.6109 41.2139 17.078 41.2139 18.6619C41.2139 19.1407 41.2427 20.2938 41.0702 20.7635C40.959 21.0659 40.7171 21.2769 40.1109 21.3751C39.9474 21.4016 39.7861 21.4142 39.5981 21.4236V22.2738H47.6885V21.4222C47.4504 21.4145 47.1083 21.3972 46.807 21.3481C46.0936 21.2316 45.8848 20.9418 45.8218 20.5415C45.79 20.3391 45.7778 19.0991 45.7778 18.8952C45.7778 18.6586 45.7778 18.4508 45.7778 18.1332C45.7778 16.7146 45.6664 15.3563 46.4648 14.0261C46.7093 13.6187 47.0669 13.2221 47.5666 13.0757C48.0875 12.9231 48.3733 13.1049 48.6977 13.3375C49.1953 13.6937 49.7553 13.971 50.4026 13.9713C51.6254 13.9721 52.1876 13.232 52.3 12.4398C52.4618 11.2994 51.7292 10.4226 50.121 10.4852C48.1027 10.5635 46.7834 11.5962 45.7781 12.7786V10.8181H39.5984V11.7548C39.8053 11.7691 39.9795 11.7884 40.1841 11.8194Z" fill="white"/>
<path d="M40.1841 11.8194C40.5401 11.8769 40.6831 11.9592 40.6933 11.9645C40.8668 12.0543 41.026 12.2445 41.0963 12.4106C41.136 12.5095 41.1574 12.5961 41.1681 12.6992C41.1814 12.8087 41.1902 12.9012 41.1983 13.0109C41.2101 13.2217 41.2149 13.3999 41.2139 13.6109C41.2139 13.6109 41.2139 17.078 41.2139 18.6619C41.2139 19.1407 41.2427 20.2938 41.0702 20.7635C40.959 21.0659 40.7171 21.2769 40.1109 21.3751C39.9474 21.4016 39.7861 21.4142 39.5981 21.4236V22.2738H47.6885V21.4222C47.4504 21.4145 47.1083 21.3972 46.807 21.3481C46.0936 21.2316 45.8848 20.9418 45.8218 20.5415C45.79 20.3391 45.7778 19.0991 45.7778 18.8952C45.7778 18.6586 45.7778 18.4508 45.7778 18.1332C45.7778 16.7146 45.6664 15.3563 46.4648 14.0261C46.7093 13.6187 47.0669 13.2221 47.5666 13.0757C48.0875 12.9231 48.3733 13.1049 48.6977 13.3375C49.1953 13.6937 49.7553 13.971 50.4026 13.9713C51.6254 13.9721 52.1876 13.232 52.3 12.4398C52.4618 11.2994 51.7292 10.4226 50.121 10.4852C48.1027 10.5635 46.7834 11.5962 45.7781 12.7786V10.8181H39.5984V11.7548C39.8053 11.7691 39.9795 11.7884 40.1841 11.8194Z" fill="white"/>
<path fill-rule="evenodd" clip-rule="evenodd" d="M32.3107 9.36674C31.8134 9.79146 31.3657 10.1311 30.8068 10.5079C30.198 10.9178 29.6064 11.2739 28.9458 11.6344V12.1978H30.842C30.842 12.1978 30.842 17.8032 30.842 17.9939C30.842 18.7326 30.7869 19.438 30.9078 20.0705C31.4194 22.7349 35.6592 22.9639 37.9408 21.6575C38.5669 21.299 39.0597 20.8323 39.3175 20.2849L38.2606 19.6194C38.1242 19.8071 37.9451 20.0323 37.7279 20.2393C37.5684 20.3859 37.4009 20.5018 37.232 20.5874C36.4457 20.9863 35.7134 20.71 35.5271 20.0263C35.3952 19.5419 35.4358 18.8315 35.4358 18.4646C35.4358 17.9216 35.4358 12.1976 35.4358 12.1976H38.886V10.818H35.4358V6.69556H34.7292C34.0268 7.7069 33.3011 8.50835 32.3107 9.36674Z" fill="white"/>
<path d="M32.3107 9.36674C31.8134 9.79146 31.3657 10.1311 30.8068 10.5079C30.198 10.9178 29.6064 11.2739 28.9458 11.6344V12.1978H30.842C30.842 12.1978 30.842 17.8032 30.842 17.9939C30.842 18.7326 30.7869 19.438 30.9078 20.0705C31.4194 22.7349 35.6592 22.9639 37.9408 21.6575C38.5669 21.299 39.0597 20.8323 39.3175 20.2849L38.2606 19.6194C38.1242 19.8071 37.9451 20.0323 37.7279 20.2393C37.5684 20.3859 37.4009 20.5018 37.232 20.5874C36.4457 20.9863 35.7134 20.71 35.5271 20.0263C35.3952 19.5419 35.4358 18.8315 35.4358 18.4646C35.4358 17.9216 35.4358 12.1976 35.4358 12.1976H38.886V10.818H35.4358V6.69556H34.7292C34.0268 7.7069 33.3011 8.50835 32.3107 9.36674Z" fill="white"/>
<path fill-rule="evenodd" clip-rule="evenodd" d="M89.8676 7.31364C89.869 6.80295 89.6494 6.36673 89.2008 5.98928C88.2729 5.20334 86.6897 5.1433 85.6648 5.85494C85.6506 5.86462 85.6392 5.87283 85.6254 5.88287C84.6067 6.62025 84.5525 7.8477 85.489 8.63801C86.4361 9.43763 88.0458 9.48217 89.0644 8.74442C89.5993 8.35821 89.8692 7.87672 89.8676 7.31364Z" fill="white"/>
<path d="M89.8676 7.31364C89.869 6.80295 89.6494 6.36673 89.2008 5.98928C88.2729 5.20334 86.6897 5.1433 85.6648 5.85494C85.6506 5.86462 85.6392 5.87283 85.6254 5.88287C84.6067 6.62025 84.5525 7.8477 85.489 8.63801C86.4361 9.43763 88.0458 9.48217 89.0644 8.74442C89.5993 8.35821 89.8692 7.87672 89.8676 7.31364Z" fill="white"/>
</svg>
