<svg width="191" height="41" viewBox="0 0 191 41" fill="none" xmlns="http://www.w3.org/2000/svg">
<g clip-path="url(#clip0)">
<path d="M16.3021 13.7351L15.0151 17.0834H17.6606L16.6596 14.5551L16.3021 13.7351Z" fill="white"/>
<path d="M88.8019 26.103C87.2289 26.103 86.5854 27.2647 86.5854 28.6314H90.5894C90.7324 27.128 90.1604 26.103 88.8019 26.103Z" fill="white"/>
<path d="M117.688 29.5198C116.329 29.9298 115.686 30.6815 115.686 31.7748C115.686 32.6632 116.258 33.2098 116.901 33.2098C117.974 33.2098 119.404 31.9115 119.189 29.0415L117.688 29.5198Z" fill="white"/>
<path d="M141.282 24.5318C141.282 23.3018 140.353 22.8235 139.066 22.8235H137.564V26.7868H138.494C140.138 26.7868 141.282 25.7618 141.282 24.5318Z" fill="white"/>
<path d="M151.721 29.5198C150.363 29.9298 149.719 30.6815 149.719 31.7748C149.719 32.6632 150.291 33.2098 150.935 33.2098C152.007 33.2098 153.437 31.9115 153.223 29.0415L151.721 29.5198Z" fill="white"/>
<path d="M139.066 28.4946H137.636V33.073H139.066C140.639 33.073 141.854 32.253 141.854 30.7496C141.854 29.178 140.639 28.4946 139.066 28.4946Z" fill="white"/>
<path d="M98.5252 26.6499V26.5815L98.4541 26.6499H98.5252Z" fill="white"/>
<path d="M182.179 15.4431H34.3194C34.3194 15.5114 34.3194 15.5798 34.3194 15.6481C34.3194 23.7114 27.956 30.4081 19.6621 31.5014V32.4581C19.6621 36.6264 23.2371 40.0431 27.5985 40.0431H190.116V23.0281C190.116 18.8598 186.541 15.4431 182.179 15.4431ZM50.8357 29.5198C50.8357 33.0048 48.4762 34.9181 45.1158 34.9181C41.2548 34.9181 39.1813 33.0731 39.1813 29.3831V21.0464H42.1128V28.9048C42.1128 31.5698 42.9708 33.0731 45.1873 33.0731C47.4037 33.0731 48.2617 31.2964 48.2617 29.1098V21.0464H50.8357V29.5198ZM63.9915 34.7131H61.2746V28.6998C61.2746 27.3331 60.6311 26.4448 59.2011 26.4448C57.8426 26.4448 56.8416 27.2648 56.8416 28.9048V34.7131H54.1246V24.9414H56.8416V26.1031C57.7711 25.1464 59.0581 24.7364 60.3451 24.7364C62.7045 24.7364 63.9915 25.9664 63.9915 28.4264V34.7131ZM69.9259 34.7131H67.209V24.9414H69.9259V34.7131ZM68.5675 23.6431C67.638 23.6431 66.9945 22.8231 66.9945 22.0031C66.9945 21.2514 67.638 20.4998 68.5675 20.4998C69.4969 20.4998 70.2119 21.2514 70.2119 22.0031C70.2119 22.8231 69.5684 23.6431 68.5675 23.6431ZM77.9338 34.7131H75.9319L71.6419 24.8731H74.5019C75.3599 27.1281 76.2894 29.2464 77.1473 31.9798H77.2188C78.1483 29.2464 79.0063 27.1281 79.9358 24.8731H82.5098L77.9338 34.7131ZM93.1631 30.0664H86.5137C86.4422 31.9114 87.8007 33.2781 89.5167 33.2781C90.5177 33.2781 91.5902 32.9364 92.2336 32.5264L93.0201 33.8931C91.6617 34.7131 90.1602 34.9864 89.0162 34.9864C85.9417 34.9864 83.6538 32.8681 83.6538 29.6564C83.6538 26.6498 85.9417 24.7364 88.8732 24.7364C92.0907 24.7364 93.3776 27.1964 93.1631 30.0664ZM101.672 27.4014C101.243 27.1964 100.957 27.0598 100.385 27.0598C99.455 27.0598 98.5256 27.8114 98.5256 29.8614V34.7131H95.8086V24.9414H98.5256V26.5814L99.0261 25.8981C99.312 25.4881 99.9555 24.7364 100.814 24.7364C101.457 24.7364 102.101 25.0781 102.673 25.6248L101.672 27.4014ZM107.248 34.9864C105.818 34.9864 104.746 34.5081 103.816 33.8931L104.674 32.5264C105.318 33.0048 106.176 33.4831 106.891 33.4831C107.677 33.4831 108.392 33.0731 108.392 32.2531C108.392 31.2964 107.32 30.8181 106.319 30.1348C105.175 29.3831 104.317 28.6314 104.317 27.4014C104.317 25.8298 105.89 24.7364 107.892 24.7364C109.036 24.7364 110.108 25.0098 110.895 25.6248L109.965 26.7864C109.322 26.3764 108.75 26.1714 108.249 26.1714C107.677 26.1714 107.034 26.5131 107.034 27.1964C107.034 27.9481 108.035 28.4264 109.179 29.2464C110.609 30.2714 111.038 31.2964 111.038 32.1848C111.038 33.5514 109.465 34.9864 107.248 34.9864ZM119.475 34.6448C119.26 34.3031 119.189 33.7564 119.189 33.2098L118.545 33.7564C117.83 34.3714 116.901 34.9181 115.9 34.9181C114.327 34.9181 112.968 33.7564 112.968 31.9114C112.968 30.0664 114.398 29.0414 116.758 28.3581L119.189 27.6748C119.046 26.7864 118.188 26.2398 117.33 26.2398C116.186 26.2398 115.328 26.6498 114.613 27.2648L113.755 26.0348C115.042 25.0098 116.257 24.6681 117.687 24.6681C119.546 24.6681 121.906 25.2831 121.906 28.2898V32.2531C121.906 33.0731 121.977 33.9614 122.335 34.6448H119.475ZM127.626 34.7131H124.909V20.3631H127.626V34.7131ZM139.423 34.7815H134.704V34.7131V21.0464H139.852C142.283 21.0464 143.927 22.1398 143.927 23.9848C143.927 26.1714 142.068 27.0598 141.067 27.3331V27.4014C142.855 27.4698 144.857 28.6314 144.857 30.7498C144.857 33.0731 142.783 34.7815 139.423 34.7815ZM153.508 34.6448C153.294 34.3031 153.222 33.7564 153.222 33.2098L152.579 33.7564C151.864 34.3714 150.934 34.9181 149.933 34.9181C148.36 34.9181 147.002 33.7564 147.002 31.9114C147.002 30.0664 148.432 29.0414 150.791 28.3581L153.222 27.6748C153.079 26.7864 152.221 26.2398 151.363 26.2398C150.219 26.2398 149.361 26.6498 148.646 27.2648L147.788 26.0348C149.075 25.0098 150.291 24.6681 151.721 24.6681C153.58 24.6681 155.939 25.2831 155.939 28.2898V32.2531C155.939 33.0731 156.011 33.9614 156.368 34.6448H153.508ZM168.809 34.7131H166.092V28.6998C166.092 27.3331 165.449 26.4448 164.019 26.4448C162.66 26.4448 161.659 27.2648 161.659 28.9048V34.7131H158.942V24.9414H161.659V26.1031C162.589 25.1464 163.876 24.7364 165.163 24.7364C167.594 24.7364 168.809 25.9664 168.809 28.4264V34.7131ZM178.533 34.7131L174.672 29.5881H174.601V34.7131H171.884V20.3631H174.601V28.8364H174.815L178.318 24.7364H180.821L176.96 29.1781L181.679 34.7131H178.533Z" fill="white"/>
<path d="M32.8898 15.6482C32.8898 15.5799 32.8898 15.5115 32.8898 15.4432C32.7468 7.65321 26.2403 1.36654 17.9465 0.956543C17.6605 0.956543 17.3745 0.956543 17.16 0.956543C16.9455 0.956543 16.588 0.956543 16.3735 0.956543C8.07959 1.36654 1.43018 7.78988 1.43018 15.6482C1.43018 23.3015 7.72209 29.5882 15.73 30.2715C16.2305 30.3399 16.6595 30.3399 17.16 30.3399C17.6605 30.3399 18.0895 30.3399 18.5899 30.2715C18.9474 30.2715 19.3049 30.2032 19.6624 30.1349C27.1698 29.0415 32.8898 22.9599 32.8898 15.6482ZM29.3148 11.3432C29.8153 11.6849 30.7448 12.5049 30.7448 12.5049L29.8153 13.3249C29.8153 13.3249 28.8143 12.3682 28.5283 12.1632C28.2423 11.9582 27.0268 12.3682 26.8123 12.4365L28.1708 11.4115C28.5283 11.1382 28.9573 11.1382 29.3148 11.3432ZM26.5978 9.15654C27.0268 9.56654 27.3843 9.97654 27.7418 10.4549C27.8848 10.7965 27.8848 11.1382 27.6703 11.4115L26.5263 12.5732C26.5263 12.5732 27.0983 11.3432 26.9553 11.0699C26.5978 10.6599 26.1688 10.2499 25.7399 9.83988L26.5978 9.15654ZM21.8074 12.8465C22.0934 12.6415 22.3794 12.4365 22.6654 12.2999C23.0229 12.1632 23.3804 12.0949 23.7379 12.0949C23.9524 12.0949 24.1669 12.0949 24.3814 12.0949C24.5959 12.0949 24.8104 12.1632 25.0249 12.1632C25.2394 12.2315 25.4539 12.2315 25.5969 12.2999C25.4539 12.3682 24.7389 12.8465 24.7389 12.8465C24.7389 12.8465 24.4529 12.7782 24.3099 12.7099C24.1669 12.6415 24.0239 12.6415 23.8809 12.6415C23.7379 12.6415 23.6664 12.6415 23.5234 12.6415C23.3089 12.6415 23.0944 12.6415 22.8799 12.7099C22.6654 12.7782 22.5224 12.8465 22.3794 12.9832C22.2364 13.1199 22.1649 13.2565 22.0934 13.3932C22.0219 13.5299 21.9504 13.7349 21.9504 13.9399C21.9504 14.0765 21.9504 14.2815 22.0219 14.4182C22.0219 14.5549 22.0934 14.7599 22.2364 14.8965C22.3079 15.0332 22.4509 15.1699 22.5939 15.3065C22.6654 15.3749 22.7369 15.3749 22.8084 15.4432C22.9514 15.5115 23.0944 15.5799 23.2374 15.6482L23.6664 15.7849L24.0954 15.9215L24.5959 16.0582C24.7389 16.1265 24.9534 16.1949 25.0964 16.2632C25.3109 16.3315 25.4539 16.3999 25.6684 16.5365C25.8829 16.6732 26.0258 16.7415 26.1688 16.9465C26.3118 17.0832 26.4548 17.2882 26.5263 17.4932C26.5978 17.7665 26.6693 17.9715 26.6693 18.2449C26.6693 18.5865 26.5978 18.8599 26.4548 19.2015C26.3118 19.5432 26.1688 19.8165 25.8829 20.0215C25.5969 20.2949 25.2394 20.4999 24.8819 20.6365C24.3814 20.7732 23.9524 20.8415 23.4519 20.8415C23.2374 20.8415 23.0229 20.8415 22.8799 20.7732C22.6654 20.7732 22.4509 20.7049 22.1649 20.7049C21.9504 20.6365 21.5214 20.4999 21.5214 20.4999C21.3784 20.4315 21.2354 20.3632 21.1639 20.2949V18.9282H21.9504C21.9504 19.1332 22.0219 19.4065 22.0219 19.6115C22.0934 19.7482 22.1649 19.8165 22.3079 19.8849C22.4509 19.9532 22.6654 20.0215 22.8084 20.0899C22.9514 20.1582 23.1659 20.1582 23.3089 20.2265C23.4519 20.2265 23.5949 20.2949 23.7379 20.2949C23.9524 20.2949 24.2384 20.2949 24.4529 20.1582C24.6674 20.0899 24.8819 19.9532 25.0249 19.8165C25.1679 19.6799 25.3109 19.4749 25.3824 19.3382C25.4539 19.1332 25.5254 18.8599 25.5254 18.6549C25.5254 18.3132 25.4539 18.0399 25.2394 17.7665C25.0249 17.4932 24.7389 17.3565 24.3814 17.2199C24.2384 17.1515 24.0954 17.0832 23.8809 17.0832L23.3804 16.9465L22.8799 16.8099C22.7369 16.7415 22.5939 16.7415 22.3794 16.6732C21.9504 16.5365 21.5214 16.2632 21.3069 15.9215C21.2354 15.7849 21.1639 15.7165 21.0924 15.5799C20.9494 15.3065 20.8779 15.0332 20.8779 14.6915C21.0209 13.9399 21.3069 13.2565 21.8074 12.8465ZM10.0101 20.0215C10.0816 20.0899 10.1531 20.1582 10.2246 20.1582L11.154 20.2949V20.5682H7.57909V20.2949L8.50858 20.1582C8.58008 20.1582 8.65158 20.0899 8.72308 20.0215C8.79458 19.9532 8.79458 19.8849 8.79458 19.8165V12.7782H6.72111C6.64961 12.7782 6.57811 12.7782 6.50661 12.8465C6.43511 12.9149 6.43511 12.9149 6.43511 12.9832L6.00611 14.2815H5.72012V12.2999H13.0845V14.2815H12.727L12.298 12.9832C12.298 12.9149 12.2265 12.8465 12.2265 12.8465C12.155 12.7782 12.0835 12.7782 12.012 12.7782H9.93856V19.8165C9.93856 19.8849 9.93856 19.9532 10.0101 20.0215ZM17.5175 20.6365V20.3632L18.8044 20.1582L17.732 17.5615H14.8005L13.7995 20.0899L14.586 20.2949V20.5682H12.0835V20.2949L12.6555 20.1582C12.727 20.1582 12.7985 20.0899 12.87 20.0215C12.9415 19.9532 13.013 19.8849 13.013 19.8165L15.5155 13.5982L16.016 12.3682L16.588 12.2315L19.6624 19.7482V19.8165C19.6624 19.8849 19.7339 19.9532 19.8054 20.0215C19.8769 20.0899 19.9484 20.1582 20.0199 20.1582L20.5919 20.2949V20.5682H19.6624H17.5175V20.6365Z" fill="white"/>
</g>
<defs>
<clipPath id="clip0">
<rect width="190.188" height="41" fill="white"/>
</clipPath>
</defs>
</svg>
