<svg width="127" height="42" viewBox="0 0 127 42" fill="none" xmlns="http://www.w3.org/2000/svg">
<path d="M119.952 40.7574L101.22 0.0271211L101.207 0.000244141H100.837L96.9796 8.37022L89.9569 23.6078L89.9405 23.5958C87.5065 21.8997 84.0726 20.8395 79.748 20.4446L78.4289 20.3371L79.7374 20.2046C86.8692 19.1925 91.6633 15.6354 91.6633 11.3499C91.6633 5.47303 84.6641 1.37099 74.6382 1.37099H53.7779V1.6685H59.8394V32.0352L45.1181 0.0271211L45.1052 0.000244141H44.7355L40.878 8.37022L25.9994 40.6527L25.9079 40.661C25.6535 40.6858 25.402 40.7055 25.1532 40.7203C24.7789 40.7435 24.4069 40.7574 24.0337 40.7574H9.00015L37.5767 1.66849L37.7891 1.37469H2.83888V13.4667H3.20973C3.27545 7.57687 7.61885 1.66849 17.2152 1.66849H28.7925L0 41.0503H38.789V29.4652H38.4182C38.3677 34.5988 34.6827 39.4747 26.6695 40.5757L26.4148 40.61L32.5174 27.3632H49.6129L55.773 40.7574H49.6962V41.0503H73.5468V40.7574H67.4442V20.5531H74.4857C81.6515 20.5531 85.7614 23.0814 85.7614 27.4874V31.0714C85.7614 31.4662 85.7954 32.0436 85.833 32.5264V32.5441L82.0482 40.7555H77.1039V41.0484H87.3387V40.7555H82.4472L85.894 33.2781C85.901 33.3504 85.9045 33.3939 85.9045 33.3939L85.9996 34.0677L86.0911 34.5135C86.6662 37.2708 88.0017 39.2977 90.059 40.5377L90.3547 40.7074C91.9179 41.5656 93.8602 42.0002 96.1311 42.0002C99.139 42.0002 101.145 41.408 102.801 40.0141L102.583 39.8528C101.058 40.965 99.7774 41.4154 98.1731 41.4154C95.4398 41.4154 94.0093 38.7972 94.0093 36.2151V31.1937C94.0238 29.9477 93.7768 28.7085 93.2781 27.5263L93.2101 27.3706V27.3651H105.715L111.875 40.7593H105.798V41.0521H126.438V40.7593L119.952 40.7574ZM32.6536 27.0704L41.0751 8.7984L49.4779 27.0704H32.6536ZM67.4477 20.2593V1.66849H72.8227C80.0026 1.66849 83.7933 5.03928 83.7933 11.4129C83.7933 18.1916 81.6175 20.2593 74.4857 20.2593H67.4477ZM93.0645 27.0704L93.0282 26.9981C92.4725 25.9293 91.6635 24.9541 90.6446 24.125L90.2925 23.8469L90.255 23.8191L97.1721 8.7984L105.575 27.0704H93.0645Z" fill="#282C34"/>
</svg>
