<svg width="128" height="42" viewBox="0 0 128 42" fill="none" xmlns="http://www.w3.org/2000/svg">
<g clip-path="url(#clip0)">
<path d="M120.786 40.7572L102.046 0.0268769L102.033 0H101.663L97.8044 8.36997L90.7792 23.6076L90.7627 23.5955C88.3279 21.8995 84.8927 20.8392 80.5665 20.4444L79.247 20.3369L80.556 20.2043C87.6904 19.1923 92.4862 15.6352 92.4862 11.3497C92.4862 5.47279 85.4844 1.37075 75.4549 1.37075H54.587V1.66825H60.6508V32.035L45.9241 0.0268769L45.9112 0H45.5413L41.6824 8.36997L26.7984 40.6524L26.7068 40.6608C26.4524 40.6855 26.2008 40.7053 25.9519 40.7201C25.5774 40.7432 25.2053 40.7572 24.8319 40.7572H9.79298L38.3799 1.66825L38.5924 1.37445H3.62946V13.4665H4.00045C4.06619 7.57663 8.41117 1.66825 18.011 1.66825H29.5925L0.789551 41.05H39.5927V29.465H39.2217C39.1712 34.5985 35.4848 39.4745 27.4688 40.5755L27.214 40.6098L33.3188 27.363H50.4205L56.5828 40.7572H50.5039V41.05H74.3631V40.7572H68.2583V20.5528H75.3023C82.4708 20.5528 86.5821 23.0811 86.5821 27.4872V31.0711C86.5821 31.4659 86.6162 32.0433 86.6537 32.5262V32.5438L82.8676 40.7553H77.9215V41.0482H88.16V40.7553H83.2667L86.7148 33.2778C86.7218 33.3501 86.7254 33.3937 86.7254 33.3937L86.8204 34.0675L86.912 34.5133C87.4873 37.2705 88.8233 39.2974 90.8813 40.5375L91.1772 40.7071C92.7409 41.5653 94.6839 42 96.9556 42C99.9646 42 101.971 41.4078 103.627 40.0139L103.41 39.8526C101.884 40.9648 100.603 41.4152 98.9984 41.4152C96.2641 41.4152 94.833 38.797 94.833 36.2149V31.1935C94.8476 29.9475 94.6004 28.7082 94.1016 27.5261L94.0335 27.3704V27.3648H106.543L112.705 40.759H106.626V41.0519H127.273V40.759L120.786 40.7572ZM33.455 27.0701L41.8796 8.79816L50.2855 27.0701H33.455ZM68.2618 20.259V1.66825H73.6388C80.8213 1.66825 84.6133 5.03904 84.6133 11.4127C84.6133 18.1913 82.4367 20.259 75.3023 20.259H68.2618ZM93.8879 27.0701L93.8516 26.9978C93.2957 25.929 92.4864 24.9538 91.4671 24.1247L91.115 23.8467L91.0774 23.8189L97.997 8.79816L106.403 27.0701H93.8879Z" fill="white"/>
</g>
<defs>
<clipPath id="clip0">
<rect width="126.484" height="42" fill="white" transform="translate(0.789551)"/>
</clipPath>
</defs>
</svg>
